<?xml version="1.0" standalone="no"?>
<!DOCTYPE svg PUBLIC "-//W3C//DTD SVG 1.1//EN" "http://www.w3.org/Graphics/SVG/1.1/DTD/svg11.dtd" >
<svg>
<metadata>
Created by FontForge 20090914 at Fri Sep 30 14:54:44 2016
 By www-data
&#194;&#169; 2010 Klim Type Foundry. All rights reserved.
</metadata>
<defs>
<font id="TiemposHeadline-Light" horiz-adv-x="500" >
  <font-face 
    font-family="Tiempos Headline Light"
    font-weight="300"
    font-stretch="normal"
    units-per-em="1000"
    panose-1="2 2 3 3 6 3 3 6 4 3"
    ascent="783"
    descent="-217"
    x-height="520"
    cap-height="702.001"
    bbox="-95 -225.002 1174 1033"
    underline-thickness="30"
    underline-position="-100"
    unicode-range="U+0020-U+FB04"
  />
<missing-glyph horiz-adv-x="960" 
d="M90 0v780h780v-780h-780zM480 345l-279 -279h558zM201 714l279 -279l279 279h-558zM435 390l-275 275v-550zM525 390l275 -275v550z" />
    <glyph glyph-name="ff" unicode="ff" horiz-adv-x="618" 
d="M90 526l0.00292969 24.0039c0 64 19.833 115.667 59.5 155s89.5 59 149.5 59c54.667 0 100 -12.667 136 -38c32 38 77.333 57 136 57c70 0 105 -24 105 -72c0 -22.667 -9.66699 -39.334 -29 -50.001h-52c2 10 3 21.333 3 34c0 42.667 -16 64 -48 64
c-44 0 -66 -36.667 -66 -110v-129h129v-38h-129v-406c0 -18.667 6.16699 -31.334 18.5 -38.001s35.833 -10.667 70.5 -12v-26h-248v26c27.333 1.33301 45.666 5.16602 54.999 11.499s14 19.166 14 38.499v406h-214v-406c0 -19.333 4.66699 -32.166 14 -38.499
s27.666 -10.166 54.999 -11.499v-26h-228v26c27.333 1.33301 45.666 5.16602 54.999 11.499s14 19.166 14 38.499v406h-74v14zM394.003 593.004c0 30 4 57 12 81c-28 43.333 -64.667 65 -110 65c-77.333 0 -116 -52 -116 -156v-63h214v73z" />
    <glyph glyph-name="fi" unicode="fi" horiz-adv-x="568" 
d="M484 530l0.00292969 -453.999c0 -19.333 4.66699 -32.166 14 -38.499s27.666 -10.166 54.999 -11.499v-26h-228v26c27.333 1.33301 45.666 5.16602 54.999 11.499s14 19.166 14 38.499v406h-214v-406c0 -19.333 4.66699 -32.166 14 -38.499
s27.666 -10.166 54.999 -11.499v-26h-228v26c27.333 1.33301 45.666 5.16602 54.999 11.499s14 19.166 14 38.499v406h-74v14l74 30v35c0 71.333 19.167 126.166 57.5 164.499s88.5 57.5 150.5 57.5c40 0 72 -6.66699 96 -20s36 -32.666 36 -57.999
c0 -21.333 -10.667 -38 -32 -50h-57c2 10 3 20.667 3 32c0 46.667 -22.667 70 -68 70c-31.333 0 -55.166 -13.333 -71.499 -40s-24.5 -64.334 -24.5 -113.001v-84h249l39 10h16z" />
    <glyph glyph-name="fl" unicode="fl" horiz-adv-x="568" 
d="M484 783l0.00292969 -707c0 -19.333 4.66699 -32.166 14 -38.499s27.666 -10.166 54.999 -11.499v-26h-228v26c27.333 1.33301 45.666 5.16602 54.999 11.499s14 19.166 14 38.499v594c-24 58.667 -62.667 88 -116 88c-65.333 0 -98 -46.667 -98 -140v-98h129v-38h-129
v-406c0 -19.333 4.66699 -32.166 14 -38.499s27.666 -10.166 54.999 -11.499v-26h-228v26c27.333 1.33301 45.666 5.16602 54.999 11.499s14 19.166 14 38.499v406h-74v14l74 30v67c0 59.333 17.5 105.833 52.5 139.5s80.833 50.5 137.5 50.5
c42.667 0 80.334 -10.667 113.001 -32l79 32h12z" />
    <glyph glyph-name="ffi" unicode="ffi" horiz-adv-x="872" 
d="M90 526l0.00390625 24c0 64 19.833 115.667 59.5 155s89.5 59 149.5 59c58.667 0 107.334 -15 146.001 -45c38.667 42.667 91 64 157 64c40 0 72 -6.66699 96 -20s36 -32.666 36 -57.999c0 -21.333 -10.667 -38 -32 -50h-57c2 10 3 20.667 3 32
c0 46.667 -22.667 70 -68 70c-31.333 0 -55.166 -13.333 -71.499 -40s-24.5 -64.334 -24.5 -113.001v-84h249l39 10h16v-454c0 -19.333 4.66699 -32.166 14 -38.499s27.666 -10.166 54.999 -11.499v-26h-228v26c27.333 1.33301 45.666 5.16602 54.999 11.499
s14 19.166 14 38.499v406h-214v-406c0 -19.333 4.66699 -32.166 14 -38.499s27.666 -10.166 54.999 -11.499v-26h-228v26c27.333 1.33301 45.666 5.16602 54.999 11.499s14 19.166 14 38.499v406h-214v-406c0 -19.333 4.66699 -32.166 14 -38.499
s27.666 -10.166 54.999 -11.499v-26h-228v26c27.333 1.33301 45.666 5.16602 54.999 11.499s14 19.166 14 38.499v406h-74v14zM394.004 561c0 39.333 6.00098 73.667 18.001 103c-28.667 50 -67.334 75 -116.001 75c-77.333 0 -116 -52 -116 -156v-63h214v41z" />
    <glyph glyph-name="ffl" unicode="ffl" horiz-adv-x="872" 
d="M299 764c55.333 0 101.672 -13.333 139.005 -40c35.333 39.333 84 59 146 59c42.667 0 80.334 -10.667 113.001 -32l79 32h12v-707c0 -19.333 4.66699 -32.166 14 -38.499s27.666 -10.166 54.999 -11.499v-26h-228v26c27.333 1.33301 45.666 5.16602 54.999 11.499
s14 19.166 14 38.499v594c-24 58.667 -62.667 88 -116 88c-65.333 0 -98 -46.667 -98 -140v-98h129v-38h-129v-406c0 -19.333 4.66699 -32.166 14 -38.499s27.666 -10.166 54.999 -11.499v-26h-228v26c27.333 1.33301 45.666 5.16602 54.999 11.499s14 19.166 14 38.499v406
h-214v-406c0 -19.333 4.66699 -32.166 14 -38.499s27.666 -10.166 54.999 -11.499v-26h-228v26c27.333 1.33301 45.666 5.16602 54.999 11.499s14 19.166 14 38.499v406h-74v14l74 30v24c0 64 19.833 115.667 59.5 155s89.5 59 149.5 59zM394.006 520v73
c0 30.667 4.33301 57 13 79c-28 44.667 -65 67 -111 67c-77.333 0 -116 -52 -116 -156v-63h214z" />
    <glyph glyph-name="f_b" unicode="fb" horiz-adv-x="873" 
d="M394 62l0.000976562 607.999c-24 58.667 -62.667 88 -116 88c-65.333 0 -98 -46.667 -98 -140v-98h129v-38h-129v-406c0 -19.333 4.66699 -32.166 14 -38.499s27.666 -10.166 54.999 -11.499v-26h-228v26c27.333 1.33301 45.666 5.16602 54.999 11.499
s14 19.166 14 38.499v406h-74v14l74 30v67c0 59.333 17.5 105.833 52.5 139.5s80.833 50.5 137.5 50.5c42.667 0 80.334 -10.667 113.001 -32l79 32h12v-342c43.333 59.333 99.333 89 168 89c62 0 110.333 -21.667 145 -65s52 -101.666 52 -174.999
c0 -90 -24 -162.5 -72 -217.5s-107.667 -82.5 -179 -82.5c-82.667 0 -150.667 24 -204 72zM598.001 16.999c48 0 86.833 22.167 116.5 66.5s44.5 99.5 44.5 165.5c0 40 -4.83301 76.167 -14.5 108.5s-26.667 59.5 -51 81.5s-54.5 33 -90.5 33c-48 0 -87.667 -18 -119 -54
v-275c0 -84 38 -126 114 -126z" />
    <glyph glyph-name="f_f_b" unicode="ffb" horiz-adv-x="1177" 
d="M698 62l0.00390625 607.999c-24 58.667 -62.667 88 -116 88c-65.333 0 -98 -46.667 -98 -140v-98h129v-38h-129v-406c0 -19.333 4.66699 -32.166 14 -38.499s27.666 -10.166 54.999 -11.499v-26h-228v26c27.333 1.33301 45.666 5.16602 54.999 11.499
s14 19.166 14 38.499v406h-214v-406c0 -19.333 4.66699 -32.166 14 -38.499s27.666 -10.166 54.999 -11.499v-26h-228v26c27.333 1.33301 45.666 5.16602 54.999 11.499s14 19.166 14 38.499v406h-74v14l74 30v24c0 64 19.833 115.667 59.5 155s89.5 59 149.5 59
c55.333 0 101.666 -13.333 138.999 -40c35.333 39.333 84 59 146 59c42.667 0 80.334 -10.667 113.001 -32l79 32h12v-342c43.333 59.333 99.333 89 168 89c62 0 110.333 -21.667 145 -65s52 -101.666 52 -174.999c0 -90 -24 -162.5 -72 -217.5s-107.667 -82.5 -179 -82.5
c-82.667 0 -150.667 24 -204 72zM902.004 16.999c48 0 86.833 22.167 116.5 66.5s44.5 99.5 44.5 165.5c0 40 -4.83301 76.167 -14.5 108.5s-26.667 59.5 -51 81.5s-54.5 33 -90.5 33c-48 0 -87.667 -18 -119 -54v-275c0 -84 38 -126 114 -126zM394.004 592.999
c0 30.667 4.33301 57 13 79c-28 44.667 -65 67 -111 67c-77.333 0 -116 -52 -116 -156v-63h214v73z" />
    <glyph glyph-name="f_h" unicode="fh" horiz-adv-x="882" 
d="M394 76l0.00488281 594c-24 58.667 -62.667 88 -116 88c-65.333 0 -98 -46.667 -98 -140v-98h129v-38h-129v-406c0 -19.333 4.66699 -32.166 14 -38.499s27.666 -10.166 54.999 -11.499v-26h-228v26c27.333 1.33301 45.666 5.16602 54.999 11.499s14 19.166 14 38.499
v406h-74v14l74 30v67c0 59.333 17.5 105.833 52.5 139.5s80.833 50.5 137.5 50.5c42.667 0 80.334 -10.667 113.001 -32l79 32h12v-348c57.333 63.333 118 95 182 95c90 0 135 -54.667 135 -164v-290c0 -19.333 4.66699 -32.166 14 -38.499s27.666 -10.166 54.999 -11.499
v-26h-228v26c27.333 1.33301 45.666 5.16602 54.999 11.499s14 19.166 14 38.499v291c0 70 -29.667 105 -89 105c-45.333 0 -91.333 -20.333 -138 -61v-335c0 -19.333 4.66699 -32.166 14 -38.499s27.666 -10.166 54.999 -11.499v-26h-228v26
c27.333 1.33301 45.666 5.16602 54.999 11.499s14 19.166 14 38.499z" />
    <glyph glyph-name="f_f_h" unicode="ffh" horiz-adv-x="1186" 
d="M698 76l0.0078125 594c-24 58.667 -62.667 88 -116 88c-65.333 0 -98 -46.667 -98 -140v-98h129v-38h-129v-406c0 -19.333 4.66699 -32.166 14 -38.499s27.666 -10.166 54.999 -11.499v-26h-228v26c27.333 1.33301 45.666 5.16602 54.999 11.499s14 19.166 14 38.499v406
h-214v-406c0 -19.333 4.66699 -32.166 14 -38.499s27.666 -10.166 54.999 -11.499v-26h-228v26c27.333 1.33301 45.666 5.16602 54.999 11.499s14 19.166 14 38.499v406h-74v14l74 30v24c0 64 19.833 115.667 59.5 155s89.5 59 149.5 59
c55.333 0 101.666 -13.333 138.999 -40c35.333 39.333 84 59 146 59c42.667 0 80.334 -10.667 113.001 -32l79 32h12v-348c57.333 63.333 118 95 182 95c90 0 135 -54.667 135 -164v-290c0 -19.333 4.66699 -32.166 14 -38.499s27.666 -10.166 54.999 -11.499v-26h-228v26
c27.333 1.33301 45.666 5.16602 54.999 11.499s14 19.166 14 38.499v291c0 70 -29.667 105 -89 105c-45.333 0 -91.333 -20.333 -138 -61v-335c0 -19.333 4.66699 -32.166 14 -38.499s27.666 -10.166 54.999 -11.499v-26h-228v26
c27.333 1.33301 45.666 5.16602 54.999 11.499s14 19.166 14 38.499zM394.008 593c0 30.667 4.33301 57 13 79c-28 44.667 -65 67 -111 67c-77.333 0 -116 -52 -116 -156v-63h214v73z" />
    <glyph glyph-name="f_idieresis" unicode="f&#xef;" horiz-adv-x="568" 
d="M484 530l0.00292969 -454c0 -19.333 4.66699 -32.166 14 -38.499s27.666 -10.166 54.999 -11.499v-26h-228v26c27.333 1.33301 45.666 5.16602 54.999 11.499s14 19.166 14 38.499v406h-214v-406c0 -19.333 4.66699 -32.166 14 -38.499s27.666 -10.166 54.999 -11.499
v-26h-228v26c27.333 1.33301 45.666 5.16602 54.999 11.499s14 19.166 14 38.499v406h-74v14l74 30v35c0 70.667 17.833 125.334 53.5 164.001s82.834 58 141.501 58c40.667 0 73 -9.5 97 -28.5s36 -43.5 36 -73.5c0 -27.333 -11.333 -47.333 -34 -60h-55
c4.66699 15.333 7 30.666 7 45.999c0 60 -22.667 90 -68 90c-58.667 0 -88 -51 -88 -153v-84h249l39 10h16zM461.003 670c0 17.333 6 32 18 44s26.333 18 43 18c17.333 0 32 -6 44 -18s18 -26.667 18 -44s-6 -32 -18 -44s-26.667 -18 -44 -18c-16.667 0 -31 6 -43 18
s-18 26.667 -18 44z" />
    <glyph glyph-name="f_f_idieresis" unicode="ff&#xef;" horiz-adv-x="872" 
d="M299 764c57.333 0 105.673 -14.666 145.006 -43.999c34.667 42 83 63 145 63c40.667 0 73 -9.5 97 -28.5s36 -43.5 36 -73.5c0 -27.333 -11.333 -47.333 -34 -60h-55c4.66699 15.333 7 30.666 7 45.999c0 60 -22.667 90 -68 90c-58.667 0 -88 -51 -88 -153v-84h249l39 10
h16v-454c0 -19.333 4.66699 -32.166 14 -38.499s27.666 -10.166 54.999 -11.499v-26h-228v26c27.333 1.33301 45.666 5.16602 54.999 11.499s14 19.166 14 38.499v406h-214v-406c0 -19.333 4.66699 -32.166 14 -38.499s27.666 -10.166 54.999 -11.499v-26h-228v26
c27.333 1.33301 45.666 5.16602 54.999 11.499s14 19.166 14 38.499v406h-214v-406c0 -19.333 4.66699 -32.166 14 -38.499s27.666 -10.166 54.999 -11.499v-26h-228v26c27.333 1.33301 45.666 5.16602 54.999 11.499s14 19.166 14 38.499v406h-74v14l74 30v24
c0 64 19.833 115.667 59.5 155s89.5 59 149.5 59zM394.007 520.001v41c0 39.333 5.66699 74 17 104c-28.667 49.333 -67 74 -115 74c-77.333 0 -116 -52 -116 -156v-63h214zM765.007 670.001c0 17.333 6 32 18 44s26.333 18 43 18c17.333 0 32 -6 44 -18s18 -26.667 18 -44
s-6 -32 -18 -44s-26.667 -18 -44 -18c-16.667 0 -31 6 -43 18s-18 26.667 -18 44z" />
    <glyph glyph-name="f_j" unicode="fj" horiz-adv-x="558" 
d="M394 482l-214 0.00195312v-406c0 -19.333 4.66699 -32.166 14 -38.499s27.666 -10.166 54.999 -11.499v-26h-228v26c27.333 1.33301 45.666 5.16602 54.999 11.499s14 19.166 14 38.499v406h-74v14l74 30v35c0 71.333 19.167 126.166 57.5 164.499s88.5 57.5 150.5 57.5
c40 0 72 -6.66699 96 -20s36 -32.666 36 -57.999c0 -21.333 -10.667 -38 -32 -50h-57c2 10 3 20.667 3 32c0 46.667 -22.667 70 -68 70c-31.333 0 -55.166 -13.333 -71.499 -40s-24.5 -64.334 -24.5 -113.001v-84h249l39 10h16v-446c0 -44 -1.66699 -76.5 -5 -97.5
s-10.333 -42.5 -21 -64.5c-19.333 -38.667 -60.333 -87 -123 -145l-15 11l41 72c14.667 25.333 23.834 51.666 27.501 78.999s5.5 65 5.5 113v430z" />
    <glyph glyph-name="f_f_j" unicode="ffj" horiz-adv-x="862" 
d="M698 482l-213.999 0.000976562v-406c0 -19.333 4.66699 -32.166 14 -38.499s27.666 -10.166 54.999 -11.499v-26h-228v26c27.333 1.33301 45.666 5.16602 54.999 11.499s14 19.166 14 38.499v406h-214v-406c0 -19.333 4.66699 -32.166 14 -38.499
s27.666 -10.166 54.999 -11.499v-26h-228v26c27.333 1.33301 45.666 5.16602 54.999 11.499s14 19.166 14 38.499v406h-74v14l74 30v24c0 64 19.833 115.667 59.5 155s89.5 59 149.5 59c58.667 0 107.334 -15 146.001 -45c38.667 42.667 91 64 157 64
c40 0 72 -6.66699 96 -20s36 -32.666 36 -57.999c0 -21.333 -10.667 -38 -32 -50h-57c2 10 3 20.667 3 32c0 46.667 -22.667 70 -68 70c-31.333 0 -55.166 -13.333 -71.499 -40s-24.5 -64.334 -24.5 -113.001v-84h249l39 10h16v-446c0 -44 -1.66699 -76.5 -5 -97.5
s-10.333 -42.5 -21 -64.5c-19.333 -38.667 -60.333 -87 -123 -145l-15 11l41 72c14.667 25.333 23.834 51.666 27.501 78.999s5.5 65 5.5 113v430zM394.001 561.001c0 39.333 6.00098 73.667 18.001 103c-28.667 50 -67.334 75 -116.001 75c-77.333 0 -116 -52 -116 -156
v-63h214v41z" />
    <glyph glyph-name="f_k" unicode="fk" horiz-adv-x="837" 
d="M496 285l160.999 146.999c16.667 15.333 25 27.333 25 36c0 12 -17.667 20 -53 24c-6 0.666992 -10.667 1.33398 -14 2.00098v26h198v-26c-33.333 -8 -59.666 -20.667 -78.999 -38l-152 -138l255 -299v-19h-101zM393.999 75.999l0.00292969 594
c-24 58.667 -62.667 88 -116 88c-65.333 0 -98 -46.667 -98 -140v-98h129v-38h-129v-406c0 -19.333 4.66699 -32.166 14 -38.499s27.666 -10.166 54.999 -11.499v-26h-228v26c27.333 1.33301 45.666 5.16602 54.999 11.499s14 19.166 14 38.499v406h-74v14l74 30v67
c0 59.333 17.5 105.833 52.5 139.5s80.833 50.5 137.5 50.5c42.667 0 80.334 -10.667 113.001 -32l79 32h12v-707c0 -19.333 4.66699 -32.166 14 -38.499s27.666 -10.166 54.999 -11.499v-26h-228v26c27.333 1.33301 45.666 5.16602 54.999 11.499s14 19.166 14 38.499z" />
    <glyph glyph-name="f_f_k" unicode="ffk" horiz-adv-x="1141" 
d="M698 76l0.00585938 594c-24 58.667 -62.667 88 -116 88c-65.333 0 -98 -46.667 -98 -140v-98h129v-38h-129v-406c0 -19.333 4.66699 -32.166 14 -38.499s27.666 -10.166 54.999 -11.499v-26h-228v26c27.333 1.33301 45.666 5.16602 54.999 11.499s14 19.166 14 38.499
v406h-214v-406c0 -19.333 4.66699 -32.166 14 -38.499s27.666 -10.166 54.999 -11.499v-26h-228v26c27.333 1.33301 45.666 5.16602 54.999 11.499s14 19.166 14 38.499v406h-74v14l74 30v24c0 64 19.833 115.667 59.5 155s89.5 59 149.5 59
c55.333 0 101.666 -13.333 138.999 -40c35.333 39.333 84 59 146 59c42.667 0 80.334 -10.667 113.001 -32l79 32h12v-707c0 -19.333 4.66699 -32.166 14 -38.499s27.666 -10.166 54.999 -11.499v-26h-228v26c27.333 1.33301 45.666 5.16602 54.999 11.499
s14 19.166 14 38.499zM800.006 285l160.999 146.999c16.667 15.333 25 27.333 25 36c0 12 -17.667 20 -53 24c-6 0.666992 -10.667 1.33398 -14 2.00098v26h198v-26c-33.333 -8 -59.666 -20.667 -78.999 -38l-152 -138l255 -299v-19h-101zM394.005 592.999
c0 30.667 4.33301 57 13 79c-28 44.667 -65 67 -111 67c-77.333 0 -116 -52 -116 -156v-63h214v73z" />
    <glyph glyph-name=".notdef" horiz-adv-x="960" 
d="M90 0v780h780v-780h-780zM480 345l-279 -279h558zM201 714l279 -279l279 279h-558zM435 390l-275 275v-550zM525 390l275 -275v550z" />
    <glyph glyph-name="space" unicode=" " horiz-adv-x="210" 
 />
    <glyph glyph-name="exclam" unicode="!" horiz-adv-x="238" 
d="M50 59c0 19.333 6.66699 35.666 20 48.999s29.666 20 48.999 20s35.666 -6.66699 48.999 -20s20 -29.666 20 -48.999s-6.66699 -35.666 -20 -48.999s-29.666 -20 -48.999 -20s-35.666 6.66699 -48.999 20s-20 29.666 -20 48.999zM127 203h-17l-52 499h121z" />
    <glyph glyph-name="quotedbl" unicode="&#x22;" horiz-adv-x="259" 
d="M72 492h-8.00195l-26 124c-10 45.333 -15 76.333 -15 93c0 15.333 3.83301 28 11.5 38s18.834 15 33.501 15s25.834 -5 33.501 -15s11.5 -22.667 11.5 -38c0 -16.667 -5 -47.667 -15 -93zM194.998 492h-8.00195l-26 124c-10 45.333 -15 76.333 -15 93
c0 15.333 3.83301 28 11.5 38s18.834 15 33.501 15s25.834 -5 33.501 -15s11.5 -22.667 11.5 -38c0 -16.667 -5 -47.667 -15 -93z" />
    <glyph glyph-name="numbersign" unicode="#" horiz-adv-x="545" 
d="M454 234h-109l-77 -243l-32 10l73 233h-148l-77 -243l-32 10l73 233h-105v29h114l64 201h-107v29h116l70 220l32 -10l-67 -210h149l70 220l32 -10l-67 -210h99v-29h-108l-63 -201h100v-29zM233 464l-63 -201h148l64 201h-149z" />
    <glyph glyph-name="dollar" unicode="$" horiz-adv-x="513" 
d="M243 -10c-10.667 0 -24.665 0.670898 -41.998 2.00391l-18 -105h-28l18 109c-60 10 -106.333 29.667 -139 59l-6 169h29c18.667 -102.667 59.667 -166.334 123 -191.001l48 286c-2.66699 0.666992 -6.66699 2.33398 -12 5.00098
c-60.667 25.333 -105.834 52.166 -135.501 80.499s-44.5 68.833 -44.5 121.5c0 53.333 19 97.666 57 132.999s89 53 153 53c16 0 32 -1 48 -3l17 97h28l-17 -101c47.333 -9.33301 88.666 -26.333 123.999 -51v-147h-29c-11.333 83.333 -45.333 136.666 -102 159.999
l-44 -262c72 -30 124 -60.667 156 -92s48 -73 48 -125c0 -60.667 -22.333 -108.834 -67 -144.501s-99.667 -53.5 -165 -53.5zM390.002 153.004c0 36.667 -9.83203 65.668 -29.499 87.001s-55.167 43.666 -106.5 66.999l-48 -282c12 -2 24.333 -3 37 -3
c45.333 0 81.166 12.167 107.499 36.5s39.5 55.833 39.5 94.5zM120.003 561.005c0 -35.333 8.83105 -63 26.498 -83s50.5 -40.667 98.5 -62l44 259c-15.333 3.33301 -29.666 5 -42.999 5c-39.333 0 -70.166 -11.167 -92.499 -33.5s-33.5 -50.833 -33.5 -85.5z" />
    <glyph glyph-name="percent" unicode="%" horiz-adv-x="742" 
d="M30 546c0 50 16 90.167 48 120.5s70.333 45.5 115 45.5s82.834 -15.167 114.501 -45.5s47.5 -70.5 47.5 -120.5s-15.833 -90.167 -47.5 -120.5s-69.834 -45.5 -114.501 -45.5s-83 15.167 -115 45.5s-48 70.5 -48 120.5zM102 546c0 -40.667 7.66699 -74.332 23 -100.999
s38 -40 68 -40s52.5 13.167 67.5 39.5s22.5 60.166 22.5 101.499s-7.5 75 -22.5 101s-37.5 39 -67.5 39s-52.667 -13.167 -68 -39.5s-23 -59.833 -23 -100.5zM133 -9.99805l438 722h38l-438 -722h-38zM712 156.002c0 -50 -16 -90.167 -48 -120.5s-70.333 -45.5 -115 -45.5
s-82.834 15.167 -114.501 45.5s-47.5 70.5 -47.5 120.5s15.833 90.167 47.5 120.5s69.834 45.5 114.501 45.5s83 -15.167 115 -45.5s48 -70.5 48 -120.5zM640 156.002c0 40.667 -7.66699 74.332 -23 100.999s-38 40 -68 40s-52.5 -13.167 -67.5 -39.5
s-22.5 -60.166 -22.5 -101.499s7.5 -75 22.5 -101s37.5 -39 67.5 -39s52.667 13.167 68 39.5s23 59.833 23 100.5z" />
    <glyph glyph-name="ampersand" unicode="&#x26;" horiz-adv-x="664" 
d="M10 179c0 89.333 51.335 154.332 154.002 194.999l-6 7c-46 48.667 -69 100.667 -69 156c0 54 17.5 96.667 52.5 128s80.167 47 135.5 47c53.333 0 95.5 -14.167 126.5 -42.5s46.5 -63.5 46.5 -105.5c0 -76 -59.333 -135.333 -178 -178l209 -225
c24.667 42 37 88.333 37 139c0 26 -7.5 43.5 -22.5 52.5s-40.5 14.167 -76.5 15.5v26h238v-26c-34 -1.33301 -58 -6.66602 -72 -15.999s-23 -28 -27 -56c-9.33301 -59.333 -28 -112 -56 -158l50 -53c31.333 -34.667 68.666 -54 111.999 -58v-27h-133
c-22.667 10.667 -50.334 34 -83.001 70c-56.667 -53.333 -127.667 -80 -213 -80c-38 0 -73.333 6.16699 -106 18.5s-60.667 33.333 -84 63s-35 65.5 -35 107.5zM275.002 37.999c56.667 0 106.999 18.332 150.999 54.999l-246 264c-52.667 -27.333 -79 -76.666 -79 -147.999
c0 -54 15.833 -96 47.5 -126s73.834 -45 126.501 -45zM165.001 566.998c0 -12 1.49805 -23.834 4.49805 -35.501s5.83301 -21.167 8.5 -28.5s8 -16.5 16 -27.5s13.333 -18.167 16 -21.5s9.33398 -10.666 20.001 -21.999s16.334 -17.333 17.001 -18l9 -11
c43.333 16.667 73.333 38.167 90 64.5s25 58.833 25 97.5c0 34 -8.5 62.167 -25.5 84.5s-42.5 33.5 -76.5 33.5c-32 0 -57.333 -10.333 -76 -31s-28 -49 -28 -85z" />
    <glyph glyph-name="quotesingle" unicode="'" horiz-adv-x="136" 
d="M72 492h-8.00195l-26 124c-10 45.333 -15 76.333 -15 93c0 15.333 3.83301 28 11.5 38s18.834 15 33.501 15s25.834 -5 33.501 -15s11.5 -22.667 11.5 -38c0 -16.667 -5 -47.667 -15 -93z" />
    <glyph glyph-name="parenleft" unicode="(" horiz-adv-x="338" 
d="M60 314c0 168 69.667 320 209 456h39c-110 -118 -165 -270 -165 -456s55 -338 165 -456h-39c-139.333 136 -209 288 -209 456z" />
    <glyph glyph-name="parenright" unicode=")" horiz-adv-x="338" 
d="M278 314c0 -168 -69.667 -320 -209 -456h-39c110 118 165 270 165 456s-55 338 -165 456h39c139.333 -136 209 -288 209 -456z" />
    <glyph glyph-name="asterisk" unicode="*" horiz-adv-x="402" 
d="M338 637l-127 -49l127 -49c23.333 -9.33301 30 -23.333 20 -42c-11.333 -18 -26.666 -19 -45.999 -3l-107 86l22 -135c2 -12 0.5 -21.333 -4.5 -28s-12.167 -10 -21.5 -10s-16.5 3.33301 -21.5 10s-6.5 16 -4.5 28l21 135l-106 -86c-19.333 -16 -34.666 -15 -45.999 3
c-10 18.667 -3.33301 32.667 20 42l127 49l-127 49c-23.333 9.33301 -30 23.333 -20 42c11.333 18 26.666 19 45.999 3l106 -86l-21 135c-2 12 -0.5 21.333 4.5 28s12.167 10 21.5 10s16.5 -3.33301 21.5 -10s6.5 -16 4.5 -28l-22 -135l107 86
c19.333 16 34.666 15 45.999 -3c10 -18.667 3.33301 -32.667 -20 -42z" />
    <glyph glyph-name="plus" unicode="+" horiz-adv-x="564" 
d="M256 590h51v-193h194v-52h-194v-193h-51v193h-193v52h193v193z" />
    <glyph glyph-name="comma" unicode="," horiz-adv-x="198" 
d="M120 0l-36.002 -0.000976562c-13.333 2.66699 -24.333 8.83398 -33 18.501s-13 22.167 -13 37.5c0 18 6 32.667 18 44s27 17 45 17c21.333 0 37.833 -7.66699 49.5 -23s17.5 -35.333 17.5 -60c0 -41.333 -12.333 -75.833 -37 -103.5s-59.667 -43.167 -105 -46.5v23
c26.667 4.66699 48.334 15 65.001 31s26.334 36.667 29.001 62z" />
    <glyph glyph-name="hyphen" unicode="-" horiz-adv-x="320" 
d="M290 278h-260v45h260v-45z" />
    <glyph glyph-name="period" unicode="." horiz-adv-x="198" 
d="M30 59c0 19.333 6.66699 35.666 20 48.999s29.666 20 48.999 20s35.666 -6.66699 48.999 -20s20 -29.666 20 -48.999s-6.66699 -35.666 -20 -48.999s-29.666 -20 -48.999 -20s-35.666 6.66699 -48.999 20s-20 29.666 -20 48.999z" />
    <glyph glyph-name="slash" unicode="/" horiz-adv-x="377" 
d="M349 770l-300 -911h-39l300 911h39z" />
    <glyph glyph-name="zero" unicode="0" horiz-adv-x="600" 
d="M300 19c30.667 0 57 9.66699 79 29s38.667 45.666 50 78.999s19.5 68.333 24.5 105s7.5 76.334 7.5 119.001s-2.5 82.334 -7.5 119.001s-13.167 71.667 -24.5 105s-28 59.666 -50 78.999s-48.333 29 -79 29s-57 -9.66699 -79 -29s-38.667 -45.666 -50 -78.999
s-19.5 -68.333 -24.5 -105s-7.5 -76.334 -7.5 -119.001s2.5 -82.334 7.5 -119.001s13.167 -71.667 24.5 -105s28 -59.666 50 -78.999s48.333 -29 79 -29zM300 -10c-82.667 0 -147.834 34.167 -195.501 102.5s-71.5 154.5 -71.5 258.5s23.833 190.167 71.5 258.5
s112.834 102.5 195.501 102.5s147.834 -34.167 195.501 -102.5s71.5 -154.5 71.5 -258.5s-23.833 -190.167 -71.5 -258.5s-112.834 -102.5 -195.501 -102.5z" />
    <glyph glyph-name="one" unicode="1" horiz-adv-x="367" 
d="M353 0l-328 -0.000976562v27c53.333 3.33301 86.333 9.33301 99 18s19 28.334 19 59.001v479h-119v24l40 8c43.333 8.66699 76 19.334 98 32.001s42.333 34 61 64h18v-607c0 -30.667 6.16699 -50.334 18.5 -59.001s43.5 -14.667 93.5 -18v-27z" />
    <glyph glyph-name="two" unicode="2" horiz-adv-x="509" 
d="M107 85h186.997c44.667 0 77.334 6 98.001 18s42.667 40.333 66 85h25l-41 -188h-438v22l175 179c66.667 68.667 112 123.334 136 164.001s36 84.667 36 132c0 43.333 -11.833 77.333 -35.5 102s-56.834 37 -99.501 37c-67.333 0 -124.666 -31.667 -171.999 -95l-18 12
c56.667 106 133.667 159 231 159c59.333 0 106 -15.833 140 -47.5s51 -74.834 51 -129.501c0 -30 -7.16699 -61 -21.5 -93s-35.166 -64.167 -62.499 -96.5s-53.666 -61.333 -78.999 -87l-94 -91c-37.333 -35 -65.333 -62.5 -84 -82.5z" />
    <glyph glyph-name="three" unicode="3" horiz-adv-x="494" 
d="M267 401c59.333 -6 107.834 -27.3311 145.501 -63.998s56.5 -79.667 56.5 -129c0 -67.333 -22.333 -120.5 -67 -159.5s-101 -58.5 -169 -58.5c-70 0 -125.5 14 -166.5 42s-61.5 61 -61.5 99c0 34 14.667 57.667 44 71h58c-4 -14 -6 -31 -6 -51c0 -40 12 -72 36 -96
s56 -36 96 -36c44.667 0 79.667 15 105 45s38 67.667 38 113c0 54 -18.667 95.5 -56 124.5s-86.333 43.5 -147 43.5h-35l-5 22c31.333 9.33301 57.5 18.166 78.5 26.499s41.667 19 62 32s35.5 28.667 45.5 47s15 39.166 15 62.499c0 33.333 -9.83301 60.166 -29.5 80.499
s-47.834 30.5 -84.501 30.5c-59.333 0 -108.666 -26.667 -147.999 -80l-16 13c41.333 88.667 108.666 133 201.999 133c50.667 0 91.167 -13.667 121.5 -41s45.5 -64 45.5 -110c0 -43.333 -15.833 -78.166 -47.5 -104.499s-68.5 -44.833 -110.5 -55.5z" />
    <glyph glyph-name="four" unicode="4" horiz-adv-x="570" 
d="M63 232h272v353zM335 93v105h-325v20l371 484h48v-470h121v-34h-121v-105c0 -27.333 5 -44.833 15 -52.5s34.333 -13.834 73 -18.501v-22h-270v22c38.667 4.66699 63 10.834 73 18.501s15 25.167 15 52.5z" />
    <glyph glyph-name="five" unicode="5" horiz-adv-x="482" 
d="M420 610l-274 -0.00195312l-26 -156c103.333 -4 185.333 -25.5 246 -64.5s91 -98.167 91 -177.5c0 -65.333 -21.167 -118.666 -63.5 -159.999s-97.5 -62 -165.5 -62s-121.333 13.833 -160 41.5s-58 60.834 -58 99.501c0 32 14 55.667 42 71h60
c-4.66699 -20 -7 -38.667 -7 -56c0 -84.667 41 -127 123 -127c45.333 0 82 14.167 110 42.5s42 65.833 42 112.5c0 65.333 -27.167 115 -81.5 149s-130.5 51.333 -228.5 52l57 327h227c19.333 0 32.833 2.16699 40.5 6.5s17.167 16.833 28.5 37.5h22z" />
    <glyph glyph-name="six" unicode="6" horiz-adv-x="553" 
d="M435 690c-89.333 -24.667 -158.998 -65.5 -208.998 -122.5s-80 -126.5 -90 -208.5c19.333 21.333 45.166 40.166 77.499 56.499s68.833 24.5 109.5 24.5c58.667 0 106.667 -18 144 -54s56 -86 56 -150c0 -73.333 -22 -132.666 -66 -177.999s-99.333 -68 -166 -68
c-80.667 0 -143.834 27.167 -189.501 81.5s-68.5 123.5 -68.5 207.5c0 108 34.333 201.5 103 280.5s161.667 129.167 279 150.5zM273.002 387c-54 0 -100.668 -17 -140.001 -51c-0.666992 -9.33301 -1 -24 -1 -44c0 -84.667 14.333 -151.167 43 -199.5
s67.334 -72.5 116.001 -72.5c44.667 0 79.667 16.167 105 48.5s38 75.5 38 129.5c0 58 -13.833 104 -41.5 138s-67.5 51 -119.5 51z" />
    <glyph glyph-name="seven" unicode="7" horiz-adv-x="478" 
d="M415 613h-274c-23.333 0 -41.333 -6 -54 -18s-27 -34.667 -43 -68h-29l43 175h415v-28l-285 -674h-95z" />
    <glyph glyph-name="eight" unicode="8" horiz-adv-x="532" 
d="M474 546c0 -39.333 -15 -72.668 -45 -100.001s-64.667 -46.666 -104 -57.999l47 -22c86.667 -41.333 130 -101.333 130 -180c0 -56.667 -20.333 -103.5 -61 -140.5s-99 -55.5 -175 -55.5c-70 0 -126.833 17 -170.5 51s-65.5 77.667 -65.5 131
c0 44 15.167 80.833 45.5 110.5s69.5 52.5 117.5 68.5l-24 12c-74.667 37.333 -112 93.666 -112 168.999c0 50.667 18.5 93.334 55.5 128.001s88.167 52 153.5 52c63.333 0 113.833 -15.167 151.5 -45.5s56.5 -70.5 56.5 -120.5zM315 292.998l-101.999 48.998
c-64.667 -37.333 -97 -92.666 -97 -165.999c0 -45.333 13.667 -82.666 41 -111.999s63.666 -44 108.999 -44c48 0 85.5 12 112.5 36s40.5 58.667 40.5 104c0 56.667 -34.667 101 -104 133zM235.001 435.996l74 -38c30 18.667 52 39.667 66 63s21 51.333 21 84
c0 40.667 -11.667 73.667 -35 99s-55.333 38 -96 38c-38.667 0 -69.5 -11.167 -92.5 -33.5s-34.5 -51.5 -34.5 -87.5c0 -32.667 7.5 -57.167 22.5 -73.5s39.833 -33.5 74.5 -51.5z" />
    <glyph glyph-name="nine" unicode="9" horiz-adv-x="553" 
d="M118 12c89.333 24 158.831 64.333 208.498 121s79.834 126.334 90.501 209.001c-50 -53.333 -112.333 -80 -187 -80c-58.667 0 -106.667 18 -144 54s-56 86 -56 150c0 73.333 22 132.666 66 177.999s99.333 68 166 68c80.667 0 143.834 -27.167 189.501 -81.5
s68.5 -123.5 68.5 -207.5c0 -108 -34.333 -201.5 -103 -280.5s-161.667 -129.167 -279 -150.5zM279.998 315c54 0 100.334 16.667 139.001 50c1.33301 20 2 35 2 45c0 84.667 -14.333 151.167 -43 199.5s-67.334 72.5 -116.001 72.5c-44.667 0 -79.667 -16.167 -105 -48.5
s-38 -75.5 -38 -129.5c0 -58 13.833 -104 41.5 -138s67.5 -51 119.5 -51z" />
    <glyph glyph-name="colon" unicode=":" horiz-adv-x="198" 
d="M30 59c0 19.333 6.66699 35.666 20 48.999s29.666 20 48.999 20s35.666 -6.66699 48.999 -20s20 -29.666 20 -48.999s-6.66699 -35.666 -20 -48.999s-29.666 -20 -48.999 -20s-35.666 6.66699 -48.999 20s-20 29.666 -20 48.999zM30 401
c0 19.333 6.66699 35.666 20 48.999s29.666 20 48.999 20s35.666 -6.66699 48.999 -20s20 -29.666 20 -48.999s-6.66699 -35.666 -20 -48.999s-29.666 -20 -48.999 -20s-35.666 6.66699 -48.999 20s-20 29.666 -20 48.999z" />
    <glyph glyph-name="semicolon" unicode=";" horiz-adv-x="198" 
d="M120 0l-36.002 -0.000976562c-13.333 2.66699 -24.333 8.83398 -33 18.501s-13 22.167 -13 37.5c0 18 6 32.667 18 44s27 17 45 17c21.333 0 37.833 -7.66699 49.5 -23s17.5 -35.333 17.5 -60c0 -41.333 -12.333 -75.833 -37 -103.5s-59.667 -43.167 -105 -46.5v23
c26.667 4.66699 48.334 15 65.001 31s26.334 36.667 29.001 62zM29.998 400.999c0 19.333 6.66699 35.666 20 48.999s29.666 20 48.999 20s35.666 -6.66699 48.999 -20s20 -29.666 20 -48.999s-6.66699 -35.666 -20 -48.999s-29.666 -20 -48.999 -20
s-35.666 6.66699 -48.999 20s-20 29.666 -20 48.999z" />
    <glyph glyph-name="less" unicode="&#x3c;" horiz-adv-x="413" 
d="M40 366v8l310 189v-61l-222 -132l222 -132v-61z" />
    <glyph glyph-name="equal" unicode="=" horiz-adv-x="574" 
d="M68 276v51h438v-51h-438zM68 414v52h438v-52h-438z" />
    <glyph glyph-name="greater" unicode="&#x3e;" horiz-adv-x="413" 
d="M373 374v-8l-310 -189v61l222 132l-222 132v61z" />
    <glyph glyph-name="question" unicode="?" horiz-adv-x="424" 
d="M317 576c0 35.333 -9 63 -27 83s-43.667 30 -77 30c-32 0 -56.5 -10.167 -73.5 -30.5s-25.5 -46.166 -25.5 -77.499v-44h-73c-14 12.667 -21 28.667 -21 48c0 36.667 18.5 67 55.5 91s82.167 36 135.5 36c58.667 0 105.5 -14.333 140.5 -43s52.5 -70 52.5 -124
c0 -37.333 -11.667 -69.833 -35 -97.5s-58.333 -58.5 -105 -92.5c-28 -20 -47.833 -39.5 -59.5 -58.5s-17.5 -42.833 -17.5 -71.5v-32h-10c-21.333 38 -32 70.667 -32 98c0 28 6.5 52.667 19.5 74s34.167 43.666 63.5 66.999c21.333 16.667 37 29.834 47 39.501
s19.5 23.667 28.5 42s13.5 39.166 13.5 62.499zM121 59c0 19.333 6.83301 35.666 20.5 48.999s29.834 20 48.501 20s34.834 -6.66699 48.501 -20s20.5 -29.666 20.5 -48.999s-6.83301 -35.666 -20.5 -48.999s-29.834 -20 -48.501 -20s-34.834 6.66699 -48.501 20
s-20.5 29.666 -20.5 48.999z" />
    <glyph glyph-name="at" unicode="@" horiz-adv-x="847" 
d="M587 75c-46.667 0 -77.4971 17.6689 -92.4971 53.002s-16.167 80.666 -3.5 135.999c-56 -125.333 -116 -188 -180 -188c-28.667 0 -51.334 11 -68.001 33s-25 53 -25 93c0 48 11.833 95.333 35.5 142s54.834 84.667 93.501 114s78 44 118 44c36.667 0 67 -11.333 91 -34
l64 37h14l-26 -86l-50 -205c-18 -74 -6.66699 -111 34 -111c27.333 0 51.666 8.16699 72.999 24.5s38.166 38.166 50.499 65.499s21.666 56.666 27.999 87.999s9.5 64 9.5 98c0 86 -23 154.333 -69 205s-113.333 76 -202 76c-75.333 0 -142.833 -21.5 -202.5 -64.5
s-104.667 -97.833 -135 -164.5s-45.5 -137.667 -45.5 -213c0 -91.333 27.5 -164.666 82.5 -219.999s128.5 -83 220.5 -83c56 0 103.833 5.5 143.5 16.5s82.834 29.833 129.501 56.5l9 -14c-36 -28.667 -79.667 -52 -131 -70s-104.333 -27 -159 -27
c-113.333 0 -202.333 30.167 -267 90.5s-97 143.833 -97 250.5c0 80 18.667 155.667 56 227s91.166 129.666 161.499 174.999s148.5 68 234.5 68c104.667 0 186.667 -27.667 246 -83s89 -130.666 89 -225.999c0 -77.333 -21 -147.333 -63 -210s-97.667 -94 -167 -94z
M344.003 125.002c30 0 63.499 30.334 100.499 91.001s67.167 135 90.5 223c-12.667 24.667 -34.667 37 -66 37c-46.667 0 -86.667 -29.833 -120 -89.5s-50 -121.834 -50 -186.501c0 -22 3.83301 -40 11.5 -54s18.834 -21 33.501 -21z" />
    <glyph glyph-name="A" unicode="A" horiz-adv-x="696" 
d="M515 110l-56 135.998h-285l-53 -135c-6.66699 -16.667 -10 -30 -10 -40c0 -15.333 6.66699 -26.166 20 -32.499s37 -10.166 71 -11.499v-27h-197v27c32 4.66699 51.667 17 59 37l230 581l-28 66h100l266 -647c8 -20 27.667 -32.333 59 -37v-27h-256v27
c34 1.33301 57.5 5 70.5 11s19.5 16.667 19.5 32c0 10 -3.33301 23.333 -10 40zM314 602.998l-128 -325h260z" />
    <glyph glyph-name="B" unicode="B" horiz-adv-x="622" 
d="M306 346h-95.999v-246c0 -26 7.33301 -43.667 22 -53s40 -14 76 -14h12c106.667 0 160 51.667 160 155c0 47.333 -14.333 85.5 -43 114.5s-72.334 43.5 -131.001 43.5zM284.001 669h-74v-290h74c108.667 0 163 49 163 147c0 45.333 -14 80.5 -42 105.5
s-68.333 37.5 -121 37.5zM331.001 0l-303.002 -0.00292969v27c38.667 4.66699 63 10.834 73 18.501s15 25.167 15 52.5v506c0 27.333 -5 44.833 -15 52.5s-34.333 13.834 -73 18.501v27h280c76.667 0 135.334 -14.667 176.001 -44s61 -72.333 61 -129
c0 -47.333 -18.5 -85.166 -55.5 -113.499s-81.5 -45.5 -133.5 -51.5c66.667 -2.66699 120.334 -19.667 161.001 -51s61 -73 61 -125c0 -57.333 -21.5 -103 -64.5 -137s-103.833 -51 -182.5 -51z" />
    <glyph glyph-name="C" unicode="C" horiz-adv-x="628" 
d="M362 712c84 0 156.331 -19.666 216.998 -58.999v-146h-27c-10.667 56.667 -32.167 99.5 -64.5 128.5s-74.166 43.5 -125.499 43.5c-72.667 0 -128.667 -29.833 -168 -89.5s-59 -134.834 -59 -225.501c0 -98 20.833 -179.333 62.5 -244s99.167 -97 172.5 -97
c54 0 97.167 15.833 129.5 47.5s55.833 82.167 70.5 151.5h30l-13 -178c-63.333 -36 -135.666 -54 -216.999 -54c-102.667 0 -184.5 32 -245.5 96s-91.5 147.333 -91.5 250c0 112.667 30.833 203.5 92.5 272.5s140.5 103.5 236.5 103.5z" />
    <glyph glyph-name="D" unicode="D" horiz-adv-x="707" 
d="M294 669h-83.999v-565c0 -28 6.66699 -46.833 20 -56.5s36.333 -14.5 69 -14.5h27c72.667 0 131.5 27.167 176.5 81.5s67.5 132.166 67.5 233.499c0 43.333 -5 83.5 -15 120.5s-25.333 70.833 -46 101.5s-49.334 54.834 -86.001 72.501s-79.667 26.5 -129 26.5z
M326.001 0l-297.999 -0.00195312v27c38.667 4.66699 63 10.834 73 18.501s15 25.167 15 52.5v506c0 27.333 -5 44.833 -15 52.5s-34.333 13.834 -73 18.501v27h284c60.667 0 114.667 -9 162 -27s85.333 -42.5 114 -73.5s50.167 -66 64.5 -105s21.5 -80.833 21.5 -125.5
c0 -114.667 -33.333 -205.167 -100 -271.5s-149.334 -99.5 -248.001 -99.5z" />
    <glyph glyph-name="E" unicode="E" horiz-adv-x="614" 
d="M28 0l0.000976562 27c38.667 4.66699 63 10.834 73 18.501s15 25.167 15 52.5v506c0 27.333 -5 44.833 -15 52.5s-34.333 13.834 -73 18.501v27h522l5 -167h-20c-22 52.667 -43.167 88.167 -63.5 106.5s-47.833 27.5 -82.5 27.5h-179v-290h159
c20.667 0 36.167 7.16699 46.5 21.5s18.5 37.166 24.5 68.499h27v-213h-27c-6 31.333 -14.167 54.166 -24.5 68.499s-25.833 21.5 -46.5 21.5h-159v-245c0 -26 7.33301 -43.833 22 -53.5s40 -14.5 76 -14.5h92c34 0 62.167 10.5 84.5 31.5s50.166 59.5 83.499 115.5h24
l-30 -180h-534z" />
    <glyph glyph-name="F" unicode="F" horiz-adv-x="563" 
d="M210 336v-225.002c0 -30 8.16699 -50.167 24.5 -60.5s49.5 -17.5 99.5 -21.5v-29h-306v27c38.667 4.66699 63 10.834 73 18.501s15 25.167 15 52.5v506c0 27.333 -5 44.833 -15 52.5s-34.333 13.834 -73 18.501v27h503l4 -170h-20c-17.333 52 -37 87.833 -59 107.5
s-50.667 29.5 -86 29.5h-160v-300h138c20 0 35 7.5 45 22.5s17.667 38.833 23 71.5h27v-221h-27c-5.33301 32.667 -13 56.5 -23 71.5s-25 22.5 -45 22.5h-138z" />
    <glyph glyph-name="G" unicode="G" horiz-adv-x="697" 
d="M511 65l0.000976562 162.999c0 27.333 -5 44.833 -15 52.5s-34.333 13.834 -73 18.501v27h266v-27c-38.667 -4.66699 -63 -10.834 -73 -18.501s-15 -25.167 -15 -52.5v-166c-70.667 -48 -150 -72 -238 -72c-100 0 -180 32.833 -240 98.5s-90 148.167 -90 247.5
c0 113.333 31.167 204.333 93.5 273s143.166 103 242.499 103c88 0 161 -19 219 -57v-148h-27c-22.667 115.333 -86.667 173 -192 173c-52 0 -96 -14.667 -132 -44s-62 -67.166 -78 -113.499s-24 -99.5 -24 -159.5c0 -62 8.16699 -118 24.5 -168s42.833 -91.167 79.5 -123.5
s81 -48.5 133 -48.5c62 0 108.333 14 139 42z" />
    <glyph glyph-name="H" unicode="H" horiz-adv-x="771" 
d="M210 604v-224h351v224c0 27.333 -5 44.833 -15 52.5s-34.333 13.834 -73 18.501v27h270v-27c-38.667 -4.66699 -63 -10.834 -73 -18.501s-15 -25.167 -15 -52.5v-506c0 -27.333 5 -44.833 15 -52.5s34.333 -13.834 73 -18.501v-27h-270v27
c38.667 4.66699 63 10.834 73 18.501s15 25.167 15 52.5v248h-351v-248c0 -27.333 5 -44.833 15 -52.5s34.333 -13.834 73 -18.501v-27h-270v27c38.667 4.66699 63 10.834 73 18.501s15 25.167 15 52.5v506c0 27.333 -5 44.833 -15 52.5s-34.333 13.834 -73 18.501v27h270
v-27c-38.667 -4.66699 -63 -10.834 -73 -18.501s-15 -25.167 -15 -52.5z" />
    <glyph glyph-name="I" unicode="I" horiz-adv-x="326" 
d="M210 604v-506c0 -27.333 5 -44.833 15 -52.5s34.333 -13.834 73 -18.501v-27h-270v27c38.667 4.66699 63 10.834 73 18.501s15 25.167 15 52.5v506c0 27.333 -5 44.833 -15 52.5s-34.333 13.834 -73 18.501v27h270v-27c-38.667 -4.66699 -63 -10.834 -73 -18.501
s-15 -25.167 -15 -52.5z" />
    <glyph glyph-name="J" unicode="J" horiz-adv-x="479" 
d="M279 167l0.000976562 437c0 27.333 -5 44.833 -15 52.5s-34.333 13.834 -73 18.501v27h270v-27c-38.667 -4.66699 -63 -10.834 -73 -18.501s-15 -25.167 -15 -52.5v-403c0 -70 -17.333 -122.667 -52 -158s-83.667 -53 -147 -53c-54.667 0 -98.334 11 -131.001 33
s-49 53 -49 93c0 26.667 9.33301 48 28 64h67c-3.33301 -18.667 -5 -35 -5 -49c0 -75.333 32 -113 96 -113c66 0 99 49.667 99 149z" />
    <glyph glyph-name="K" unicode="K" horiz-adv-x="661" 
d="M308 387l224 -280.002c26.667 -34 47.5 -55.5 62.5 -64.5s37.167 -14.167 66.5 -15.5v-27h-146c-26.667 20 -54.667 48.667 -84 86l-207 262l254 265c14.667 14.667 22 27 22 37c0 8.66699 -4.66699 14.334 -14 17.001s-31.333 5.33398 -66 8.00098v27h210v-27
c-20.667 -0.666992 -37 -4.66699 -49 -12s-27 -20.333 -45 -39zM210 603.998v-506c0 -27.333 5 -44.833 15 -52.5s34.333 -13.834 73 -18.501v-27h-270v27c38.667 4.66699 63 10.834 73 18.501s15 25.167 15 52.5v506c0 27.333 -5 44.833 -15 52.5
s-34.333 13.834 -73 18.501v27h270v-27c-38.667 -4.66699 -63 -10.834 -73 -18.501s-15 -25.167 -15 -52.5z" />
    <glyph glyph-name="L" unicode="L" horiz-adv-x="582" 
d="M210 604l0.000976562 -503.002c0 -26 7.33301 -43.833 22 -53.5s40 -14.5 76 -14.5h59c38.667 0 69.167 11.833 91.5 35.5s49.166 65.834 80.499 126.501h25l-32 -195h-504v27c38.667 4.66699 63 10.834 73 18.501s15 25.167 15 52.5v506c0 27.333 -5 44.833 -15 52.5
s-34.333 13.834 -73 18.501v27h270v-27c-38.667 -4.66699 -63 -10.834 -73 -18.501s-15 -25.167 -15 -52.5z" />
    <glyph glyph-name="M" unicode="M" horiz-adv-x="890" 
d="M693 115l-53 451l-205 -566h-23l-221 566l-51 -451c-1.33301 -9.33301 -2 -17.333 -2 -24c0 -23.333 6.33301 -39 19 -47s37 -13.667 73 -17v-27h-212v27c28.667 2 48.667 6.83301 60 14.5s18.333 22.834 21 45.501l61 515c0 26 -6 44.167 -18 54.5
s-34.333 16.5 -67 18.5v27h171c1.33301 -15.333 6.33301 -34.333 15 -57l193 -493l176 493c8.66699 22.667 13.667 41.667 15 57h170v-27c-32 -2 -54 -8.16699 -66 -18.5s-18 -28.5 -18 -54.5l60 -515c2.66699 -22.667 9.66699 -37.834 21 -45.501s31.333 -12.5 60 -14.5
v-27h-270v27c36 3.33301 60.333 9 73 17s19 23.667 19 47c0 0.666992 -0.166992 4.16699 -0.5 10.5s-0.5 10.833 -0.5 13.5z" />
    <glyph glyph-name="N" unicode="N" horiz-adv-x="739" 
d="M594 167v435c0 28 -5.83301 46.167 -17.5 54.5s-38.5 14.5 -80.5 18.5v27h225v-27c-38 -4.66699 -62.167 -11 -72.5 -19s-15.5 -26 -15.5 -54v-606h-25l-451 581v-477c0 -28 5.83301 -46.167 17.5 -54.5s38.5 -14.5 80.5 -18.5v-27h-225v27c38 4.66699 62.167 11 72.5 19
s15.5 26 15.5 54v514c-18.667 24 -33.5 40 -44.5 48s-26.167 12.333 -45.5 13v27h155z" />
    <glyph glyph-name="O" unicode="O" horiz-adv-x="696" 
d="M352 23c64.667 0 115.334 31.333 152.001 94s55 140.667 55 234c0 54.667 -7.33301 106 -22 154s-39 89 -73 123s-74.333 51 -121 51c-64.667 0 -115.334 -31.333 -152.001 -94s-55 -140.667 -55 -234c0 -54.667 7.33301 -106 22 -154s39 -89 73 -123s74.333 -51 121 -51
zM344 -10c-64 0 -120.169 16.5 -168.502 49.5s-84.166 75.5 -107.499 127.5s-35 108.667 -35 170c0 112 30.333 202.5 91 271.5s136.334 103.5 227.001 103.5c96 0 172 -34 228 -102s84 -149.667 84 -245c0 -112 -30.5 -202.5 -91.5 -271.5s-136.833 -103.5 -227.5 -103.5z
" />
    <glyph glyph-name="P" unicode="P" horiz-adv-x="581" 
d="M210 287l0.000976562 -176.003c0 -30 8.16699 -50.167 24.5 -60.5s49.5 -17.5 99.5 -21.5v-29h-306v27c38.667 4.66699 63 10.834 73 18.501s15 25.167 15 52.5v506c0 27.333 -5 44.833 -15 52.5s-34.333 13.834 -73 18.501v27h264c85.333 0 150.833 -19.667 196.5 -59
s68.5 -88 68.5 -146c0 -63.333 -22.333 -114.166 -67 -152.499s-109.334 -57.5 -194.001 -57.5h-86zM210.001 668.997v-349h66c118.667 0 178 57.667 178 173c0 51.333 -14.833 93.5 -44.5 126.5s-74.167 49.5 -133.5 49.5h-66z" />
    <glyph glyph-name="Q" unicode="Q" horiz-adv-x="696" 
d="M391 -102l-61 92.999c-92 3.33301 -164.5 38.5 -217.5 105.5s-79.5 147.167 -79.5 240.5c0 112 30.333 202.5 91 271.5s136.334 103.5 227.001 103.5c96 0 172 -34 228 -102s84 -149.667 84 -245c0 -96 -22.833 -176.667 -68.5 -242s-104.834 -106.666 -177.501 -123.999
l56 -62c46.667 -52 93.334 -80.333 140.001 -85v-10c-30.667 -14 -60.334 -21 -89.001 -21c-54.667 0 -99 25.667 -133 77zM352 22.999c64.667 0 115.334 31.333 152.001 94s55 140.667 55 234c0 54.667 -7.33301 106 -22 154s-39 89 -73 123s-74.333 51 -121 51
c-64.667 0 -115.334 -31.333 -152.001 -94s-55 -140.667 -55 -234c0 -54.667 7.33301 -106 22 -154s39 -89 73 -123s74.333 -51 121 -51z" />
    <glyph glyph-name="R" unicode="R" horiz-adv-x="674" 
d="M274 669h-64v-329h68c114 0 171 57 171 171c0 46 -14.833 83.833 -44.5 113.5s-73.167 44.5 -130.5 44.5zM210 307v-209.001c0 -27.333 5 -44.833 15 -52.5s34.333 -13.834 73 -18.501v-27h-270v27c38.667 4.66699 63 10.834 73 18.501s15 25.167 15 52.5v506
c0 27.333 -5 44.833 -15 52.5s-34.333 13.834 -73 18.501v27h268c82.667 0 145.667 -17.5 189 -52.5s65 -81.167 65 -138.5c0 -53.333 -18.167 -96 -54.5 -128s-77.166 -52.333 -122.499 -61l164 -211c24 -31.333 45.833 -53 65.5 -65s43.5 -18.333 71.5 -19v-27h-149
c-22.667 15.333 -50.334 45 -83.001 89l-163 218h-69z" />
    <glyph glyph-name="S" unicode="S" horiz-adv-x="519" 
d="M247 -10c-43.333 0 -83.5 6.00293 -120.5 18.0029s-66.5 27.667 -88.5 47l-6 169h29c24 -134.667 86 -202 186 -202c45.333 0 81.166 12.167 107.499 36.5s39.5 55.833 39.5 94.5c0 40.667 -12 72.167 -36 94.5s-70 47.833 -138 76.5
c-60.667 25.333 -105.834 52.166 -135.501 80.499s-44.5 68.833 -44.5 121.5c0 53.333 19 97.666 57 132.999s89 53 153 53c78.667 0 145.334 -19.333 200.001 -58v-147h-29c-7.33301 56.667 -25.666 99.667 -54.999 129s-68 44 -116 44
c-39.333 0 -70.166 -11.167 -92.499 -33.5s-33.5 -50.833 -33.5 -85.5c0 -37.333 10.167 -66.333 30.5 -87s59.166 -43 116.499 -67c73.333 -30.667 126.333 -61.667 159 -93s49 -73.333 49 -126c0 -60.667 -22.333 -108.834 -67 -144.501s-99.667 -53.5 -165 -53.5z" />
    <glyph glyph-name="T" unicode="T" horiz-adv-x="641" 
d="M29 702h583.001l15 -209h-22c-30 74.667 -54.333 123 -73 145s-49 33 -91 33h-73v-575c0 -14 1.5 -25.167 4.5 -33.5s9.5 -14.833 19.5 -19.5s19.167 -7.83398 27.5 -9.50098s23.5 -3.83398 45.5 -6.50098v-27h-289v27c22 2.66699 37.167 4.83398 45.5 6.50098
s17.666 4.83398 27.999 9.50098s17 11.167 20 19.5s4.5 19.5 4.5 33.5v575h-74c-42 0 -72.333 -11 -91 -33s-43 -70.333 -73 -145h-22z" />
    <glyph glyph-name="U" unicode="U" horiz-adv-x="711" 
d="M191 604v-358c0 -64 15.167 -114.167 45.5 -150.5s72.833 -54.5 127.5 -54.5c140 0 210 71 210 213v348c0 28 -5.83301 46.167 -17.5 54.5s-38.5 14.5 -80.5 18.5v27h225v-27c-38 -4.66699 -62.167 -11 -72.5 -19s-15.5 -26 -15.5 -54v-365
c0 -80.667 -23.5 -142 -70.5 -184s-107.167 -63 -180.5 -63c-83.333 0 -148.333 20.833 -195 62.5s-70 104.167 -70 187.5v364c0 27.333 -5 44.833 -15 52.5s-34.333 13.834 -73 18.501v27h270v-27c-38.667 -4.66699 -63 -10.834 -73 -18.501s-15 -25.167 -15 -52.5z" />
    <glyph glyph-name="V" unicode="V" horiz-adv-x="687" 
d="M386 130l179 461.003c6.66699 16.667 10 30 10 40c0 15.333 -6.66699 26.166 -20 32.499s-37 10.166 -71 11.499v27h198v-27c-16 -2 -28.5 -5.5 -37.5 -10.5s-16.167 -13.833 -21.5 -26.5l-257 -647h-20l-282 647c-5.33301 12.667 -12.5 21.5 -21.5 26.5
s-21.5 8.5 -37.5 10.5v27h258v-27c-34 -1.33301 -57.667 -5 -71 -11s-20 -16.667 -20 -32c0 -10.667 3.66699 -24.334 11 -41.001z" />
    <glyph glyph-name="W" unicode="W" horiz-adv-x="918" 
d="M609 -9l-139 422.001l-152 -422h-24l-230 647c-6.66699 20 -26.334 32.333 -59.001 37v27h255v-27c-34 -1.33301 -57.5 -5 -70.5 -11s-19.5 -16.667 -19.5 -32c0 -4 3 -17.333 9 -40l158 -452l116 324l-57 174c-4 13.333 -10.5 22.166 -19.5 26.499
s-22.167 7.83301 -39.5 10.5v27h246v-27c-34 -1.33301 -57.5 -5 -70.5 -11s-19.5 -16.667 -19.5 -32c0 -6 3 -19.333 9 -40l147 -447l151 446c6.66699 20 10 33.333 10 40c0 15.333 -6.66699 26.166 -20 32.499s-37 10.166 -71 11.499v27h194v-27
c-11.333 -2 -19.666 -3.66699 -24.999 -5s-11.333 -4.66602 -18 -9.99902s-11.667 -12.666 -15 -21.999l-223 -647h-23z" />
    <glyph glyph-name="X" unicode="X" horiz-adv-x="676" 
d="M453 106l-140.001 213l-148 -206c-15.333 -21.333 -23 -38.333 -23 -51c0 -22 27.667 -33.667 83 -35v-27h-220v27c20 0 36.333 3.33301 49 10s26.334 20 41.001 40l198 272l-180 276c-21.333 33.333 -51.333 50 -90 50v27h281v-27c-31.333 0 -53.5 -1.66699 -66.5 -5
s-19.5 -10.333 -19.5 -21c0 -11.333 8.66699 -30.333 26 -57l116 -178l128 175c16.667 23.333 25 41.666 25 54.999c0 12 -6.66699 20.167 -20 24.5s-34.333 6.5 -63 6.5v27h218v-27c-20 0 -37 -3.66699 -51 -11s-27.667 -20.333 -41 -39l-176 -241l201 -307
c22 -33.333 52 -50 90 -50v-27h-281v27c55.333 0 83 10.667 83 32c0 10.667 -6.66699 26.334 -20 47.001z" />
    <glyph glyph-name="Y" unicode="Y" horiz-adv-x="621" 
d="M353 283l0.000976562 -187c0 -14 1.5 -25.167 4.5 -33.5s9.5 -14.833 19.5 -19.5s19.167 -7.83398 27.5 -9.50098s23.5 -3.83398 45.5 -6.50098v-27h-284v27c22 2.66699 37.167 4.83398 45.5 6.50098s17.666 4.83398 27.999 9.50098s17 11.167 20 19.5s4.5 19.5 4.5 33.5
v186l-200 356c-12 20.667 -31.667 33 -59 37v27h255v-27c-34 -1.33301 -57.333 -4.5 -70 -9.5s-19 -14.167 -19 -27.5c0 -8 6 -23.333 18 -46l151 -266l150 265c11.333 21.333 17 37.333 17 48c0 13.333 -6 22.333 -18 27s-35.333 7.66699 -70 9v27h197v-27
c-28 -4 -47.667 -16.333 -59 -37z" />
    <glyph glyph-name="Z" unicode="Z" horiz-adv-x="581" 
d="M141 33l220.001 0.000976562c14 0 26.167 1 36.5 3s20.666 6.5 30.999 13.5s18.833 13.5 25.5 19.5s15.167 17 25.5 33s18.833 29.667 25.5 41l31 55h24l-32 -198h-507v16l406 653h-217c-19.333 0 -35.333 -2.16699 -48 -6.5s-24.5 -13.833 -35.5 -28.5
s-20 -29.334 -27 -44.001s-17.833 -39 -32.5 -73h-23l5 185h495v-17z" />
    <glyph glyph-name="bracketleft" unicode="[" horiz-adv-x="312" 
d="M154 684v-738.998c0 -24 7.5 -39.333 22.5 -46s45.167 -11.334 90.5 -14.001v-26h-182v911h182v-26c-45.333 -2.66699 -75.5 -7.33398 -90.5 -14.001s-22.5 -22 -22.5 -46z" />
    <glyph glyph-name="backslash" unicode="\" horiz-adv-x="377" 
d="M328 -141l-300 911h39l300 -911h-39z" />
    <glyph glyph-name="bracketright" unicode="]" horiz-adv-x="312" 
d="M158 -55v738.998c0 24 -7.5 39.333 -22.5 46s-45.167 11.334 -90.5 14.001v26h182v-911h-182v26c45.333 2.66699 75.5 7.33398 90.5 14.001s22.5 22 22.5 46z" />
    <glyph glyph-name="asciicircum" unicode="^" horiz-adv-x="462" 
d="M257 770l165 -290h-47l-143 256l-145 -256h-47l165 290h52z" />
    <glyph glyph-name="underscore" unicode="_" horiz-adv-x="390" 
d="M370 -105h-350v39h350v-39z" />
    <glyph glyph-name="grave" unicode="`" 
d="M170 761h100l60 -169h-17l-143 164v5z" />
    <glyph glyph-name="a" unicode="a" horiz-adv-x="492" 
d="M204 49c32 0 69.333 17.668 112 53.001v188l-120 -49c-26.667 -10.667 -46.5 -23.834 -59.5 -39.501s-19.5 -36.167 -19.5 -61.5c0 -28 7.5 -50.167 22.5 -66.5s36.5 -24.5 64.5 -24.5zM407 376.001l-0.000976562 -265.001c0 -44 13 -66 39 -66
c12 0 27.333 4.33301 46 13l5 -15c-23.333 -35.333 -55.333 -53 -96 -53c-24 0 -43.167 8 -57.5 24s-22.833 38.333 -25.5 67c-52 -60.667 -105.667 -91 -161 -91c-38.667 0 -69.5 11.5 -92.5 34.5s-34.5 53.167 -34.5 90.5c0 38.667 12 68.834 36 90.501
s59.333 41.167 106 58.5l144 54v68c0 79.333 -30.667 119 -92 119c-27.333 0 -47.666 -8.16699 -60.999 -24.5s-20 -37.833 -20 -64.5c0 -16 2.33301 -33.333 7 -52l-53 -8c-26 8 -39 26.333 -39 55c0 36.667 16.833 65.667 50.5 87s76.5 32 128.5 32
c113.333 0 170 -51.333 170 -154z" />
    <glyph glyph-name="b" unicode="b" horiz-adv-x="544" 
d="M65 687l-65 34.999v11l143 50h12v-342c43.333 59.333 99.333 89 168 89c62 0 110.333 -21.667 145 -65s52 -101.666 52 -174.999c0 -90 -24 -162.5 -72 -217.5s-107.667 -82.5 -179 -82.5c-82.667 0 -150.667 24 -204 72v625zM269 16.999c48 0 86.833 22.167 116.5 66.5
s44.5 99.5 44.5 165.5c0 40 -4.83301 76.167 -14.5 108.5s-26.667 59.5 -51 81.5s-54.5 33 -90.5 33c-48 0 -87.667 -18 -119 -54v-275c0 -84 38 -126 114 -126z" />
    <glyph glyph-name="c" unicode="c" horiz-adv-x="440" 
d="M104 286c0 -67.333 15 -121.666 45 -162.999s70.667 -62 122 -62c61.333 0 110 27.667 146 83l12 -6c-15.333 -47.333 -39 -83.833 -71 -109.5s-70.667 -38.5 -116 -38.5c-64.667 0 -117.167 23.167 -157.5 69.5s-60.5 107.166 -60.5 182.499
c0 83.333 22 152.166 66 206.499s102.667 81.5 176 81.5c46.667 0 83.167 -9.5 109.5 -28.5s39.5 -44.833 39.5 -77.5c0 -28.667 -10.667 -49 -32 -61h-57c2.66699 14.667 4 28.667 4 42c0 62.667 -27.333 94 -82 94c-44 0 -79 -20.167 -105 -60.5s-39 -91.166 -39 -152.499
z" />
    <glyph glyph-name="d" unicode="d" horiz-adv-x="559" 
d="M268 502c-48 0 -86.498 -20.834 -115.498 -62.501s-43.5 -96.5 -43.5 -164.5c0 -64 14 -116.5 42 -157.5s67.667 -61.5 119 -61.5c47.333 0 85.666 16.333 114.999 49v250c0 44.667 -10.833 80.334 -32.5 107.001s-49.834 40 -84.501 40zM385.002 686.999l-65.002 35v11
l143 50h12v-686c0 -18 2.33301 -29.5 7 -34.5s18 -8.83301 40 -11.5l26 -3v-21l-152 -37h-15l4 92c-47.333 -61.333 -100.666 -92 -159.999 -92c-61.333 0 -110.166 22.833 -146.499 68.5s-54.5 104.5 -54.5 176.5c0 89.333 23 160.833 69 214.5s104.333 80.5 175 80.5
c49.333 0 88.333 -13.333 117 -40v197z" />
    <glyph glyph-name="e" unicode="e" horiz-adv-x="462" 
d="M250 530c59.333 0 105.498 -18.502 138.498 -55.502s49.5 -84.5 49.5 -142.5v-21h-332c-3.33301 -78.667 11.834 -140.667 45.501 -186s77.5 -68 131.5 -68c62 0 112 29.667 150 89l12 -6c-12.667 -45.333 -36 -81.666 -70 -108.999s-76.333 -41 -127 -41
c-68.667 0 -123 24.333 -163 73s-60 109.334 -60 182.001c0 82 21.333 150 64 204s96.334 81 161.001 81zM241.998 497.998c-37.333 0 -67.5 -14.667 -90.5 -44s-37.167 -67.333 -42.5 -114h242c0 48 -8.83301 86.333 -26.5 115s-45.167 43 -82.5 43z" />
    <glyph glyph-name="f" unicode="f" horiz-adv-x="314" 
d="M180 482v-405.996c0 -18.667 6.16699 -31.334 18.5 -38.001s35.833 -10.667 70.5 -12v-26h-248v26c27.333 1.33301 45.666 5.16602 54.999 11.499s14 19.166 14 38.499v406h-74v14l74 30v67c0 60.667 15.833 107.5 47.5 140.5s74.834 49.5 129.501 49.5
c70 0 105 -24 105 -72c0 -22.667 -9.66699 -39.334 -29 -50.001h-52c2 10 3 21.333 3 34c0 42.667 -16 64 -48 64c-44 0 -66 -36.667 -66 -110v-129h129v-38h-129z" />
    <glyph glyph-name="g" unicode="g" horiz-adv-x="494" 
d="M232 191c-33.333 0 -63.332 5.00098 -89.999 15.001c-26.667 -26.667 -40 -50.667 -40 -72c0 -26 13.667 -39 41 -39h193c49.333 0 88 -10.333 116 -31s42 -52 42 -94c0 -58.667 -26.833 -105.334 -80.5 -140.001s-119.5 -52 -197.5 -52
c-66.667 0 -119.167 11.333 -157.5 34s-57.5 54 -57.5 94c0 46 31.667 82.333 95 109c-38 14.667 -57 42 -57 82c0 16 4.83301 31.667 14.5 47s19.667 27.5 30 36.5s24.166 19.833 41.499 32.5c-58 28.667 -87 75.667 -87 141c0 54 18.167 96.833 54.5 128.5
s82.833 47.5 139.5 47.5c25.333 0 53 -5 83 -15l160 4v-47h-37l-79 4c17.333 -11.333 32.333 -27.666 45 -48.999s19 -44 19 -68c0 -50.667 -17.5 -91.334 -52.5 -122.001s-81.167 -46 -138.5 -46zM324.001 11.001h-217c-19.333 -20 -29 -47 -29 -81
c0 -38 13 -67.833 39 -89.5s62.333 -32.5 109 -32.5c56.667 0 104 11 142 33s57 53.333 57 94c0 50.667 -33.667 76 -101 76zM237.001 216.001c31.333 0 55.333 12.667 72 38s25 57.333 25 96c0 44.667 -9.16699 81.5 -27.5 110.5s-44.5 43.5 -78.5 43.5
c-31.333 0 -55.5 -12.667 -72.5 -38s-25.5 -57.333 -25.5 -96c0 -44.667 9.16699 -81.5 27.5 -110.5s44.833 -43.5 79.5 -43.5z" />
    <glyph glyph-name="h" unicode="h" horiz-adv-x="575" 
d="M87 76l0.00390625 611l-65 35v11l143 50h12v-348c57.333 63.333 118 95 182 95c90 0 135 -54.667 135 -164v-290c0 -19.333 4.66699 -32.166 14 -38.499s27.666 -10.166 54.999 -11.499v-26h-228v26c27.333 1.33301 45.666 5.16602 54.999 11.499s14 19.166 14 38.499
v291c0 70 -29.667 105 -89 105c-45.333 0 -91.333 -20.333 -138 -61v-335c0 -19.333 4.66699 -32.166 14 -38.499s27.666 -10.166 54.999 -11.499v-26h-228v26c27.333 1.33301 45.666 5.16602 54.999 11.499s14 19.166 14 38.499z" />
    <glyph glyph-name="i" unicode="i" horiz-adv-x="264" 
d="M180 530l0.00195312 -454c0 -19.333 4.66699 -32.166 14 -38.499s27.666 -10.166 54.999 -11.499v-26h-228v26c27.333 1.33301 45.666 5.16602 54.999 11.499s14 19.166 14 38.499v358l-65 35v11l143 50h12zM130.002 608c-17.333 0 -32.166 6.33301 -44.499 19
s-18.5 27.667 -18.5 45s6.16699 32.333 18.5 45s27.166 19 44.499 19c18 0 33.167 -6.33301 45.5 -19s18.5 -27.667 18.5 -45s-6.16699 -32.333 -18.5 -45s-27.5 -19 -45.5 -19z" />
    <glyph glyph-name="j" unicode="j" horiz-adv-x="243" 
d="M79 434l-65.001 35.001v11l143 50h12v-446c0 -44 -1.66699 -76.5 -5 -97.5s-10.333 -42.5 -21 -64.5c-19.333 -38.667 -60.333 -87 -123 -145l-15 11l41 72c14.667 25.333 23.834 51.666 27.501 78.999s5.5 65 5.5 113v382zM118.999 608.001
c-17.333 0 -32.166 6.33301 -44.499 19s-18.5 27.667 -18.5 45s6.16699 32.333 18.5 45s27.166 19 44.499 19c18 0 33.167 -6.33301 45.5 -19s18.5 -27.667 18.5 -45s-6.16699 -32.333 -18.5 -45s-27.5 -19 -45.5 -19z" />
    <glyph glyph-name="k" unicode="k" horiz-adv-x="531" 
d="M190 285l160.999 146.999c16.667 15.333 25 27.333 25 36c0 12 -17.667 20 -53 24c-6 0.666992 -10.667 1.33398 -14 2.00098v26h198v-26c-33.333 -8 -59.666 -20.667 -78.999 -38l-152 -138l255 -299v-19h-101zM87.999 75.999l0.00195312 611l-65 35v11l143 50h12v-707
c0 -19.333 4.66699 -32.166 14 -38.499s27.666 -10.166 54.999 -11.499v-26h-228v26c27.333 1.33301 45.666 5.16602 54.999 11.499s14 19.166 14 38.499z" />
    <glyph glyph-name="l" unicode="l" horiz-adv-x="262" 
d="M178 783l0.00195312 -707c0 -19.333 4.66699 -32.166 14 -38.499s27.666 -10.166 54.999 -11.499v-26h-228v26c27.333 1.33301 45.666 5.16602 54.999 11.499s14 19.166 14 38.499v611l-65 35v11l143 50h12z" />
    <glyph glyph-name="m" unicode="m" horiz-adv-x="869" 
d="M698 76l0.00390625 291c0 36 -6.66699 62.5 -20 79.5s-34.666 25.5 -63.999 25.5c-40 0 -83.333 -20.333 -130 -61v-335c0 -19.333 4.66699 -32.166 14 -38.499s27.666 -10.166 54.999 -11.499v-26h-228v26c27.333 1.33301 45.666 5.16602 54.999 11.499
s14 19.166 14 38.499v291c0 36 -6.66699 62.5 -20 79.5s-34.666 25.5 -63.999 25.5c-40 0 -83.333 -20.333 -130 -61v-335c0 -19.333 4.66699 -32.166 14 -38.499s27.666 -10.166 54.999 -11.499v-26h-228v26c27.333 1.33301 45.666 5.16602 54.999 11.499
s14 19.166 14 38.499v358l-65 35v11l147 50h12l-4 -95c28 30.667 55.333 54.167 82 70.5s58 24.5 94 24.5c67.333 0 108 -32.667 122 -98c59.333 65.333 120 98 182 98c44 0 76.333 -13.667 97 -41s31 -68.333 31 -123v-290c0 -19.333 4.66699 -32.166 14 -38.499
s27.666 -10.166 54.999 -11.499v-26h-228v26c27.333 1.33301 45.666 5.16602 54.999 11.499s14 19.166 14 38.499z" />
    <glyph glyph-name="n" unicode="n" horiz-adv-x="578" 
d="M407 76l0.00390625 291c0 70 -29.667 105 -89 105c-45.333 0 -91.333 -20.333 -138 -61v-335c0 -19.333 4.66699 -32.166 14 -38.499s27.666 -10.166 54.999 -11.499v-26h-228v26c27.333 1.33301 45.666 5.16602 54.999 11.499s14 19.166 14 38.499v358l-65 35v11l147 50
h12l-4 -95c57.333 63.333 118 95 182 95c90 0 135 -53.667 135 -161v-293c0 -19.333 4.66699 -32.166 14 -38.499s27.666 -10.166 54.999 -11.499v-26h-228v26c27.333 1.33301 45.666 5.16602 54.999 11.499s14 19.166 14 38.499z" />
    <glyph glyph-name="o" unicode="o" horiz-adv-x="518" 
d="M261 21c44 0 78 20.667 102 62s36 96.333 36 165c0 70.667 -12.167 130.167 -36.5 178.5s-59.5 72.5 -105.5 72.5c-44 0 -78 -20.667 -102 -62s-36 -96.333 -36 -165c0 -70.667 12.167 -130.167 36.5 -178.5s59.5 -72.5 105.5 -72.5zM256 -10
c-70 0 -126.167 23.667 -168.5 71s-63.5 109.333 -63.5 186c0 84.667 22.667 153 68 205s102 78 170 78c69.333 0 125.333 -23.833 168 -71.5s64 -109.5 64 -185.5c0 -84.667 -22.667 -153 -68 -205s-102 -78 -170 -78z" />
    <glyph glyph-name="p" unicode="p" horiz-adv-x="559" 
d="M284 19c48 0 86.833 21.833 116.5 65.5s44.5 98.5 44.5 164.5c0 40 -4.83301 76.167 -14.5 108.5s-26.667 59.5 -51 81.5s-54.5 33 -90.5 33c-48 0 -87.667 -18 -119 -54v-273c0 -84 38 -126 114 -126zM80 -136l0.000976562 570.001l-65 35v11l147 50h12l-4 -89
c43.333 59.333 99.333 89 168 89c62 0 110.333 -21.667 145 -65s52 -101.666 52 -174.999c0 -90 -24 -162.5 -72 -217.5s-107.667 -82.5 -179 -82.5c-48 0 -86 12 -114 36v-160c0 -20 5.83301 -33 17.5 -39s35.5 -10.333 71.5 -13v-26h-248v26
c27.333 1.33301 45.666 5.16602 54.999 11.499s14 19.166 14 38.499z" />
    <glyph glyph-name="q" unicode="q" horiz-adv-x="544" 
d="M268 502c-48 0 -86.498 -20.834 -115.498 -62.501s-43.5 -96.5 -43.5 -164.5c0 -64 14 -116.5 42 -157.5s67.667 -61.5 119 -61.5c47.333 0 85.666 16.333 114.999 49v250c0 44.667 -10.833 80.334 -32.5 107.001s-49.834 40 -84.501 40zM385.002 -134.001
l-0.000976562 215.998c-47.333 -61.333 -100.666 -92 -159.999 -92c-61.333 0 -110.166 22.833 -146.499 68.5s-54.5 104.5 -54.5 176.5c0 89.333 23 160.833 69 214.5s104.333 80.5 175 80.5c63.333 0 112.333 -20.667 147 -62l48 62h18l-6 -104v-562
c0 -19.333 4.66699 -32.166 14 -38.499s27.666 -10.166 54.999 -11.499v-26h-248v26c36 2.66699 59.833 7 71.5 13s17.5 19 17.5 39z" />
    <glyph glyph-name="r" unicode="r" horiz-adv-x="363" 
d="M180 366l-0.000976562 -289.997c0 -18.667 6.16699 -31.334 18.5 -38.001s35.833 -10.667 70.5 -12v-26h-248v26c27.333 1.33301 45.666 5.16602 54.999 11.499s14 19.166 14 38.499v358l-65 35v11l147 50h12l-4 -142c30.667 56.667 54.334 94.5 71.001 113.5
s38 28.5 64 28.5c17.333 0 30 -5.33301 38 -16v-75h-14c-35.333 0 -64.166 -4.33301 -86.499 -13s-46.5 -28.667 -72.5 -60z" />
    <glyph glyph-name="s" unicode="s" horiz-adv-x="432" 
d="M212 -10c-70 0 -126.001 16.3311 -168.001 48.998l-6 138h27c29.333 -106 79.666 -159 150.999 -159c31.333 0 56.666 8 75.999 24s29 39 29 69c0 28 -9.16699 50 -27.5 66s-51.166 33.333 -98.499 52c-53.333 20.667 -91.5 42.5 -114.5 65.5s-34.5 54.5 -34.5 94.5
c0 42.667 15 76.834 45 102.501s70 38.5 120 38.5c57.333 0 108 -14 152 -42v-121h-24c-23.333 90 -67.666 135 -132.999 135c-28 0 -49.833 -7.66699 -65.5 -23s-23.5 -35.333 -23.5 -60c0 -25.333 8.83301 -46.166 26.5 -62.499s49.167 -32.833 94.5 -49.5
c52.667 -20 91.834 -42 117.501 -66s38.5 -56.333 38.5 -97c0 -47.333 -16.5 -84.833 -49.5 -112.5s-77.167 -41.5 -132.5 -41.5z" />
    <glyph glyph-name="t" unicode="t" horiz-adv-x="327" 
d="M156 644v-123.999h143v-38h-143v-331c0 -36.667 6.66699 -63.167 20 -79.5s34.333 -24.5 63 -24.5c26.667 0 53 9.66699 79 29l9 -12c-34 -49.333 -78 -74 -132 -74c-38.667 0 -69.5 11.667 -92.5 35s-34.5 60.333 -34.5 111v346h-68v14
c54.667 29.333 100 78.666 136 147.999h20z" />
    <glyph glyph-name="u" unicode="u" horiz-adv-x="552" 
d="M468 423l-0.000976562 -326.004c0 -18 2.33301 -29.5 7 -34.5s18 -8.83301 40 -11.5l26 -3v-21l-151 -37h-15l4 94c-30 -30 -58.167 -53.167 -84.5 -69.5s-55.166 -24.5 -86.499 -24.5c-91.333 0 -137 52 -137 156v277c0 18.667 -3.33301 31.334 -10 38.001
s-21.667 11.334 -45 14.001l-16 2v23l154 28h11l-5 -109v-255c0 -76.667 29.667 -115 89 -115c38.667 0 82 19 130 57v317c0 18.667 -3.33301 31.334 -10 38.001s-21.667 11.334 -45 14.001l-15 2v23l152 28h11z" />
    <glyph glyph-name="v" unicode="v" horiz-adv-x="528" 
d="M523 520v-25.999c-17.333 -4 -29 -8.33301 -35 -13s-11.333 -12.667 -16 -24l-189 -467h-22l-205 467c-4.66699 11.333 -10 19.333 -16 24s-17.667 9 -35 13v26h222v-26c-28 -3.33301 -46.667 -6.83301 -56 -10.5s-14 -11.167 -14 -22.5c0 -6.66699 2 -16 6 -28l133 -325
l128 326c4.66699 12 7 21 7 27c0 11.333 -4.5 18.666 -13.5 21.999s-28.167 7 -57.5 11v26h163z" />
    <glyph glyph-name="w" unicode="w" horiz-adv-x="775" 
d="M551 118l120.999 316.001c2.66699 7.33301 4 15.333 4 24c0 12 -5 20.167 -15 24.5s-27.667 8.16602 -53 11.499v26h162v-26c-18 -4 -30 -8.33301 -36 -13s-11 -12.667 -15 -24l-182 -467h-24l-121 339l-127 -339h-23l-186 467c-4.66699 11.333 -10 19.333 -16 24
s-17.667 9 -35 13v26h219v-26c-25.333 -3.33301 -43 -7.16602 -53 -11.499s-15 -12.5 -15 -24.5c0 -8 1.33301 -16 4 -24l119 -318l97 263l-28 78c-3.33301 10.667 -8.16602 18.334 -14.499 23.001s-18.5 9.33398 -36.5 14.001v26h209v-26
c-18 -2.66699 -30.833 -4.83398 -38.5 -6.50098s-14.5 -4.83398 -20.5 -9.50098s-9 -11.334 -9 -20.001c0 -7.33301 1.33301 -15.333 4 -24z" />
    <glyph glyph-name="x" unicode="x" horiz-adv-x="531" 
d="M350 82l-106.001 152.001l-115 -152c-9.33301 -12 -14 -22 -14 -30s5 -13.833 15 -17.5s25.667 -6.5 47 -8.5v-26h-172v26c32 7.33301 54.667 19.666 68 36.999l151 199l-136 195c-8 12 -16.167 20.5 -24.5 25.5s-21.166 8.83301 -38.499 11.5v26h219v-26
c-38.667 -2.66699 -58 -10.667 -58 -24c0 -8 4.66699 -18.667 14 -32l84 -122l92 122c10 14 15 24.667 15 32c0 12.667 -19 20.667 -57 24v26h168v-26c-33.333 -6 -57 -18.333 -71 -37l-128 -168l158 -226c8 -12 16.5 -20.5 25.5 -25.5s22.167 -8.83301 39.5 -11.5v-26h-220
v26c22.667 2 38.5 4.16699 47.5 6.5s13.5 6.83301 13.5 13.5s-5.66699 18.667 -17 36z" />
    <glyph glyph-name="y" unicode="y" horiz-adv-x="525" 
d="M298 94l124.997 339.999c4 10.667 6 19.667 6 27c0 11.333 -4.66699 18.833 -14 22.5s-28 7.16699 -56 10.5v26h161v-26c-17.333 -4 -29.166 -8.5 -35.499 -13.5s-11.5 -12.833 -15.5 -23.5l-212 -561c-15.333 -39.333 -31.666 -68.166 -48.999 -86.499
s-40.333 -27.5 -69 -27.5c-16 0 -31 4.5 -45 13.5s-23 21.167 -27 36.5v29c20.667 -6 40 -9 58 -9c28.667 0 51.834 5.83301 69.501 17.5s32.167 33.5 43.5 65.5l19 51l-201 471c-4.66699 11.333 -10 19.333 -16 24s-17.667 9 -35 13v26h221v-26
c-28 -3.33301 -46.667 -6.83301 -56 -10.5s-14 -11.167 -14 -22.5c0 -6.66699 2 -16 6 -28z" />
    <glyph glyph-name="z" unicode="z" horiz-adv-x="478" 
d="M33 0l-0.000976562 12l301 473h-146c-29.333 0 -52.166 -9.83301 -68.499 -29.5s-32.5 -55.5 -48.5 -107.5h-24l16 203h22l10 -34h346v-16l-295 -469h156c26.667 0 49.167 11 67.5 33s35.5 61 51.5 117h24l-16 -182h-396z" />
    <glyph glyph-name="braceleft" unicode="{" horiz-adv-x="341" 
d="M50 310v10.002c55.333 11.333 83 44.666 83 99.999v222c0 38.667 15.167 69.667 45.5 93s69.5 35 117.5 35v-21c-30 -3.33301 -52.667 -12.5 -68 -27.5s-23 -38.5 -23 -70.5v-224c0 -32 -7.83301 -56 -23.5 -72s-41.5 -29.333 -77.5 -40c36 -10.667 61.833 -24 77.5 -40
s23.5 -40 23.5 -72v-224c0 -32 7.66699 -55.5 23 -70.5s38 -24.167 68 -27.5v-21c-48 0 -87.167 11.667 -117.5 35s-45.5 54.333 -45.5 93v222c0 55.333 -27.667 88.666 -83 99.999z" />
    <glyph glyph-name="bar" unicode="|" horiz-adv-x="217" 
d="M127 770v-911h-37v911h37z" />
    <glyph glyph-name="braceright" unicode="}" horiz-adv-x="341" 
d="M291 320v-10.002c-55.333 -11.333 -83 -44.666 -83 -99.999v-222c0 -38.667 -15.167 -69.667 -45.5 -93s-69.5 -35 -117.5 -35v21c30 3.33301 52.667 12.5 68 27.5s23 38.5 23 70.5v224c0 32 7.83301 56 23.5 72s41.5 29.333 77.5 40c-36 10.667 -61.833 24 -77.5 40
s-23.5 40 -23.5 72v224c0 32 -7.66699 55.5 -23 70.5s-38 24.167 -68 27.5v21c48 0 87.167 -11.667 117.5 -35s45.5 -54.333 45.5 -93v-222c0 -55.333 27.667 -88.666 83 -99.999z" />
    <glyph glyph-name="asciitilde" unicode="~" horiz-adv-x="451" 
d="M396 365l25 -6c-14.667 -43.333 -30.834 -74.666 -48.501 -93.999s-41.5 -29 -71.5 -29c-22 0 -52 11.333 -90 34s-65.667 34 -83 34c-16 0 -29.167 -4.66699 -39.5 -14s-21.5 -25.333 -33.5 -48l-25 6c14.667 43.333 30.834 74.666 48.501 93.999s41.5 29 71.5 29
c21.333 0 51 -11.333 89 -34s66 -34 84 -34c16 0 29.167 4.66699 39.5 14s21.5 25.333 33.5 48z" />
    <glyph glyph-name="uni00A0" unicode="&#xa0;" horiz-adv-x="210" 
 />
    <glyph glyph-name="exclamdown" unicode="&#xa1;" horiz-adv-x="238" 
d="M50 527c0 19.333 6.66699 35.666 20 48.999s29.666 20 48.999 20s35.666 -6.66699 48.999 -20s20 -29.666 20 -48.999s-6.66699 -35.666 -20 -48.999s-29.666 -20 -48.999 -20s-35.666 6.66699 -48.999 20s-20 29.666 -20 48.999zM110 383h17l52 -499h-121z" />
    <glyph glyph-name="cent" unicode="&#xa2;" horiz-adv-x="517" 
d="M183 -108l23.002 107.998c-50.667 14 -90.834 42.833 -120.501 86.5s-44.5 97.167 -44.5 160.5c0 85.333 23.833 155.666 71.5 210.999s111.167 83 190.5 83c8 0 14 -0.333008 18 -1l22 103h28l-23 -106c38.667 -5.33301 69.167 -17.166 91.5 -35.499
s33.5 -41.166 33.5 -68.499c0 -28.667 -11.667 -48.667 -35 -60h-61c2.66699 14.667 4 28.667 4 42c0 40.667 -13.667 68.334 -41 83.001l-92 -429c17.333 -6.66699 37.333 -10 60 -10c67.333 0 120.666 29.333 159.999 88l11 -6
c-14.667 -49.333 -39.5 -86.833 -74.5 -112.5s-77.5 -38.5 -127.5 -38.5c-16.667 0 -31.667 1.33301 -45 4l-21 -102h-28zM126.002 291.998c0 -50 8.5 -93.332 25.5 -129.999s40.833 -63.667 71.5 -81l91 427c-8.66699 2 -19 3 -31 3c-47.333 0 -85.333 -20.833 -114 -62.5
s-43 -93.834 -43 -156.501z" />
    <glyph glyph-name="sterling" unicode="&#xa3;" horiz-adv-x="618" 
d="M102 353l0.000976562 30.9971h99l11 82c10.667 84 36.5 146 77.5 186s92.833 60 155.5 60c44 0 78.833 -8.66699 104.5 -26s38.5 -41.666 38.5 -72.999c0 -14 -3.83301 -27 -11.5 -39s-16.834 -20.333 -27.501 -25h-61c4 22.667 6 42.334 6 59.001
c0 53.333 -20.667 80 -62 80c-32 0 -56.833 -17.667 -74.5 -53s-31.5 -82.666 -41.5 -141.999l-19 -109h168v-31h-173l-22 -136c-6 -34.667 -12.333 -63 -19 -85c67.333 -39.333 136.333 -59 207 -59c71.333 0 107 30 107 90c0 9.33301 -1 19 -3 29h9
c21.333 -23.333 32 -51.333 32 -84c0 -38 -12.167 -67.167 -36.5 -87.5s-57.833 -30.5 -100.5 -30.5s-85.167 9 -127.5 27s-77.5 40 -105.5 66c-26.667 -62 -70.667 -93 -132 -93c-28.667 0 -51 8.5 -67 25.5s-24 38.167 -24 63.5c0 28.667 10 51.5 30 68.5
s43.667 25.5 71 25.5c22 0 42.667 -3 62 -9l24 189h-95zM92.001 26.9971c17.333 0 32.833 7.49902 46.5 22.499s23.167 38.833 28.5 71.5c-24 12 -45.667 18 -65 18c-18 0 -32.5 -5.16699 -43.5 -15.5s-16.5 -25.166 -16.5 -44.499c0 -16.667 4.66699 -29.5 14 -38.5
s21.333 -13.5 36 -13.5z" />
    <glyph glyph-name="currency" unicode="&#xa4;" horiz-adv-x="582" 
d="M68 545l26 26l72 -74c36.667 30 78.334 45 125.001 45c47.333 0 88.666 -15 123.999 -45l73 74l26 -26l-74 -74c28.667 -36 43 -78 43 -126c0 -48.667 -14.333 -90.667 -43 -126l74 -74l-26 -26l-73 74c-34 -30 -75.333 -45 -124 -45c-48 0 -89.667 15 -125 45l-72 -74
l-26 26l74 74c-28.667 35.333 -43 77.333 -43 126c0 48 14.333 90 43 126zM135 345c0 -47.333 15 -86.666 45 -117.999s67 -47 111 -47s81 15.667 111 47s45 70.666 45 117.999s-15 86.666 -45 117.999s-67 47 -111 47s-81 -15.667 -111 -47s-45 -70.666 -45 -117.999z" />
    <glyph glyph-name="yen" unicode="&#xa5;" horiz-adv-x="626" 
d="M358 283l0.000976562 -60h170v-32h-170v-95c0 -14 1.5 -25.167 4.5 -33.5s9.5 -14.833 19.5 -19.5s19.167 -7.83398 27.5 -9.50098s23.5 -3.83398 45.5 -6.50098v-27h-289v27c22 2.66699 37.167 4.83398 45.5 6.50098s17.666 4.83398 27.999 9.50098s17 11.167 20 19.5
s4.5 19.5 4.5 33.5v95h-170v32h170v59l-14 24h-156v31h139l-169 301c-12 20.667 -31.667 33 -59 37v27h260v-27c-34 -1.33301 -57.333 -4.5 -70 -9.5s-19 -14.167 -19 -27.5c0 -8 6 -23.333 18 -46l148 -266l150 265c11.333 21.333 17 37.333 17 48
c0 13.333 -6 22.333 -18 27s-35.333 7.66699 -70 9v27h200v-27c-28 -4 -47.667 -16.333 -59 -37l-173 -301h139v-31h-157z" />
    <glyph glyph-name="brokenbar" unicode="&#xa6;" horiz-adv-x="217" 
d="M127 770v-376h-37v376h37zM127 235v-376h-37v376h37z" />
    <glyph glyph-name="section" unicode="&#xa7;" horiz-adv-x="519" 
d="M150 630c-42.667 -39.333 -64 -91.666 -64 -156.999c0 -50 10.167 -98 30.5 -144s49.5 -94.667 87.5 -146l50 -65c26 -33.333 46 -59.833 60 -79.5s27.167 -44.834 39.5 -75.501s17.5 -58.334 15.5 -83.001c42.667 39.333 64 91.666 64 156.999
c0 50 -10.167 98 -30.5 144s-49.5 94.667 -87.5 146l-50 65c-26 33.333 -46 59.833 -60 79.5s-27.167 44.834 -39.5 75.501s-17.5 58.334 -15.5 83.001zM236 -202c-49.333 0 -86.666 8.83301 -111.999 26.5s-38 40.5 -38 68.5c0 23.333 12.667 40.333 38 51h60v-16
c0 -69.333 26.333 -104 79 -104c25.333 0 44.333 7.5 57 22.5s19 33.5 19 55.5c0 16.667 -5.66699 36.834 -17 60.501s-22.833 43.834 -34.5 60.501s-30 41.167 -55 73.5l-52.5 68.5c-40 54.667 -70.667 106.334 -92 155.001s-32 99.667 -32 153
c0 69.333 22.333 126.5 67 171.5s98 67.5 160 67.5c49.333 0 86.666 -8.83301 111.999 -26.5s38 -40.5 38 -68.5c0 -23.333 -12.667 -40.333 -38 -51h-60v16c0 69.333 -26.333 104 -79 104c-25.333 0 -44.333 -7.5 -57 -22.5s-19 -33.5 -19 -55.5
c0 -16.667 5.66699 -36.834 17 -60.501s22.833 -43.834 34.5 -60.501s30 -41.167 55 -73.5l52.5 -68.5c40 -54.667 70.667 -106.334 92 -155.001s32 -99.667 32 -153c0 -69.333 -22.333 -126.5 -67 -171.5s-98 -67.5 -160 -67.5z" />
    <glyph glyph-name="dieresis" unicode="&#xa8;" 
d="M98 670c0 17.333 6 32 18 44s26.333 18 43 18c17.333 0 32 -6 44 -18s18 -26.667 18 -44s-6 -32 -18 -44s-26.667 -18 -44 -18c-16.667 0 -31 6 -43 18s-18 26.667 -18 44zM279 670c0 17.333 6 32 18 44s26.333 18 43 18c17.333 0 32 -6 44 -18s18 -26.667 18 -44
s-6 -32 -18 -44s-26.667 -18 -44 -18c-16.667 0 -31 6 -43 18s-18 26.667 -18 44z" />
    <glyph glyph-name="copyright" unicode="&#xa9;" horiz-adv-x="796" 
d="M61 351c0 -95.333 31.833 -176 95.5 -242s144.167 -99 241.5 -99s177.833 33 241.5 99s95.5 146.667 95.5 242s-31.833 176 -95.5 242s-144.167 99 -241.5 99s-177.833 -33 -241.5 -99s-95.5 -146.667 -95.5 -242zM40 351c0 100.667 33.833 186 101.5 256
s153.167 105 256.5 105s188.833 -35 256.5 -105s101.5 -155.333 101.5 -256s-33.833 -186 -101.5 -256s-153.167 -105 -256.5 -105s-188.833 35 -256.5 105s-101.5 155.333 -101.5 256zM411 170c32.667 0 57.5 9.33398 74.5 28.001s31.833 47.667 44.5 87h20l-9 -108
c-46.667 -23.333 -90 -35 -130 -35c-60.667 0 -109.834 18.833 -147.501 56.5s-56.5 86.167 -56.5 145.5c0 66.667 19.833 120 59.5 160s88.834 60 147.501 60c50 0 92 -13.333 126 -40v-95h-19c-15.333 71.333 -51 107 -107 107c-40.667 0 -72.5 -17 -95.5 -51
s-34.5 -75 -34.5 -123c0 -56.667 11.5 -102.834 34.5 -138.501s53.833 -53.5 92.5 -53.5z" />
    <glyph glyph-name="ordfeminine" unicode="&#xaa;" horiz-adv-x="349" 
d="M142 407c22 0 46 11 72 33v113l-70 -28c-34 -13.333 -51 -35 -51 -65c0 -35.333 16.333 -53 49 -53zM278 613v-168.997c0 -28.667 8.33301 -43 25 -43c10 0 21 3 33 9l3 -12c-16 -22.667 -37.667 -34 -65 -34c-16 0 -29.333 5.33301 -40 16s-16.667 25 -18 43
c-33.333 -39.333 -68 -59 -104 -59c-24.667 0 -44.5 7.33301 -59.5 22s-22.5 33.667 -22.5 57c0 25.333 7.83301 45.166 23.5 59.499s38.5 27.166 68.5 38.499l92 34v33c0 55.333 -19.667 83 -59 83c-15.333 0 -27 -4.83301 -35 -14.5s-12 -22.834 -12 -39.501
c0 -11.333 1.33301 -22.666 4 -33.999l-39 -5c-16.667 5.33301 -25 17.666 -25 36.999c0 24 10.833 42.833 32.5 56.5s49.167 20.5 82.5 20.5c76.667 0 115 -33 115 -99z" />
    <glyph glyph-name="guillemotleft" unicode="&#xab;" horiz-adv-x="447" 
d="M35 271v6l190 192h28l-125 -195l125 -195h-28zM194 271v6l190 192h28l-125 -195l125 -195h-28z" />
    <glyph glyph-name="registered" unicode="&#xae;" horiz-adv-x="515" 
d="M254 588h-26.001v-102h26c36 0 54 17.667 54 53c0 15.333 -4.66699 27.333 -14 36s-22.666 13 -39.999 13zM153.999 606h108.002c29.333 0 51.833 -6.16699 67.5 -18.5s23.5 -28.5 23.5 -48.5c0 -16.667 -5.83301 -30.834 -17.5 -42.501s-25.5 -19.167 -41.5 -22.5
l40 -55l14.5 -18.5c3 -3.66699 7.66699 -7 14 -10s14.166 -4.5 23.499 -4.5v-15h-61c-11.333 8 -24 22.333 -38 43l-37 55h-22v-59c0 -9.33301 2.16699 -15.666 6.5 -18.999s11.833 -5 22.5 -5v-15h-103v15c11.333 0 19.166 1.5 23.499 4.5s6.5 9.5 6.5 19.5v156
c0 10 -2 16.333 -6 19s-12 4.66699 -24 6v15zM51.001 484c0 -58 19.5 -107 58.5 -147s88.167 -60 147.5 -60c60 0 109.5 20 148.5 60s58.5 89 58.5 147s-19.5 107.167 -58.5 147.5s-88.5 60.5 -148.5 60.5c-59.333 0 -108.5 -20.167 -147.5 -60.5s-58.5 -89.5 -58.5 -147.5z
M30.001 484c0 64 21.499 118 64.499 162s97.167 66 162.5 66c66 0 120.5 -22 163.5 -66s64.5 -98 64.5 -162c0 -63.333 -21.667 -117 -65 -161s-97.666 -66 -162.999 -66s-119.5 22 -162.5 66s-64.5 97.667 -64.5 161z" />
    <glyph glyph-name="macron" unicode="&#xaf;" 
d="M119 623v49h251v-49h-251z" />
    <glyph glyph-name="degree" unicode="&#xb0;" horiz-adv-x="274" 
d="M56 596c0 -26 7.33301 -46.833 22 -62.5s34.334 -23.5 59.001 -23.5s44.334 7.83301 59.001 23.5s22 36.5 22 62.5s-7.33301 46.833 -22 62.5s-34.334 23.5 -59.001 23.5s-44.334 -7.83301 -59.001 -23.5s-22 -36.5 -22 -62.5zM20 596c0 32.667 11.333 60.167 34 82.5
s50.334 33.5 83.001 33.5s60.334 -11.167 83.001 -33.5s34 -49.833 34 -82.5s-11.333 -60.167 -34 -82.5s-50.334 -33.5 -83.001 -33.5s-60.334 11.167 -83.001 33.5s-34 49.833 -34 82.5z" />
    <glyph glyph-name="plusminus" unicode="&#xb1;" horiz-adv-x="564" 
d="M257 602h49v-149h195v-49h-195v-148h-49v148h-194v49h194v149zM63 146v49h438v-49h-438z" />
    <glyph glyph-name="twosuperior" unicode="&#xb2;" horiz-adv-x="368" 
d="M117 374l103 0.000976562c24 0 41 3.16699 51 9.5s22.333 22.5 37 48.5h15l-13 -124h-280v13l103 100c35.333 36 59.833 65.5 73.5 88.5s20.5 47.5 20.5 73.5c0 24 -6.5 42.5 -19.5 55.5s-31.5 19.5 -55.5 19.5c-36.667 0 -70 -16.333 -100 -49l-12 10
c34 61.333 82.333 92 145 92c36 0 63.833 -10 83.5 -30s29.5 -47.333 29.5 -82c0 -13.333 -2.5 -26.666 -7.5 -39.999s-10.333 -24.833 -16 -34.5s-15.667 -21.834 -30 -36.501s-25.833 -25.834 -34.5 -33.501l-45.5 -39.5z" />
    <glyph glyph-name="threesuperior" unicode="&#xb3;" horiz-adv-x="358" 
d="M194 528c38 -2.66699 68.1689 -14.498 90.502 -35.498s33.5 -47.167 33.5 -78.5c0 -36 -14.333 -64.5 -43 -85.5s-63.667 -31.5 -105 -31.5c-42 0 -75 8.33301 -99 25s-36 37 -36 61c0 19.333 8.33301 33.333 25 42h45c-2.66699 -8 -4 -16.333 -4 -25
c0 -54 25 -81 75 -81c23.333 0 41.666 7.66699 54.999 23s20 36.666 20 63.999c0 60.667 -37.333 91 -112 91h-15l-2 16c68.667 21.333 103 51.666 103 90.999c0 17.333 -5.5 31.333 -16.5 42s-26.833 16 -47.5 16c-38.667 0 -68.334 -18 -89.001 -54l-19 10
c12 28 30 50.667 54 68s52.333 26 85 26c33.333 0 58.5 -7.83301 75.5 -23.5s25.5 -36.167 25.5 -61.5c0 -44.667 -33 -77.667 -99 -99z" />
    <glyph glyph-name="acute" unicode="&#xb4;" 
d="M230 761h100v-5l-143 -164h-17z" />
    <glyph glyph-name="mu" unicode="&#xb5;" horiz-adv-x="552" 
d="M151 19l12 -194.004v-12l-92 -10v620c0 18.667 -3.33301 31.334 -10 38.001s-21.667 11.334 -45 14.001l-16 2v23l154 28h11l-5 -109v-255c0 -76.667 29.667 -115 89 -115c38.667 0 82 19 130 57v317c0 18.667 -3.33301 31.334 -10 38.001s-21.667 11.334 -45 14.001
l-15 2v23l152 28h11l-4 -105v-326c0 -18 2.33301 -29.5 7 -34.5s18 -8.83301 40 -11.5l26 -3v-21l-151 -37h-15l4 94c-29.333 -29.333 -56.833 -52.333 -82.5 -69s-52.5 -25 -80.5 -25c-32 0 -53.667 9.66699 -65 29z" />
    <glyph glyph-name="paragraph" unicode="&#xb6;" horiz-adv-x="610" 
d="M323 -197v420.998c-85.333 0 -150.5 22.667 -195.5 68s-67.5 104 -67.5 176c0 70.667 22.333 127.334 67 170.001s110 64 196 64h263v-29c-36 -1.33301 -62 -6.66602 -78 -15.999s-24 -28.333 -24 -57v-797h-38v867h-85v-867h-38zM323 255.998l0.000976562 414
c-27.333 0 -51.333 -5.83301 -72 -17.5s-36.834 -27.334 -48.501 -47.001s-20.167 -41 -25.5 -64s-8 -47.5 -8 -73.5c0 -36 4.5 -69.167 13.5 -99.5s25.667 -56.666 50 -78.999s54.5 -33.5 90.5 -33.5z" />
    <glyph glyph-name="periodcentered" unicode="&#xb7;" horiz-adv-x="206" 
d="M30 302c0 20.667 7 38 21 52s31.333 21 52 21s38 -7 52 -21s21 -31.333 21 -52s-7 -38 -21 -52s-31.333 -21 -52 -21s-38 7 -52 21s-21 31.333 -21 52z" />
    <glyph glyph-name="cedilla" unicode="&#xb8;" 
d="M163 -221l-5 26.001c35.333 0 63.5 4.83301 84.5 14.5s31.5 22.5 31.5 38.5c0 28 -29 43 -87 45l43 105h26l-22 -56c66.667 -1.33301 100 -26 100 -74c0 -32.667 -15.5 -57.334 -46.5 -74.001s-72.5 -25 -124.5 -25z" />
    <glyph glyph-name="onesuperior" unicode="&#xb9;" horiz-adv-x="322" 
d="M178 712h19v-340c0 -16 5.5 -26.333 16.5 -31s33.833 -8 68.5 -10v-23h-242v23c34.667 2 57.5 5.33301 68.5 10s16.5 15 16.5 31v249h-85v16l25 5c26 4 47 11.167 63 21.5s32.667 26.5 50 48.5z" />
    <glyph glyph-name="ordmasculine" unicode="&#xba;" horiz-adv-x="371" 
d="M187 391c27.333 0 48.333 12.5 63 37.5s22 58.833 22 101.5c0 44 -7.5 80.833 -22.5 110.5s-36.833 44.5 -65.5 44.5c-27.333 0 -48.333 -12.5 -63 -37.5s-22 -58.833 -22 -101.5c0 -44.667 7.5 -81.667 22.5 -111s36.833 -44 65.5 -44zM184 364
c-45.333 0 -82.333 15.333 -111 46s-43 70.667 -43 120c0 54 15 97.833 45 131.5s67.333 50.5 112 50.5c45.333 0 82.333 -15.333 111 -46s43 -70.667 43 -120c0 -54.667 -15 -98.667 -45 -132s-67.333 -50 -112 -50z" />
    <glyph glyph-name="guillemotright" unicode="&#xbb;" horiz-adv-x="447" 
d="M412 277v-6l-190 -192h-28l125 195l-125 195h28zM253 277v-6l-190 -192h-28l125 195l-125 195h28z" />
    <glyph glyph-name="onequarter" unicode="&#xbc;" horiz-adv-x="754" 
d="M408 134h150v182zM178 712l19 0.000976562v-340c0 -16 5.5 -26.333 16.5 -31s33.833 -8 68.5 -10v-23h-242v23c34.667 2 57.5 5.33301 68.5 10s16.5 15 16.5 31v249h-85v16l25 5c26.667 5.33301 48.167 13.166 64.5 23.499s32.5 25.833 48.5 46.5zM147 -9.99902l438 722
h38l-438 -722h-38zM695 0.000976562h-202v23c28 2 45.833 5.16699 53.5 9.5s11.5 14.833 11.5 31.5v43h-193v17l228 279h37v-269h79v-27h-79v-43c0 -16.667 3.83301 -27.167 11.5 -31.5s25.5 -7.5 53.5 -9.5v-23z" />
    <glyph glyph-name="onehalf" unicode="&#xbd;" horiz-adv-x="778" 
d="M178 712h19v-340c0 -16 5.5 -26.333 16.5 -31s33.833 -8 68.5 -10v-23h-242v23c34.667 2 57.5 5.33301 68.5 10s16.5 15 16.5 31v249h-85v16l25 5c26 4 47 11.167 63 21.5s32.667 26.5 50 48.5zM147 -10l438 722h38l-438 -722h-38zM527 66l103 0.000976562
c24 0 41 3.16699 51 9.5s22.333 22.5 37 48.5h15l-13 -124h-280v13l103 100c35.333 36 59.833 65.5 73.5 88.5s20.5 47.5 20.5 73.5c0 24 -6.5 42.5 -19.5 55.5s-31.5 19.5 -55.5 19.5c-36.667 0 -70 -16.333 -100 -49l-12 10c34 61.333 82.333 92 145 92
c36 0 63.833 -10 83.5 -30s29.5 -47.333 29.5 -82c0 -13.333 -2.5 -26.666 -7.5 -39.999s-10.333 -24.833 -16 -34.5s-15.667 -21.834 -30 -36.501s-25.833 -25.834 -34.5 -33.501l-45.5 -39.5z" />
    <glyph glyph-name="threequarters" unicode="&#xbe;" horiz-adv-x="761" 
d="M195 532c38.667 -2.66699 68.8359 -14.4971 90.5029 -35.4971s32.5 -47.5 32.5 -79.5c0 -36 -14.333 -65 -43 -87s-63.667 -33 -105 -33c-42 0 -75 8.33301 -99 25s-36 37 -36 61c0 19.333 8.33301 33.333 25 42h45c-2.66699 -8 -4 -16.333 -4 -25c0 -54 25 -81 75 -81
c23.333 0 41.666 7.66699 54.999 23s20 36.666 20 63.999c0 60.667 -37.333 91 -112 91h-15l-2 16c68 21.333 102 51.666 102 90.999c0 16.667 -5.33301 30.5 -16 41.5s-26.334 16.5 -47.001 16.5c-38.667 0 -68.334 -18 -89.001 -54l-19 10c12 28 30 50.667 54 68
s52.333 26 85 26c33.333 0 58.5 -7.83301 75.5 -23.5s25.5 -36.167 25.5 -61.5c0 -42.667 -32.667 -74.334 -98 -95.001zM415.002 134.003h150v182zM154.002 -9.99707l438 722h38l-438 -722h-38zM702.002 0.00292969h-202v23c28 2 45.833 5.16699 53.5 9.5
s11.5 14.833 11.5 31.5v43h-193v17l228 279h37v-269h79v-27h-79v-43c0 -16.667 3.83301 -27.167 11.5 -31.5s25.5 -7.5 53.5 -9.5v-23z" />
    <glyph glyph-name="questiondown" unicode="&#xbf;" horiz-adv-x="424" 
d="M117 10c0 -35.333 9 -63 27 -83s43.667 -30 77 -30c32 0 56.5 10.167 73.5 30.5s25.5 46.166 25.5 77.499v44h73c14 -12.667 21 -28.667 21 -48c0 -36.667 -18.5 -67 -55.5 -91s-82.167 -36 -135.5 -36c-58.667 0 -105.5 14.333 -140.5 43s-52.5 70 -52.5 124
c0 37.333 11.667 69.833 35 97.5s58.333 58.5 105 92.5c28 20 47.833 39.5 59.5 58.5s17.5 42.833 17.5 71.5v32h10c21.333 -38 32 -70.667 32 -98c0 -28 -6.5 -52.667 -19.5 -74s-34.167 -43.666 -63.5 -66.999c-21.333 -16.667 -37 -29.834 -47 -39.501
s-19.5 -23.667 -28.5 -42s-13.5 -39.166 -13.5 -62.499zM313 527c0 -19.333 -6.83301 -35.666 -20.5 -48.999s-29.834 -20 -48.501 -20s-34.834 6.66699 -48.501 20s-20.5 29.666 -20.5 48.999s6.83301 35.666 20.5 48.999s29.834 20 48.501 20s34.834 -6.66699 48.501 -20
s20.5 -29.666 20.5 -48.999z" />
    <glyph glyph-name="Agrave" unicode="&#xc0;" horiz-adv-x="696" 
d="M515 110l-56 135.998h-285l-53 -135c-6.66699 -16.667 -10 -30 -10 -40c0 -15.333 6.66699 -26.166 20 -32.499s37 -10.166 71 -11.499v-27h-197v27c32 4.66699 51.667 17 59 37l230 581l-28 66h100l266 -647c8 -20 27.667 -32.333 59 -37v-27h-256v27
c34 1.33301 57.5 5 70.5 11s19.5 16.667 19.5 32c0 10 -3.33301 23.333 -10 40zM314 602.998l-128 -325h260zM194 899.998h105l55 -149h-17l-143 144v5z" />
    <glyph glyph-name="Aacute" unicode="&#xc1;" horiz-adv-x="696" 
d="M515 110l-56 135.998h-285l-53 -135c-6.66699 -16.667 -10 -30 -10 -40c0 -15.333 6.66699 -26.166 20 -32.499s37 -10.166 71 -11.499v-27h-197v27c32 4.66699 51.667 17 59 37l230 581l-28 66h100l266 -647c8 -20 27.667 -32.333 59 -37v-27h-256v27
c34 1.33301 57.5 5 70.5 11s19.5 16.667 19.5 32c0 10 -3.33301 23.333 -10 40zM314 602.998l-128 -325h260zM359 899.998h105v-5l-143 -144h-17z" />
    <glyph glyph-name="Acircumflex" unicode="&#xc2;" horiz-adv-x="696" 
d="M515 110l-56 135.998h-285l-53 -135c-6.66699 -16.667 -10 -30 -10 -40c0 -15.333 6.66699 -26.166 20 -32.499s37 -10.166 71 -11.499v-27h-197v27c32 4.66699 51.667 17 59 37l230 581l-28 66h100l266 -647c8 -20 27.667 -32.333 59 -37v-27h-256v27
c34 1.33301 57.5 5 70.5 11s19.5 16.667 19.5 32c0 10 -3.33301 23.333 -10 40zM314 602.998l-128 -325h260zM368 909.998l130 -159h-23l-141 94l-141 -94h-23l130 159h68z" />
    <glyph glyph-name="Atilde" unicode="&#xc3;" horiz-adv-x="696" 
d="M515 110l-56 135.998h-285l-53 -135c-6.66699 -16.667 -10 -30 -10 -40c0 -15.333 6.66699 -26.166 20 -32.499s37 -10.166 71 -11.499v-27h-197v27c32 4.66699 51.667 17 59 37l230 581l-28 66h100l266 -647c8 -20 27.667 -32.333 59 -37v-27h-256v27
c34 1.33301 57.5 5 70.5 11s19.5 16.667 19.5 32c0 10 -3.33301 23.333 -10 40zM314 602.998l-128 -325h260zM398 750.998c-18.667 0 -43.667 9.83301 -75 29.5s-54.333 29.5 -69 29.5c-28 0 -52.333 -19 -73 -57l-18 10c18.667 44 35.5 74.333 50.5 91s33.833 25 56.5 25
c18.667 0 43.667 -9.83301 75 -29.5s54.333 -29.5 69 -29.5c28 0 52.333 19 73 57l18 -10c-18.667 -44 -35.5 -74.333 -50.5 -91s-33.833 -25 -56.5 -25z" />
    <glyph glyph-name="Adieresis" unicode="&#xc4;" horiz-adv-x="696" 
d="M515 110l-56 135.998h-285l-53 -135c-6.66699 -16.667 -10 -30 -10 -40c0 -15.333 6.66699 -26.166 20 -32.499s37 -10.166 71 -11.499v-27h-197v27c32 4.66699 51.667 17 59 37l230 581l-28 66h100l266 -647c8 -20 27.667 -32.333 59 -37v-27h-256v27
c34 1.33301 57.5 5 70.5 11s19.5 16.667 19.5 32c0 10 -3.33301 23.333 -10 40zM314 602.998l-128 -325h260zM177 821.998c0 17.333 6 32 18 44s26.333 18 43 18c17.333 0 32 -6 44 -18s18 -26.667 18 -44s-6 -32 -18 -44s-26.667 -18 -44 -18c-16.667 0 -31 6 -43 18
s-18 26.667 -18 44zM368 821.998c0 17.333 6 32 18 44s26.333 18 43 18c17.333 0 32 -6 44 -18s18 -26.667 18 -44s-6 -32 -18 -44s-26.667 -18 -44 -18c-16.667 0 -31 6 -43 18s-18 26.667 -18 44z" />
    <glyph glyph-name="Aring" unicode="&#xc5;" horiz-adv-x="696" 
d="M515 110l-56 135.998h-285l-53 -135c-6.66699 -16.667 -10 -30 -10 -40c0 -15.333 6.66699 -26.166 20 -32.499s37 -10.166 71 -11.499v-27h-197v27c32 4.66699 51.667 17 59 37l230 581l-28 66h100l266 -647c8 -20 27.667 -32.333 59 -37v-27h-256v27
c34 1.33301 57.5 5 70.5 11s19.5 16.667 19.5 32c0 10 -3.33301 23.333 -10 40zM314 602.998l-128 -325h260zM237 819.998c0 24.667 8.16699 45.167 24.5 61.5s36.833 24.5 61.5 24.5s45.167 -8.16699 61.5 -24.5s24.5 -36.833 24.5 -61.5s-8.16699 -45.167 -24.5 -61.5
s-36.833 -24.5 -61.5 -24.5s-45.167 8.16699 -61.5 24.5s-24.5 36.833 -24.5 61.5zM269 819.998c0 -16.667 4.83301 -30.5 14.5 -41.5s22.834 -16.5 39.501 -16.5s29.834 5.5 39.501 16.5s14.5 24.833 14.5 41.5s-4.83301 30.5 -14.5 41.5s-22.834 16.5 -39.501 16.5
s-29.834 -5.5 -39.501 -16.5s-14.5 -24.833 -14.5 -41.5z" />
    <glyph glyph-name="AE" unicode="&#xc6;" horiz-adv-x="1000" 
d="M64 64l375.001 569.002c-6 23.333 -41 37.333 -105 42v27h602l5 -167h-20c-22 52.667 -43.167 88.167 -63.5 106.5s-47.833 27.5 -82.5 27.5h-179v-290h159c20.667 0 36.167 7.16699 46.5 21.5s18.5 37.166 24.5 68.499h27v-213h-27
c-6 31.333 -14.167 54.166 -24.5 68.499s-25.833 21.5 -46.5 21.5h-159v-245c0 -26 7.33301 -43.833 22 -53.5s40 -14.5 76 -14.5h92c34 0 62.167 10.5 84.5 31.5s50.166 59.5 83.499 115.5h24l-30 -180h-534v27c38.667 4.66699 63 10.834 73 18.501s15 25.167 15 52.5v148
h-275l-89 -135c-10.667 -16 -16 -29.667 -16 -41c0 -28.667 32.333 -43 97 -43v-27h-214v27c23.333 3.33301 43 15.666 59 36.999zM502.001 664.002l-254 -386h254v386z" />
    <glyph glyph-name="Ccedilla" unicode="&#xc7;" horiz-adv-x="628" 
d="M259 -221l-5.00293 26.002c35.333 0 63.5 4.83301 84.5 14.5s31.5 22.5 31.5 38.5c0 28 -29 43 -87 45l37 90c-88.667 10.667 -158.667 47 -210 109s-77 140 -77 234c0 112.667 30.833 203.5 92.5 272.5s140.5 103.5 236.5 103.5c84 0 156.333 -19.667 217 -59v-146h-27
c-10.667 56.667 -32.167 99.5 -64.5 128.5s-74.166 43.5 -125.499 43.5c-72.667 0 -128.667 -29.833 -168 -89.5s-59 -134.834 -59 -225.501c0 -98 20.833 -179.333 62.5 -244s99.167 -97 172.5 -97c54 0 97.167 15.833 129.5 47.5s55.833 82.167 70.5 151.5h30l-13 -178
c-63.333 -36 -135.666 -54 -216.999 -54c-3.33301 0 -7.66602 0.166992 -12.999 0.5s-9.33301 0.5 -12 0.5l-15 -39c66.667 -1.33301 100 -26 100 -74c0 -32.667 -15.5 -57.334 -46.5 -74.001s-72.5 -25 -124.5 -25z" />
    <glyph glyph-name="Egrave" unicode="&#xc8;" horiz-adv-x="614" 
d="M28 0l0.000976562 27c38.667 4.66699 63 10.834 73 18.501s15 25.167 15 52.5v506c0 27.333 -5 44.833 -15 52.5s-34.333 13.834 -73 18.501v27h522l5 -167h-20c-22 52.667 -43.167 88.167 -63.5 106.5s-47.833 27.5 -82.5 27.5h-179v-290h159
c20.667 0 36.167 7.16699 46.5 21.5s18.5 37.166 24.5 68.499h27v-213h-27c-6 31.333 -14.167 54.166 -24.5 68.499s-25.833 21.5 -46.5 21.5h-159v-245c0 -26 7.33301 -43.833 22 -53.5s40 -14.5 76 -14.5h92c34 0 62.167 10.5 84.5 31.5s50.166 59.5 83.499 115.5h24
l-30 -180h-534zM208.001 900h105l55 -149h-17l-143 144v5z" />
    <glyph glyph-name="Eacute" unicode="&#xc9;" horiz-adv-x="614" 
d="M28 0l0.000976562 27c38.667 4.66699 63 10.834 73 18.501s15 25.167 15 52.5v506c0 27.333 -5 44.833 -15 52.5s-34.333 13.834 -73 18.501v27h522l5 -167h-20c-22 52.667 -43.167 88.167 -63.5 106.5s-47.833 27.5 -82.5 27.5h-179v-290h159
c20.667 0 36.167 7.16699 46.5 21.5s18.5 37.166 24.5 68.499h27v-213h-27c-6 31.333 -14.167 54.166 -24.5 68.499s-25.833 21.5 -46.5 21.5h-159v-245c0 -26 7.33301 -43.833 22 -53.5s40 -14.5 76 -14.5h92c34 0 62.167 10.5 84.5 31.5s50.166 59.5 83.499 115.5h24
l-30 -180h-534zM353.001 900h105v-5l-143 -144h-17z" />
    <glyph glyph-name="Ecircumflex" unicode="&#xca;" horiz-adv-x="614" 
d="M28 0l0.000976562 27c38.667 4.66699 63 10.834 73 18.501s15 25.167 15 52.5v506c0 27.333 -5 44.833 -15 52.5s-34.333 13.834 -73 18.501v27h522l5 -167h-20c-22 52.667 -43.167 88.167 -63.5 106.5s-47.833 27.5 -82.5 27.5h-179v-290h159
c20.667 0 36.167 7.16699 46.5 21.5s18.5 37.166 24.5 68.499h27v-213h-27c-6 31.333 -14.167 54.166 -24.5 68.499s-25.833 21.5 -46.5 21.5h-159v-245c0 -26 7.33301 -43.833 22 -53.5s40 -14.5 76 -14.5h92c34 0 62.167 10.5 84.5 31.5s50.166 59.5 83.499 115.5h24
l-30 -180h-534zM362.001 910l130 -159h-23l-141 94l-141 -94h-23l130 159h68z" />
    <glyph glyph-name="Edieresis" unicode="&#xcb;" horiz-adv-x="614" 
d="M28 0l0.000976562 27c38.667 4.66699 63 10.834 73 18.501s15 25.167 15 52.5v506c0 27.333 -5 44.833 -15 52.5s-34.333 13.834 -73 18.501v27h522l5 -167h-20c-22 52.667 -43.167 88.167 -63.5 106.5s-47.833 27.5 -82.5 27.5h-179v-290h159
c20.667 0 36.167 7.16699 46.5 21.5s18.5 37.166 24.5 68.499h27v-213h-27c-6 31.333 -14.167 54.166 -24.5 68.499s-25.833 21.5 -46.5 21.5h-159v-245c0 -26 7.33301 -43.833 22 -53.5s40 -14.5 76 -14.5h92c34 0 62.167 10.5 84.5 31.5s50.166 59.5 83.499 115.5h24
l-30 -180h-534zM171.001 822c0 17.333 6 32 18 44s26.333 18 43 18c17.333 0 32 -6 44 -18s18 -26.667 18 -44s-6 -32 -18 -44s-26.667 -18 -44 -18c-16.667 0 -31 6 -43 18s-18 26.667 -18 44zM362.001 822c0 17.333 6 32 18 44s26.333 18 43 18c17.333 0 32 -6 44 -18
s18 -26.667 18 -44s-6 -32 -18 -44s-26.667 -18 -44 -18c-16.667 0 -31 6 -43 18s-18 26.667 -18 44z" />
    <glyph glyph-name="Igrave" unicode="&#xcc;" horiz-adv-x="326" 
d="M210 604v-506c0 -27.333 5 -44.833 15 -52.5s34.333 -13.834 73 -18.501v-27h-270v27c38.667 4.66699 63 10.834 73 18.501s15 25.167 15 52.5v506c0 27.333 -5 44.833 -15 52.5s-34.333 13.834 -73 18.501v27h270v-27c-38.667 -4.66699 -63 -10.834 -73 -18.501
s-15 -25.167 -15 -52.5zM43 900h105l55 -149h-17l-143 144v5z" />
    <glyph glyph-name="Iacute" unicode="&#xcd;" horiz-adv-x="326" 
d="M210 604v-506c0 -27.333 5 -44.833 15 -52.5s34.333 -13.834 73 -18.501v-27h-270v27c38.667 4.66699 63 10.834 73 18.501s15 25.167 15 52.5v506c0 27.333 -5 44.833 -15 52.5s-34.333 13.834 -73 18.501v27h270v-27c-38.667 -4.66699 -63 -10.834 -73 -18.501
s-15 -25.167 -15 -52.5zM188 900h105v-5l-143 -144h-17z" />
    <glyph glyph-name="Icircumflex" unicode="&#xce;" horiz-adv-x="326" 
d="M210 604v-506c0 -27.333 5 -44.833 15 -52.5s34.333 -13.834 73 -18.501v-27h-270v27c38.667 4.66699 63 10.834 73 18.501s15 25.167 15 52.5v506c0 27.333 -5 44.833 -15 52.5s-34.333 13.834 -73 18.501v27h270v-27c-38.667 -4.66699 -63 -10.834 -73 -18.501
s-15 -25.167 -15 -52.5zM194 910l118 -160h-21l-128 94l-128 -94h-21l118 160h62z" />
    <glyph glyph-name="Idieresis" unicode="&#xcf;" horiz-adv-x="326" 
d="M210 604v-506c0 -27.333 5 -44.833 15 -52.5s34.333 -13.834 73 -18.501v-27h-270v27c38.667 4.66699 63 10.834 73 18.501s15 25.167 15 52.5v506c0 27.333 -5 44.833 -15 52.5s-34.333 13.834 -73 18.501v27h270v-27c-38.667 -4.66699 -63 -10.834 -73 -18.501
s-15 -25.167 -15 -52.5zM6 822c0 17.333 6 32 18 44s26.333 18 43 18c17.333 0 32 -6 44 -18s18 -26.667 18 -44s-6 -32 -18 -44s-26.667 -18 -44 -18c-16.667 0 -31 6 -43 18s-18 26.667 -18 44zM197 822c0 17.333 6 32 18 44s26.333 18 43 18c17.333 0 32 -6 44 -18
s18 -26.667 18 -44s-6 -32 -18 -44s-26.667 -18 -44 -18c-16.667 0 -31 6 -43 18s-18 26.667 -18 44z" />
    <glyph glyph-name="Eth" unicode="&#xd0;" horiz-adv-x="717" 
d="M38 346l0.000976562 33.998h88v224c0 27.333 -5 44.833 -15 52.5s-34.333 13.834 -73 18.501v27h284c60.667 0 114.667 -9 162 -27s85.333 -42.5 114 -73.5s50.167 -66 64.5 -105s21.5 -80.833 21.5 -125.5c0 -114.667 -33.333 -205.167 -100 -271.5
s-149.334 -99.5 -248.001 -99.5h-298v27c38.667 4.66699 63 10.834 73 18.501s15 25.167 15 52.5v248h-88zM304.001 668.998h-83.999v-289h143v-34h-143v-242c0 -28 6.66699 -46.833 20 -56.5s36.333 -14.5 69 -14.5h27c72.667 0 131.5 27.167 176.5 81.5
s67.5 132.166 67.5 233.499c0 43.333 -5 83.5 -15 120.5s-25.333 70.833 -46 101.5s-49.334 54.834 -86.001 72.501s-79.667 26.5 -129 26.5z" />
    <glyph glyph-name="Ntilde" unicode="&#xd1;" horiz-adv-x="739" 
d="M594 167v435c0 28 -5.83301 46.167 -17.5 54.5s-38.5 14.5 -80.5 18.5v27h225v-27c-38 -4.66699 -62.167 -11 -72.5 -19s-15.5 -26 -15.5 -54v-606h-25l-451 581v-477c0 -28 5.83301 -46.167 17.5 -54.5s38.5 -14.5 80.5 -18.5v-27h-225v27c38 4.66699 62.167 11 72.5 19
s15.5 26 15.5 54v514c-18.667 24 -33.5 40 -44.5 48s-26.167 12.333 -45.5 13v27h155zM452 751c-18 0 -42.832 9.83301 -74.499 29.5s-54.834 29.5 -69.501 29.5c-28 0 -52.333 -19 -73 -57l-18 10c18.667 44 35.5 74.333 50.5 91s33.833 25 56.5 25
c18.667 0 43.667 -9.83301 75 -29.5s54.333 -29.5 69 -29.5c28 0 52.333 19 73 57l18 -10c-18.667 -44 -35.5 -74.333 -50.5 -91s-33.833 -25 -56.5 -25z" />
    <glyph glyph-name="Ograve" unicode="&#xd2;" horiz-adv-x="696" 
d="M352 23c64.667 0 115.334 31.333 152.001 94s55 140.667 55 234c0 54.667 -7.33301 106 -22 154s-39 89 -73 123s-74.333 51 -121 51c-64.667 0 -115.334 -31.333 -152.001 -94s-55 -140.667 -55 -234c0 -54.667 7.33301 -106 22 -154s39 -89 73 -123s74.333 -51 121 -51
zM344 -10c-64 0 -120.169 16.5 -168.502 49.5s-84.166 75.5 -107.499 127.5s-35 108.667 -35 170c0 112 30.333 202.5 91 271.5s136.334 103.5 227.001 103.5c96 0 172 -34 228 -102s84 -149.667 84 -245c0 -112 -30.5 -202.5 -91.5 -271.5s-136.833 -103.5 -227.5 -103.5z
M227.998 900h105l55 -149h-17l-143 144v5z" />
    <glyph glyph-name="Oacute" unicode="&#xd3;" horiz-adv-x="696" 
d="M352 23c64.667 0 115.334 31.333 152.001 94s55 140.667 55 234c0 54.667 -7.33301 106 -22 154s-39 89 -73 123s-74.333 51 -121 51c-64.667 0 -115.334 -31.333 -152.001 -94s-55 -140.667 -55 -234c0 -54.667 7.33301 -106 22 -154s39 -89 73 -123s74.333 -51 121 -51
zM344 -10c-64 0 -120.169 16.5 -168.502 49.5s-84.166 75.5 -107.499 127.5s-35 108.667 -35 170c0 112 30.333 202.5 91 271.5s136.334 103.5 227.001 103.5c96 0 172 -34 228 -102s84 -149.667 84 -245c0 -112 -30.5 -202.5 -91.5 -271.5s-136.833 -103.5 -227.5 -103.5z
M372.998 900h105v-5l-143 -144h-17z" />
    <glyph glyph-name="Ocircumflex" unicode="&#xd4;" horiz-adv-x="696" 
d="M352 23c64.667 0 115.334 31.333 152.001 94s55 140.667 55 234c0 54.667 -7.33301 106 -22 154s-39 89 -73 123s-74.333 51 -121 51c-64.667 0 -115.334 -31.333 -152.001 -94s-55 -140.667 -55 -234c0 -54.667 7.33301 -106 22 -154s39 -89 73 -123s74.333 -51 121 -51
zM344 -10c-64 0 -120.169 16.5 -168.502 49.5s-84.166 75.5 -107.499 127.5s-35 108.667 -35 170c0 112 30.333 202.5 91 271.5s136.334 103.5 227.001 103.5c96 0 172 -34 228 -102s84 -149.667 84 -245c0 -112 -30.5 -202.5 -91.5 -271.5s-136.833 -103.5 -227.5 -103.5z
M381.998 910l130 -159h-23l-141 94l-141 -94h-23l130 159h68z" />
    <glyph glyph-name="Otilde" unicode="&#xd5;" horiz-adv-x="696" 
d="M352 23c64.667 0 115.334 31.333 152.001 94s55 140.667 55 234c0 54.667 -7.33301 106 -22 154s-39 89 -73 123s-74.333 51 -121 51c-64.667 0 -115.334 -31.333 -152.001 -94s-55 -140.667 -55 -234c0 -54.667 7.33301 -106 22 -154s39 -89 73 -123s74.333 -51 121 -51
zM344 -10c-64 0 -120.169 16.5 -168.502 49.5s-84.166 75.5 -107.499 127.5s-35 108.667 -35 170c0 112 30.333 202.5 91 271.5s136.334 103.5 227.001 103.5c96 0 172 -34 228 -102s84 -149.667 84 -245c0 -112 -30.5 -202.5 -91.5 -271.5s-136.833 -103.5 -227.5 -103.5z
M417.998 751c-18.667 0 -43.668 9.83301 -75.001 29.5s-54.333 29.5 -69 29.5c-28 0 -52.333 -19 -73 -57l-18 10c18.667 44 35.5 74.333 50.5 91s33.833 25 56.5 25c18.667 0 43.834 -9.83301 75.501 -29.5s54.5 -29.5 68.5 -29.5c28 0 52.333 19 73 57l18 -10
c-18.667 -44 -35.5 -74.333 -50.5 -91s-33.833 -25 -56.5 -25z" />
    <glyph glyph-name="Odieresis" unicode="&#xd6;" horiz-adv-x="696" 
d="M352 23c64.667 0 115.334 31.333 152.001 94s55 140.667 55 234c0 54.667 -7.33301 106 -22 154s-39 89 -73 123s-74.333 51 -121 51c-64.667 0 -115.334 -31.333 -152.001 -94s-55 -140.667 -55 -234c0 -54.667 7.33301 -106 22 -154s39 -89 73 -123s74.333 -51 121 -51
zM344 -10c-64 0 -120.169 16.5 -168.502 49.5s-84.166 75.5 -107.499 127.5s-35 108.667 -35 170c0 112 30.333 202.5 91 271.5s136.334 103.5 227.001 103.5c96 0 172 -34 228 -102s84 -149.667 84 -245c0 -112 -30.5 -202.5 -91.5 -271.5s-136.833 -103.5 -227.5 -103.5z
M190.998 822c0 17.333 6 32 18 44s26.333 18 43 18c17.333 0 32 -6 44 -18s18 -26.667 18 -44s-6 -32 -18 -44s-26.667 -18 -44 -18c-16.667 0 -31 6 -43 18s-18 26.667 -18 44zM381.998 822c0 17.333 6 32 18 44s26.333 18 43 18c17.333 0 32 -6 44 -18s18 -26.667 18 -44
s-6 -32 -18 -44s-26.667 -18 -44 -18c-16.667 0 -31 6 -43 18s-18 26.667 -18 44z" />
    <glyph glyph-name="multiply" unicode="&#xd7;" horiz-adv-x="488" 
d="M210 366l-143 143l34 34l143 -144l143 144l34 -34l-143 -143l143 -143l-34 -34l-143 144l-143 -144l-34 34z" />
    <glyph glyph-name="Oslash" unicode="&#xd8;" horiz-adv-x="696" 
d="M344 -10c-66 0 -123.666 17.334 -172.999 52.001l-61 -95l-26 17l63 97c-36.667 32 -64.834 72.167 -84.501 120.5s-29.5 100.166 -29.5 155.499c0 112 30.333 202.5 91 271.5s136.334 103.5 227.001 103.5c69.333 0 129.666 -19.333 180.999 -58l57 88l26 -17l-59 -91
c71.333 -67.333 107 -157 107 -269s-30.5 -202.5 -91.5 -271.5s-136.833 -103.5 -227.5 -103.5zM136.001 351.001c0 -87.333 17.668 -162 53.001 -224l304 467c-38.667 56.667 -88.667 85 -150 85c-64.667 0 -115.334 -31.333 -152.001 -94s-55 -140.667 -55 -234z
M352.002 23.001c64.667 0 115.333 31.333 152 94s55 140.667 55 234c0 80.667 -16 151.667 -48 213l-303 -466c38.667 -50 86.667 -75 144 -75z" />
    <glyph glyph-name="Ugrave" unicode="&#xd9;" horiz-adv-x="711" 
d="M191 604v-358c0 -64 15.167 -114.167 45.5 -150.5s72.833 -54.5 127.5 -54.5c140 0 210 71 210 213v348c0 28 -5.83301 46.167 -17.5 54.5s-38.5 14.5 -80.5 18.5v27h225v-27c-38 -4.66699 -62.167 -11 -72.5 -19s-15.5 -26 -15.5 -54v-365
c0 -80.667 -23.5 -142 -70.5 -184s-107.167 -63 -180.5 -63c-83.333 0 -148.333 20.833 -195 62.5s-70 104.167 -70 187.5v364c0 27.333 -5 44.833 -15 52.5s-34.333 13.834 -73 18.501v27h270v-27c-38.667 -4.66699 -63 -10.834 -73 -18.501s-15 -25.167 -15 -52.5z
M257 900h105l55 -149h-17l-143 144v5z" />
    <glyph glyph-name="Uacute" unicode="&#xda;" horiz-adv-x="711" 
d="M191 604v-358c0 -64 15.167 -114.167 45.5 -150.5s72.833 -54.5 127.5 -54.5c140 0 210 71 210 213v348c0 28 -5.83301 46.167 -17.5 54.5s-38.5 14.5 -80.5 18.5v27h225v-27c-38 -4.66699 -62.167 -11 -72.5 -19s-15.5 -26 -15.5 -54v-365
c0 -80.667 -23.5 -142 -70.5 -184s-107.167 -63 -180.5 -63c-83.333 0 -148.333 20.833 -195 62.5s-70 104.167 -70 187.5v364c0 27.333 -5 44.833 -15 52.5s-34.333 13.834 -73 18.501v27h270v-27c-38.667 -4.66699 -63 -10.834 -73 -18.501s-15 -25.167 -15 -52.5z
M402 900h105v-5l-143 -144h-17z" />
    <glyph glyph-name="Ucircumflex" unicode="&#xdb;" horiz-adv-x="711" 
d="M191 604v-358c0 -64 15.167 -114.167 45.5 -150.5s72.833 -54.5 127.5 -54.5c140 0 210 71 210 213v348c0 28 -5.83301 46.167 -17.5 54.5s-38.5 14.5 -80.5 18.5v27h225v-27c-38 -4.66699 -62.167 -11 -72.5 -19s-15.5 -26 -15.5 -54v-365
c0 -80.667 -23.5 -142 -70.5 -184s-107.167 -63 -180.5 -63c-83.333 0 -148.333 20.833 -195 62.5s-70 104.167 -70 187.5v364c0 27.333 -5 44.833 -15 52.5s-34.333 13.834 -73 18.501v27h270v-27c-38.667 -4.66699 -63 -10.834 -73 -18.501s-15 -25.167 -15 -52.5z
M411 910l130 -159h-23l-141 94l-141 -94h-23l130 159h68z" />
    <glyph glyph-name="Udieresis" unicode="&#xdc;" horiz-adv-x="711" 
d="M191 604v-358c0 -64 15.167 -114.167 45.5 -150.5s72.833 -54.5 127.5 -54.5c140 0 210 71 210 213v348c0 28 -5.83301 46.167 -17.5 54.5s-38.5 14.5 -80.5 18.5v27h225v-27c-38 -4.66699 -62.167 -11 -72.5 -19s-15.5 -26 -15.5 -54v-365
c0 -80.667 -23.5 -142 -70.5 -184s-107.167 -63 -180.5 -63c-83.333 0 -148.333 20.833 -195 62.5s-70 104.167 -70 187.5v364c0 27.333 -5 44.833 -15 52.5s-34.333 13.834 -73 18.501v27h270v-27c-38.667 -4.66699 -63 -10.834 -73 -18.501s-15 -25.167 -15 -52.5z
M220 822c0 17.333 6 32 18 44s26.333 18 43 18c17.333 0 32 -6 44 -18s18 -26.667 18 -44s-6 -32 -18 -44s-26.667 -18 -44 -18c-16.667 0 -31 6 -43 18s-18 26.667 -18 44zM411 822c0 17.333 6 32 18 44s26.333 18 43 18c17.333 0 32 -6 44 -18s18 -26.667 18 -44
s-6 -32 -18 -44s-26.667 -18 -44 -18c-16.667 0 -31 6 -43 18s-18 26.667 -18 44z" />
    <glyph glyph-name="Yacute" unicode="&#xdd;" horiz-adv-x="621" 
d="M353 283l0.000976562 -187c0 -14 1.5 -25.167 4.5 -33.5s9.5 -14.833 19.5 -19.5s19.167 -7.83398 27.5 -9.50098s23.5 -3.83398 45.5 -6.50098v-27h-284v27c22 2.66699 37.167 4.83398 45.5 6.50098s17.666 4.83398 27.999 9.50098s17 11.167 20 19.5s4.5 19.5 4.5 33.5
v186l-200 356c-12 20.667 -31.667 33 -59 37v27h255v-27c-34 -1.33301 -57.333 -4.5 -70 -9.5s-19 -14.167 -19 -27.5c0 -8 6 -23.333 18 -46l151 -266l150 265c11.333 21.333 17 37.333 17 48c0 13.333 -6 22.333 -18 27s-35.333 7.66699 -70 9v27h197v-27
c-28 -4 -47.667 -16.333 -59 -37zM349.001 900h105v-5l-143 -144h-17z" />
    <glyph glyph-name="Thorn" unicode="&#xde;" horiz-adv-x="581" 
d="M210 604l0.000976562 -40.002h82c85.333 0 150.833 -19.667 196.5 -59s68.5 -88 68.5 -146c0 -63.333 -22.333 -114.166 -67 -152.499s-109.334 -57.5 -194.001 -57.5h-86v-38c0 -30 8.16699 -50.167 24.5 -60.5s49.5 -17.5 99.5 -21.5v-29h-306v27
c38.667 4.66699 63 10.834 73 18.501s15 25.167 15 52.5v506c0 27.333 -5 44.833 -15 52.5s-34.333 13.834 -73 18.501v27h270v-27c-38.667 -4.66699 -63 -10.834 -73 -18.501s-15 -25.167 -15 -52.5zM210.001 530.998v-349h66c118.667 0 178 57.667 178 173
c0 51.333 -14.833 93.5 -44.5 126.5s-74.167 49.5 -133.5 49.5h-66z" />
    <glyph glyph-name="germandbls" unicode="&#xdf;" horiz-adv-x="612" 
d="M300 783c54.667 0 99.0029 -14.3311 133.003 -42.998s51 -64 51 -106c0 -27.333 -7.5 -52.5 -22.5 -75.5s-31.333 -40.833 -49 -53.5s-34 -27 -49 -43s-22.5 -31.667 -22.5 -47c0 -5.33301 0.833008 -10.333 2.5 -15s4.83398 -9.5 9.50098 -14.5
s9.16699 -9.33301 13.5 -13s10.666 -8.16699 18.999 -13.5s15.666 -9.83301 21.999 -13.5l26.5 -15l29 -16.5c40.667 -24 70.667 -47.667 90 -71s29 -54.333 29 -93c0 -46 -17.167 -84.167 -51.5 -114.5s-74.833 -45.5 -121.5 -45.5c-63.333 0 -114 18 -152 54l-6 133h28
c22.667 -105.333 66.667 -158 132 -158c31.333 0 55.333 8.5 72 25.5s25 40.5 25 70.5c0 16.667 -2.33301 31.167 -7 43.5s-14 24.333 -28 36s-26 20.834 -36 27.501s-27.333 17 -52 31c-36 20 -61.5 38.833 -76.5 56.5s-22.5 40.167 -22.5 67.5
c0 15.333 4.16699 30.666 12.5 45.999s18.666 30 30.999 44l36.5 43.5c12 15 22.167 33.167 30.5 54.5s12.5 44.333 12.5 69c0 38.667 -9 69.167 -27 91.5s-45.333 33.5 -82 33.5c-38.667 0 -68.334 -15.5 -89.001 -46.5s-31 -75.5 -31 -133.5v-579h-159v26
c27.333 1.33301 45.666 5.16602 54.999 11.499s14 19.166 14 38.499v406h-74v14l74 30v31c0 74.667 20.333 131 61 169s90.334 57 149.001 57z" />
    <glyph glyph-name="agrave" unicode="&#xe0;" horiz-adv-x="492" 
d="M204 49c32 0 69.333 17.668 112 53.001v188l-120 -49c-26.667 -10.667 -46.5 -23.834 -59.5 -39.501s-19.5 -36.167 -19.5 -61.5c0 -28 7.5 -50.167 22.5 -66.5s36.5 -24.5 64.5 -24.5zM407 376.001l-0.000976562 -265.001c0 -44 13 -66 39 -66
c12 0 27.333 4.33301 46 13l5 -15c-23.333 -35.333 -55.333 -53 -96 -53c-24 0 -43.167 8 -57.5 24s-22.833 38.333 -25.5 67c-52 -60.667 -105.667 -91 -161 -91c-38.667 0 -69.5 11.5 -92.5 34.5s-34.5 53.167 -34.5 90.5c0 38.667 12 68.834 36 90.501
s59.333 41.167 106 58.5l144 54v68c0 79.333 -30.667 119 -92 119c-27.333 0 -47.666 -8.16699 -60.999 -24.5s-20 -37.833 -20 -64.5c0 -16 2.33301 -33.333 7 -52l-53 -8c-26 8 -39 26.333 -39 55c0 36.667 16.833 65.667 50.5 87s76.5 32 128.5 32
c113.333 0 170 -51.333 170 -154zM118.999 761h100l60 -169h-17l-143 164v5z" />
    <glyph glyph-name="aacute" unicode="&#xe1;" horiz-adv-x="492" 
d="M204 49c32 0 69.333 17.668 112 53.001v188l-120 -49c-26.667 -10.667 -46.5 -23.834 -59.5 -39.501s-19.5 -36.167 -19.5 -61.5c0 -28 7.5 -50.167 22.5 -66.5s36.5 -24.5 64.5 -24.5zM407 376.001l-0.000976562 -265.001c0 -44 13 -66 39 -66
c12 0 27.333 4.33301 46 13l5 -15c-23.333 -35.333 -55.333 -53 -96 -53c-24 0 -43.167 8 -57.5 24s-22.833 38.333 -25.5 67c-52 -60.667 -105.667 -91 -161 -91c-38.667 0 -69.5 11.5 -92.5 34.5s-34.5 53.167 -34.5 90.5c0 38.667 12 68.834 36 90.501
s59.333 41.167 106 58.5l144 54v68c0 79.333 -30.667 119 -92 119c-27.333 0 -47.666 -8.16699 -60.999 -24.5s-20 -37.833 -20 -64.5c0 -16 2.33301 -33.333 7 -52l-53 -8c-26 8 -39 26.333 -39 55c0 36.667 16.833 65.667 50.5 87s76.5 32 128.5 32
c113.333 0 170 -51.333 170 -154zM268.999 761h100v-5l-143 -164h-17z" />
    <glyph glyph-name="acircumflex" unicode="&#xe2;" horiz-adv-x="492" 
d="M204 49c32 0 69.333 17.668 112 53.001v188l-120 -49c-26.667 -10.667 -46.5 -23.834 -59.5 -39.501s-19.5 -36.167 -19.5 -61.5c0 -28 7.5 -50.167 22.5 -66.5s36.5 -24.5 64.5 -24.5zM407 376.001l-0.000976562 -265.001c0 -44 13 -66 39 -66
c12 0 27.333 4.33301 46 13l5 -15c-23.333 -35.333 -55.333 -53 -96 -53c-24 0 -43.167 8 -57.5 24s-22.833 38.333 -25.5 67c-52 -60.667 -105.667 -91 -161 -91c-38.667 0 -69.5 11.5 -92.5 34.5s-34.5 53.167 -34.5 90.5c0 38.667 12 68.834 36 90.501
s59.333 41.167 106 58.5l144 54v68c0 79.333 -30.667 119 -92 119c-27.333 0 -47.666 -8.16699 -60.999 -24.5s-20 -37.833 -20 -64.5c0 -16 2.33301 -33.333 7 -52l-53 -8c-26 8 -39 26.333 -39 55c0 36.667 16.833 65.667 50.5 87s76.5 32 128.5 32
c113.333 0 170 -51.333 170 -154zM272.999 765l110 -173h-26l-118 108l-118 -108h-26l110 173h68z" />
    <glyph glyph-name="atilde" unicode="&#xe3;" horiz-adv-x="492" 
d="M204 49c32 0 69.333 17.668 112 53.001v188l-120 -49c-26.667 -10.667 -46.5 -23.834 -59.5 -39.501s-19.5 -36.167 -19.5 -61.5c0 -28 7.5 -50.167 22.5 -66.5s36.5 -24.5 64.5 -24.5zM407 376.001l-0.000976562 -265.001c0 -44 13 -66 39 -66
c12 0 27.333 4.33301 46 13l5 -15c-23.333 -35.333 -55.333 -53 -96 -53c-24 0 -43.167 8 -57.5 24s-22.833 38.333 -25.5 67c-52 -60.667 -105.667 -91 -161 -91c-38.667 0 -69.5 11.5 -92.5 34.5s-34.5 53.167 -34.5 90.5c0 38.667 12 68.834 36 90.501
s59.333 41.167 106 58.5l144 54v68c0 79.333 -30.667 119 -92 119c-27.333 0 -47.666 -8.16699 -60.999 -24.5s-20 -37.833 -20 -64.5c0 -16 2.33301 -33.333 7 -52l-53 -8c-26 8 -39 26.333 -39 55c0 36.667 16.833 65.667 50.5 87s76.5 32 128.5 32
c113.333 0 170 -51.333 170 -154zM297.999 601c-18.667 0 -42 9.83301 -70 29.5s-49.333 29.5 -64 29.5c-14 0 -26 -4.33301 -36 -13s-20.667 -23.334 -32 -44.001l-18 10c19.333 45.333 35.666 76 48.999 92s31 24 53 24c18.667 0 42 -9.83301 70 -29.5
s49.333 -29.5 64 -29.5c14 0 26 4.33301 36 13s20.667 23.334 32 44.001l18 -10c-19.333 -45.333 -35.666 -76 -48.999 -92s-31 -24 -53 -24z" />
    <glyph glyph-name="adieresis" unicode="&#xe4;" horiz-adv-x="492" 
d="M204 49c32 0 69.333 17.668 112 53.001v188l-120 -49c-26.667 -10.667 -46.5 -23.834 -59.5 -39.501s-19.5 -36.167 -19.5 -61.5c0 -28 7.5 -50.167 22.5 -66.5s36.5 -24.5 64.5 -24.5zM407 376.001l-0.000976562 -265.001c0 -44 13 -66 39 -66
c12 0 27.333 4.33301 46 13l5 -15c-23.333 -35.333 -55.333 -53 -96 -53c-24 0 -43.167 8 -57.5 24s-22.833 38.333 -25.5 67c-52 -60.667 -105.667 -91 -161 -91c-38.667 0 -69.5 11.5 -92.5 34.5s-34.5 53.167 -34.5 90.5c0 38.667 12 68.834 36 90.501
s59.333 41.167 106 58.5l144 54v68c0 79.333 -30.667 119 -92 119c-27.333 0 -47.666 -8.16699 -60.999 -24.5s-20 -37.833 -20 -64.5c0 -16 2.33301 -33.333 7 -52l-53 -8c-26 8 -39 26.333 -39 55c0 36.667 16.833 65.667 50.5 87s76.5 32 128.5 32
c113.333 0 170 -51.333 170 -154zM86.999 670c0 17.333 6 32 18 44s26.333 18 43 18c17.333 0 32 -6 44 -18s18 -26.667 18 -44s-6 -32 -18 -44s-26.667 -18 -44 -18c-16.667 0 -31 6 -43 18s-18 26.667 -18 44zM267.999 670c0 17.333 6 32 18 44s26.333 18 43 18
c17.333 0 32 -6 44 -18s18 -26.667 18 -44s-6 -32 -18 -44s-26.667 -18 -44 -18c-16.667 0 -31 6 -43 18s-18 26.667 -18 44z" />
    <glyph glyph-name="aring" unicode="&#xe5;" horiz-adv-x="492" 
d="M204 49c32 0 69.333 17.668 112 53.001v188l-120 -49c-26.667 -10.667 -46.5 -23.834 -59.5 -39.501s-19.5 -36.167 -19.5 -61.5c0 -28 7.5 -50.167 22.5 -66.5s36.5 -24.5 64.5 -24.5zM407 376.001l-0.000976562 -265.001c0 -44 13 -66 39 -66
c12 0 27.333 4.33301 46 13l5 -15c-23.333 -35.333 -55.333 -53 -96 -53c-24 0 -43.167 8 -57.5 24s-22.833 38.333 -25.5 67c-52 -60.667 -105.667 -91 -161 -91c-38.667 0 -69.5 11.5 -92.5 34.5s-34.5 53.167 -34.5 90.5c0 38.667 12 68.834 36 90.501
s59.333 41.167 106 58.5l144 54v68c0 79.333 -30.667 119 -92 119c-27.333 0 -47.666 -8.16699 -60.999 -24.5s-20 -37.833 -20 -64.5c0 -16 2.33301 -33.333 7 -52l-53 -8c-26 8 -39 26.333 -39 55c0 36.667 16.833 65.667 50.5 87s76.5 32 128.5 32
c113.333 0 170 -51.333 170 -154zM184.999 652c0 -16.667 4.83301 -30.5 14.5 -41.5s22.834 -16.5 39.501 -16.5s29.834 5.5 39.501 16.5s14.5 24.833 14.5 41.5s-4.83301 30.5 -14.5 41.5s-22.834 16.5 -39.501 16.5s-29.834 -5.5 -39.501 -16.5s-14.5 -24.833 -14.5 -41.5
zM152.999 652c0 24.667 8.16699 45.167 24.5 61.5s36.833 24.5 61.5 24.5s45.167 -8.16699 61.5 -24.5s24.5 -36.833 24.5 -61.5s-8.16699 -45.167 -24.5 -61.5s-36.833 -24.5 -61.5 -24.5s-45.167 8.16699 -61.5 24.5s-24.5 36.833 -24.5 61.5z" />
    <glyph glyph-name="ae" unicode="&#xe6;" horiz-adv-x="731" 
d="M519 530c59.333 0 105.5 -19.002 138.5 -57.002s49.5 -86.333 49.5 -145v-21h-328c-3.33301 -78.667 11.167 -140 43.5 -184s75.5 -66 129.5 -66c62 0 112 29.667 150 89l12 -6c-12.667 -45.333 -36 -81.666 -70 -108.999s-76.333 -41 -127 -41
c-78 0 -137.333 32 -178 96c-20 -26 -46.167 -48.5 -78.5 -67.5s-66.833 -28.5 -103.5 -28.5c-38.667 0 -69.5 11.5 -92.5 34.5s-34.5 53.167 -34.5 90.5c0 38.667 12 68.834 36 90.501s59.333 41.167 106 58.5l131 46c3.33301 18 7.33301 34.667 12 50
c-0.666992 42 -8.66699 76.667 -24 104s-39.666 41 -72.999 41c-24.667 0 -43.334 -8.16699 -56.001 -24.5s-19 -37.833 -19 -64.5c0 -16 2.33301 -33.333 7 -52l-53 -8c-26 8 -39 26.333 -39 55c0 36 16.167 64.833 48.5 86.5s71.833 32.5 118.5 32.5
c68 0 115.333 -24 142 -72c41.333 48 92 72 152 72zM204 48.998c42.667 0 84.667 17.668 126 53.001c-21.333 41.333 -32 89 -32 143c0 15.333 0.333008 27 1 35l-103 -39c-26.667 -10.667 -46.5 -23.834 -59.5 -39.501s-19.5 -36.167 -19.5 -61.5
c0 -28 7.5 -50.167 22.5 -66.5s36.5 -24.5 64.5 -24.5zM511 497.999c-36.667 0 -66 -15.1689 -88 -45.502s-35.667 -69.166 -41 -116.499h238c0 48.667 -9 87.834 -27 117.501s-45.333 44.5 -82 44.5z" />
    <glyph glyph-name="ccedilla" unicode="&#xe7;" horiz-adv-x="440" 
d="M141 -221l-5 26.002c35.333 0 63.5 4.83301 84.5 14.5s31.5 22.5 31.5 38.5c0 28 -29 43 -87 45l37 91c-54 9.33301 -97.167 36.166 -129.5 80.499s-48.5 100.166 -48.5 167.499c0 83.333 22 152.166 66 206.499s102.667 81.5 176 81.5c46.667 0 83.167 -9.5 109.5 -28.5
s39.5 -44.833 39.5 -77.5c0 -28.667 -10.667 -49 -32 -61h-57c2.66699 14.667 4 28.667 4 42c0 62.667 -27.333 94 -82 94c-44 0 -79 -20.167 -105 -60.5s-39 -91.166 -39 -152.499c0 -67.333 15 -121.666 45 -162.999s70.667 -62 122 -62c61.333 0 110 27.667 146 83l12 -6
c-15.333 -47.333 -39 -83.833 -71 -109.5s-70.667 -38.5 -116 -38.5c-6.66699 0 -11.667 0.333008 -15 1l-15 -39c66.667 -1.33301 100 -26 100 -74c0 -32.667 -15.5 -57.334 -46.5 -74.001s-72.5 -25 -124.5 -25z" />
    <glyph glyph-name="egrave" unicode="&#xe8;" horiz-adv-x="462" 
d="M250 530c59.333 0 105.498 -18.502 138.498 -55.502s49.5 -84.5 49.5 -142.5v-21h-332c-3.33301 -78.667 11.834 -140.667 45.501 -186s77.5 -68 131.5 -68c62 0 112 29.667 150 89l12 -6c-12.667 -45.333 -36 -81.666 -70 -108.999s-76.333 -41 -127 -41
c-68.667 0 -123 24.333 -163 73s-60 109.334 -60 182.001c0 82 21.333 150 64 204s96.334 81 161.001 81zM241.998 497.998c-37.333 0 -67.5 -14.667 -90.5 -44s-37.167 -67.333 -42.5 -114h242c0 48 -8.83301 86.333 -26.5 115s-45.167 43 -82.5 43zM140.998 760.998h100
l60 -169h-17l-143 164v5z" />
    <glyph glyph-name="eacute" unicode="&#xe9;" horiz-adv-x="462" 
d="M250 530c59.333 0 105.498 -18.502 138.498 -55.502s49.5 -84.5 49.5 -142.5v-21h-332c-3.33301 -78.667 11.834 -140.667 45.501 -186s77.5 -68 131.5 -68c62 0 112 29.667 150 89l12 -6c-12.667 -45.333 -36 -81.666 -70 -108.999s-76.333 -41 -127 -41
c-68.667 0 -123 24.333 -163 73s-60 109.334 -60 182.001c0 82 21.333 150 64 204s96.334 81 161.001 81zM241.998 497.998c-37.333 0 -67.5 -14.667 -90.5 -44s-37.167 -67.333 -42.5 -114h242c0 48 -8.83301 86.333 -26.5 115s-45.167 43 -82.5 43zM290.998 760.998h100
v-5l-143 -164h-17z" />
    <glyph glyph-name="ecircumflex" unicode="&#xea;" horiz-adv-x="462" 
d="M250 530c59.333 0 105.498 -18.502 138.498 -55.502s49.5 -84.5 49.5 -142.5v-21h-332c-3.33301 -78.667 11.834 -140.667 45.501 -186s77.5 -68 131.5 -68c62 0 112 29.667 150 89l12 -6c-12.667 -45.333 -36 -81.666 -70 -108.999s-76.333 -41 -127 -41
c-68.667 0 -123 24.333 -163 73s-60 109.334 -60 182.001c0 82 21.333 150 64 204s96.334 81 161.001 81zM241.998 497.998c-37.333 0 -67.5 -14.667 -90.5 -44s-37.167 -67.333 -42.5 -114h242c0 48 -8.83301 86.333 -26.5 115s-45.167 43 -82.5 43zM289.998 764.998
l110 -173h-26l-118 108l-118 -108h-26l110 173h68z" />
    <glyph glyph-name="edieresis" unicode="&#xeb;" horiz-adv-x="462" 
d="M250 530c59.333 0 105.498 -18.502 138.498 -55.502s49.5 -84.5 49.5 -142.5v-21h-332c-3.33301 -78.667 11.834 -140.667 45.501 -186s77.5 -68 131.5 -68c62 0 112 29.667 150 89l12 -6c-12.667 -45.333 -36 -81.666 -70 -108.999s-76.333 -41 -127 -41
c-68.667 0 -123 24.333 -163 73s-60 109.334 -60 182.001c0 82 21.333 150 64 204s96.334 81 161.001 81zM241.998 497.998c-37.333 0 -67.5 -14.667 -90.5 -44s-37.167 -67.333 -42.5 -114h242c0 48 -8.83301 86.333 -26.5 115s-45.167 43 -82.5 43zM103.998 669.998
c0 17.333 6 32 18 44s26.333 18 43 18c17.333 0 32 -6 44 -18s18 -26.667 18 -44s-6 -32 -18 -44s-26.667 -18 -44 -18c-16.667 0 -31 6 -43 18s-18 26.667 -18 44zM284.998 669.998c0 17.333 6 32 18 44s26.333 18 43 18c17.333 0 32 -6 44 -18s18 -26.667 18 -44
s-6 -32 -18 -44s-26.667 -18 -44 -18c-16.667 0 -31 6 -43 18s-18 26.667 -18 44z" />
    <glyph glyph-name="igrave" unicode="&#xec;" horiz-adv-x="264" 
d="M180 530l0.00195312 -454c0 -19.333 4.66699 -32.166 14 -38.499s27.666 -10.166 54.999 -11.499v-26h-228v26c27.333 1.33301 45.666 5.16602 54.999 11.499s14 19.166 14 38.499v358l-65 35v11l143 50h12zM15.002 761h100l60 -169h-17l-143 164v5z" />
    <glyph glyph-name="iacute" unicode="&#xed;" horiz-adv-x="264" 
d="M180 530l0.00195312 -454c0 -19.333 4.66699 -32.166 14 -38.499s27.666 -10.166 54.999 -11.499v-26h-228v26c27.333 1.33301 45.666 5.16602 54.999 11.499s14 19.166 14 38.499v358l-65 35v11l143 50h12zM165.002 761h100v-5l-143 -164h-17z" />
    <glyph glyph-name="icircumflex" unicode="&#xee;" horiz-adv-x="264" 
d="M180 530l0.00195312 -454c0 -19.333 4.66699 -32.166 14 -38.499s27.666 -10.166 54.999 -11.499v-26h-228v26c27.333 1.33301 45.666 5.16602 54.999 11.499s14 19.166 14 38.499v358l-65 35v11l143 50h12zM162.002 765l100 -174h-24l-106 109l-107 -109h-23l99 174h61z
" />
    <glyph glyph-name="idieresis" unicode="&#xef;" horiz-adv-x="264" 
d="M-14 670c0 17.333 6 32 18 44s26.333 18 43 18c17.333 0 32 -6 44 -18s18 -26.667 18 -44s-6 -32 -18 -44s-26.667 -18 -44 -18c-16.667 0 -31 6 -43 18s-18 26.667 -18 44zM157 670c0 17.333 6 32 18 44s26.333 18 43 18c17.333 0 32 -6 44 -18s18 -26.667 18 -44
s-6 -32 -18 -44s-26.667 -18 -44 -18c-16.667 0 -31 6 -43 18s-18 26.667 -18 44zM180 530l0.00195312 -454c0 -19.333 4.66699 -32.166 14 -38.499s27.666 -10.166 54.999 -11.499v-26h-228v26c27.333 1.33301 45.666 5.16602 54.999 11.499s14 19.166 14 38.499v358
l-65 35v11l143 50h12z" />
    <glyph glyph-name="eth" unicode="&#xf0;" horiz-adv-x="518" 
d="M115 585l-11 27.999l151 58c-43.333 41.333 -91 71.333 -143 90l12 22c68 -22.667 127.333 -54 178 -94l100 38l11 -28l-84 -32c53.333 -48 94.166 -103.667 122.499 -167s42.5 -129.666 42.5 -198.999c0 -93.333 -21.333 -168.5 -64 -225.5
s-98.334 -85.5 -167.001 -85.5c-72 0 -129.833 24 -173.5 72s-65.5 111.333 -65.5 190c0 82.667 22.833 149.667 68.5 201s100.167 77 163.5 77c54.667 0 97.334 -23.667 128.001 -71c-19.333 68 -54.666 130.667 -105.999 188zM262 20.999c44 0 78 20.667 102 62
s36 96.333 36 165c0 70.667 -12.167 130.167 -36.5 178.5s-59.5 72.5 -105.5 72.5c-44 0 -78 -20.667 -102 -62s-36 -96.333 -36 -165c0 -70.667 12.167 -130.167 36.5 -178.5s59.5 -72.5 105.5 -72.5z" />
    <glyph glyph-name="ntilde" unicode="&#xf1;" horiz-adv-x="578" 
d="M407 76l0.00390625 291c0 70 -29.667 105 -89 105c-45.333 0 -91.333 -20.333 -138 -61v-335c0 -19.333 4.66699 -32.166 14 -38.499s27.666 -10.166 54.999 -11.499v-26h-228v26c27.333 1.33301 45.666 5.16602 54.999 11.499s14 19.166 14 38.499v358l-65 35v11l147 50
h12l-4 -95c57.333 63.333 118 95 182 95c90 0 135 -53.667 135 -161v-293c0 -19.333 4.66699 -32.166 14 -38.499s27.666 -10.166 54.999 -11.499v-26h-228v26c27.333 1.33301 45.666 5.16602 54.999 11.499s14 19.166 14 38.499zM359.004 601
c-18 0 -41.333 9.83301 -70 29.5s-50 29.5 -64 29.5s-26 -4.33301 -36 -13s-20.667 -23.334 -32 -44.001l-18 10c19.333 45.333 35.666 76 48.999 92s31 24 53 24c18 0 41.333 -9.83301 70 -29.5s50 -29.5 64 -29.5s26 4.33301 36 13s20.667 23.334 32 44.001l18 -10
c-19.333 -45.333 -35.666 -76 -48.999 -92s-31 -24 -53 -24z" />
    <glyph glyph-name="ograve" unicode="&#xf2;" horiz-adv-x="518" 
d="M261 21c44 0 78 20.667 102 62s36 96.333 36 165c0 70.667 -12.167 130.167 -36.5 178.5s-59.5 72.5 -105.5 72.5c-44 0 -78 -20.667 -102 -62s-36 -96.333 -36 -165c0 -70.667 12.167 -130.167 36.5 -178.5s59.5 -72.5 105.5 -72.5zM256 -10
c-70 0 -126.167 23.667 -168.5 71s-63.5 109.333 -63.5 186c0 84.667 22.667 153 68 205s102 78 170 78c69.333 0 125.333 -23.833 168 -71.5s64 -109.5 64 -185.5c0 -84.667 -22.667 -153 -68 -205s-102 -78 -170 -78zM139 761h100l60 -169h-17l-143 164v5z" />
    <glyph glyph-name="oacute" unicode="&#xf3;" horiz-adv-x="518" 
d="M261 21c44 0 78 20.667 102 62s36 96.333 36 165c0 70.667 -12.167 130.167 -36.5 178.5s-59.5 72.5 -105.5 72.5c-44 0 -78 -20.667 -102 -62s-36 -96.333 -36 -165c0 -70.667 12.167 -130.167 36.5 -178.5s59.5 -72.5 105.5 -72.5zM256 -10
c-70 0 -126.167 23.667 -168.5 71s-63.5 109.333 -63.5 186c0 84.667 22.667 153 68 205s102 78 170 78c69.333 0 125.333 -23.833 168 -71.5s64 -109.5 64 -185.5c0 -84.667 -22.667 -153 -68 -205s-102 -78 -170 -78zM289 761h100v-5l-143 -164h-17z" />
    <glyph glyph-name="ocircumflex" unicode="&#xf4;" horiz-adv-x="518" 
d="M261 21c44 0 78 20.667 102 62s36 96.333 36 165c0 70.667 -12.167 130.167 -36.5 178.5s-59.5 72.5 -105.5 72.5c-44 0 -78 -20.667 -102 -62s-36 -96.333 -36 -165c0 -70.667 12.167 -130.167 36.5 -178.5s59.5 -72.5 105.5 -72.5zM256 -10
c-70 0 -126.167 23.667 -168.5 71s-63.5 109.333 -63.5 186c0 84.667 22.667 153 68 205s102 78 170 78c69.333 0 125.333 -23.833 168 -71.5s64 -109.5 64 -185.5c0 -84.667 -22.667 -153 -68 -205s-102 -78 -170 -78zM293 765l110 -173h-26l-118 108l-118 -108h-26
l110 173h68z" />
    <glyph glyph-name="otilde" unicode="&#xf5;" horiz-adv-x="518" 
d="M261 21c44 0 78 20.667 102 62s36 96.333 36 165c0 70.667 -12.167 130.167 -36.5 178.5s-59.5 72.5 -105.5 72.5c-44 0 -78 -20.667 -102 -62s-36 -96.333 -36 -165c0 -70.667 12.167 -130.167 36.5 -178.5s59.5 -72.5 105.5 -72.5zM256 -10
c-70 0 -126.167 23.667 -168.5 71s-63.5 109.333 -63.5 186c0 84.667 22.667 153 68 205s102 78 170 78c69.333 0 125.333 -23.833 168 -71.5s64 -109.5 64 -185.5c0 -84.667 -22.667 -153 -68 -205s-102 -78 -170 -78zM323 601c-18 0 -41.333 9.83301 -70 29.5
s-50 29.5 -64 29.5s-26 -4.33301 -36 -13s-20.667 -23.334 -32 -44.001l-18 10c19.333 45.333 35.666 76 48.999 92s31 24 53 24c18 0 41.333 -9.83301 70 -29.5s50 -29.5 64 -29.5s26 4.33301 36 13s20.667 23.334 32 44.001l18 -10
c-19.333 -45.333 -35.666 -76 -48.999 -92s-31 -24 -53 -24z" />
    <glyph glyph-name="odieresis" unicode="&#xf6;" horiz-adv-x="518" 
d="M261 21c44 0 78 20.667 102 62s36 96.333 36 165c0 70.667 -12.167 130.167 -36.5 178.5s-59.5 72.5 -105.5 72.5c-44 0 -78 -20.667 -102 -62s-36 -96.333 -36 -165c0 -70.667 12.167 -130.167 36.5 -178.5s59.5 -72.5 105.5 -72.5zM256 -10
c-70 0 -126.167 23.667 -168.5 71s-63.5 109.333 -63.5 186c0 84.667 22.667 153 68 205s102 78 170 78c69.333 0 125.333 -23.833 168 -71.5s64 -109.5 64 -185.5c0 -84.667 -22.667 -153 -68 -205s-102 -78 -170 -78zM107 670c0 17.333 6 32 18 44s26.333 18 43 18
c17.333 0 32 -6 44 -18s18 -26.667 18 -44s-6 -32 -18 -44s-26.667 -18 -44 -18c-16.667 0 -31 6 -43 18s-18 26.667 -18 44zM288 670c0 17.333 6 32 18 44s26.333 18 43 18c17.333 0 32 -6 44 -18s18 -26.667 18 -44s-6 -32 -18 -44s-26.667 -18 -44 -18
c-16.667 0 -31 6 -43 18s-18 26.667 -18 44z" />
    <glyph glyph-name="divide" unicode="&#xf7;" horiz-adv-x="564" 
d="M63 345v52h438v-52h-438zM229 208c0 14.667 5 27 15 37s22.333 15 37 15s27 -5 37 -15s15 -22.333 15 -37s-5 -27 -15 -37s-22.333 -15 -37 -15s-27 5 -37 15s-15 22.333 -15 37zM229 534c0 14.667 5 27 15 37s22.333 15 37 15s27 -5 37 -15s15 -22.333 15 -37
s-5 -27 -15 -37s-22.333 -15 -37 -15s-27 5 -37 15s-15 22.333 -15 37z" />
    <glyph glyph-name="oslash" unicode="&#xf8;" horiz-adv-x="518" 
d="M256 -10c-49.333 0 -92.667 12.334 -130 37.001l-47 -74l-25 15l49 77c-52.667 47.333 -79 114.666 -79 201.999c0 84.667 22.667 153 68 205s102 78 170 78c48 0 90.667 -12.333 128 -37l50 77l25 -15l-52 -80c54 -48.667 81 -116 81 -202
c0 -84.667 -22.667 -153 -68 -205s-102 -78 -170 -78zM260.999 21.001c44 0 78 20.668 102 62.001s36 96.333 36 165c0 63.333 -9.33301 116.666 -28 159.999l-210 -326c24.667 -40.667 58 -61 100 -61zM118.999 272.002c0 -61.333 9 -114.667 27 -160l209 326
c-25.333 40.667 -58 61 -98 61c-44 0 -78 -20.667 -102 -62s-36 -96.333 -36 -165z" />
    <glyph glyph-name="ugrave" unicode="&#xf9;" horiz-adv-x="552" 
d="M468 423l-0.000976562 -326.004c0 -18 2.33301 -29.5 7 -34.5s18 -8.83301 40 -11.5l26 -3v-21l-151 -37h-15l4 94c-30 -30 -58.167 -53.167 -84.5 -69.5s-55.166 -24.5 -86.499 -24.5c-91.333 0 -137 52 -137 156v277c0 18.667 -3.33301 31.334 -10 38.001
s-21.667 11.334 -45 14.001l-16 2v23l154 28h11l-5 -109v-255c0 -76.667 29.667 -115 89 -115c38.667 0 82 19 130 57v317c0 18.667 -3.33301 31.334 -10 38.001s-21.667 11.334 -45 14.001l-15 2v23l152 28h11zM153.999 760.996h100l60 -169h-17l-143 164v5z" />
    <glyph glyph-name="uacute" unicode="&#xfa;" horiz-adv-x="552" 
d="M468 423l-0.000976562 -326.004c0 -18 2.33301 -29.5 7 -34.5s18 -8.83301 40 -11.5l26 -3v-21l-151 -37h-15l4 94c-30 -30 -58.167 -53.167 -84.5 -69.5s-55.166 -24.5 -86.499 -24.5c-91.333 0 -137 52 -137 156v277c0 18.667 -3.33301 31.334 -10 38.001
s-21.667 11.334 -45 14.001l-16 2v23l154 28h11l-5 -109v-255c0 -76.667 29.667 -115 89 -115c38.667 0 82 19 130 57v317c0 18.667 -3.33301 31.334 -10 38.001s-21.667 11.334 -45 14.001l-15 2v23l152 28h11zM303.999 760.996h100v-5l-143 -164h-17z" />
    <glyph glyph-name="ucircumflex" unicode="&#xfb;" horiz-adv-x="552" 
d="M468 423l-0.000976562 -326.004c0 -18 2.33301 -29.5 7 -34.5s18 -8.83301 40 -11.5l26 -3v-21l-151 -37h-15l4 94c-30 -30 -58.167 -53.167 -84.5 -69.5s-55.166 -24.5 -86.499 -24.5c-91.333 0 -137 52 -137 156v277c0 18.667 -3.33301 31.334 -10 38.001
s-21.667 11.334 -45 14.001l-16 2v23l154 28h11l-5 -109v-255c0 -76.667 29.667 -115 89 -115c38.667 0 82 19 130 57v317c0 18.667 -3.33301 31.334 -10 38.001s-21.667 11.334 -45 14.001l-15 2v23l152 28h11zM307.999 764.996l110 -173h-26l-118 108l-118 -108h-26
l110 173h68z" />
    <glyph glyph-name="udieresis" unicode="&#xfc;" horiz-adv-x="552" 
d="M468 423l-0.000976562 -326.004c0 -18 2.33301 -29.5 7 -34.5s18 -8.83301 40 -11.5l26 -3v-21l-151 -37h-15l4 94c-30 -30 -58.167 -53.167 -84.5 -69.5s-55.166 -24.5 -86.499 -24.5c-91.333 0 -137 52 -137 156v277c0 18.667 -3.33301 31.334 -10 38.001
s-21.667 11.334 -45 14.001l-16 2v23l154 28h11l-5 -109v-255c0 -76.667 29.667 -115 89 -115c38.667 0 82 19 130 57v317c0 18.667 -3.33301 31.334 -10 38.001s-21.667 11.334 -45 14.001l-15 2v23l152 28h11zM121.999 669.996c0 17.333 6 32 18 44s26.333 18 43 18
c17.333 0 32 -6 44 -18s18 -26.667 18 -44s-6 -32 -18 -44s-26.667 -18 -44 -18c-16.667 0 -31 6 -43 18s-18 26.667 -18 44zM302.999 669.996c0 17.333 6 32 18 44s26.333 18 43 18c17.333 0 32 -6 44 -18s18 -26.667 18 -44s-6 -32 -18 -44s-26.667 -18 -44 -18
c-16.667 0 -31 6 -43 18s-18 26.667 -18 44z" />
    <glyph glyph-name="yacute" unicode="&#xfd;" horiz-adv-x="525" 
d="M298 94l124.997 339.999c4 10.667 6 19.667 6 27c0 11.333 -4.66699 18.833 -14 22.5s-28 7.16699 -56 10.5v26h161v-26c-17.333 -4 -29.166 -8.5 -35.499 -13.5s-11.5 -12.833 -15.5 -23.5l-212 -561c-15.333 -39.333 -31.666 -68.166 -48.999 -86.499
s-40.333 -27.5 -69 -27.5c-16 0 -31 4.5 -45 13.5s-23 21.167 -27 36.5v29c20.667 -6 40 -9 58 -9c28.667 0 51.834 5.83301 69.501 17.5s32.167 33.5 43.5 65.5l19 51l-201 471c-4.66699 11.333 -10 19.333 -16 24s-17.667 9 -35 13v26h221v-26
c-28 -3.33301 -46.667 -6.83301 -56 -10.5s-14 -11.167 -14 -22.5c0 -6.66699 2 -16 6 -28zM313.997 760.999h100v-5l-143 -164h-17z" />
    <glyph glyph-name="thorn" unicode="&#xfe;" horiz-adv-x="555" 
d="M441 249c0 40 -4.83301 76.167 -14.5 108.5s-26.667 59.5 -51 81.5s-54.5 33 -90.5 33c-48 0 -87.667 -18 -119 -54v-273c0 -84 38 -126 114 -126c48 0 86.833 21.833 116.5 65.5s44.5 98.5 44.5 164.5zM76 -136l0.000976562 823.001l-65 35v11l143 50h12v-342
c43.333 59.333 99.333 89 168 89c62 0 110.333 -21.667 145 -65s52 -101.666 52 -174.999c0 -90 -24 -162.5 -72 -217.5s-107.667 -82.5 -179 -82.5c-48 0 -86 12 -114 36v-160c0 -20 5.83301 -33 17.5 -39s35.5 -10.333 71.5 -13v-26h-248v26
c27.333 1.33301 45.666 5.16602 54.999 11.499s14 19.166 14 38.499z" />
    <glyph glyph-name="ydieresis" unicode="&#xff;" horiz-adv-x="525" 
d="M298 94l124.997 339.999c4 10.667 6 19.667 6 27c0 11.333 -4.66699 18.833 -14 22.5s-28 7.16699 -56 10.5v26h161v-26c-17.333 -4 -29.166 -8.5 -35.499 -13.5s-11.5 -12.833 -15.5 -23.5l-212 -561c-15.333 -39.333 -31.666 -68.166 -48.999 -86.499
s-40.333 -27.5 -69 -27.5c-16 0 -31 4.5 -45 13.5s-23 21.167 -27 36.5v29c20.667 -6 40 -9 58 -9c28.667 0 51.834 5.83301 69.501 17.5s32.167 33.5 43.5 65.5l19 51l-201 471c-4.66699 11.333 -10 19.333 -16 24s-17.667 9 -35 13v26h221v-26
c-28 -3.33301 -46.667 -6.83301 -56 -10.5s-14 -11.167 -14 -22.5c0 -6.66699 2 -16 6 -28zM131.997 669.999c0 17.333 6 32 18 44s26.333 18 43 18c17.333 0 32 -6 44 -18s18 -26.667 18 -44s-6 -32 -18 -44s-26.667 -18 -44 -18c-16.667 0 -31 6 -43 18s-18 26.667 -18 44
zM312.997 669.999c0 17.333 6 32 18 44s26.333 18 43 18c17.333 0 32 -6 44 -18s18 -26.667 18 -44s-6 -32 -18 -44s-26.667 -18 -44 -18c-16.667 0 -31 6 -43 18s-18 26.667 -18 44z" />
    <glyph glyph-name="Amacron" unicode="&#x100;" horiz-adv-x="696" 
d="M515 110l-56 135.998h-285l-53 -135c-6.66699 -16.667 -10 -30 -10 -40c0 -15.333 6.66699 -26.166 20 -32.499s37 -10.166 71 -11.499v-27h-197v27c32 4.66699 51.667 17 59 37l230 581l-28 66h100l266 -647c8 -20 27.667 -32.333 59 -37v-27h-256v27
c34 1.33301 57.5 5 70.5 11s19.5 16.667 19.5 32c0 10 -3.33301 23.333 -10 40zM314 602.998l-128 -325h260zM193 772.998v49h282v-49h-282z" />
    <glyph glyph-name="amacron" unicode="&#x101;" horiz-adv-x="492" 
d="M204 49c32 0 69.333 17.668 112 53.001v188l-120 -49c-26.667 -10.667 -46.5 -23.834 -59.5 -39.501s-19.5 -36.167 -19.5 -61.5c0 -28 7.5 -50.167 22.5 -66.5s36.5 -24.5 64.5 -24.5zM407 376.001l-0.000976562 -265.001c0 -44 13 -66 39 -66
c12 0 27.333 4.33301 46 13l5 -15c-23.333 -35.333 -55.333 -53 -96 -53c-24 0 -43.167 8 -57.5 24s-22.833 38.333 -25.5 67c-52 -60.667 -105.667 -91 -161 -91c-38.667 0 -69.5 11.5 -92.5 34.5s-34.5 53.167 -34.5 90.5c0 38.667 12 68.834 36 90.501
s59.333 41.167 106 58.5l144 54v68c0 79.333 -30.667 119 -92 119c-27.333 0 -47.666 -8.16699 -60.999 -24.5s-20 -37.833 -20 -64.5c0 -16 2.33301 -33.333 7 -52l-53 -8c-26 8 -39 26.333 -39 55c0 36.667 16.833 65.667 50.5 87s76.5 32 128.5 32
c113.333 0 170 -51.333 170 -154zM113.999 623v49h251v-49h-251z" />
    <glyph glyph-name="Abreve" unicode="&#x102;" horiz-adv-x="696" 
d="M515 110l-56 135.998h-285l-53 -135c-6.66699 -16.667 -10 -30 -10 -40c0 -15.333 6.66699 -26.166 20 -32.499s37 -10.166 71 -11.499v-27h-197v27c32 4.66699 51.667 17 59 37l230 581l-28 66h100l266 -647c8 -20 27.667 -32.333 59 -37v-27h-256v27
c34 1.33301 57.5 5 70.5 11s19.5 16.667 19.5 32c0 10 -3.33301 23.333 -10 40zM314 602.998l-128 -325h260zM334 747.998c-44 0 -78.5 13.167 -103.5 39.5s-37.5 65.5 -37.5 117.5h26c8.66699 -62.667 47 -94 115 -94s106.333 31.333 115 94h26
c0 -52 -12.5 -91.167 -37.5 -117.5s-59.5 -39.5 -103.5 -39.5z" />
    <glyph glyph-name="abreve" unicode="&#x103;" horiz-adv-x="492" 
d="M204 49c32 0 69.333 17.668 112 53.001v188l-120 -49c-26.667 -10.667 -46.5 -23.834 -59.5 -39.501s-19.5 -36.167 -19.5 -61.5c0 -28 7.5 -50.167 22.5 -66.5s36.5 -24.5 64.5 -24.5zM407 376.001l-0.000976562 -265.001c0 -44 13 -66 39 -66
c12 0 27.333 4.33301 46 13l5 -15c-23.333 -35.333 -55.333 -53 -96 -53c-24 0 -43.167 8 -57.5 24s-22.833 38.333 -25.5 67c-52 -60.667 -105.667 -91 -161 -91c-38.667 0 -69.5 11.5 -92.5 34.5s-34.5 53.167 -34.5 90.5c0 38.667 12 68.834 36 90.501
s59.333 41.167 106 58.5l144 54v68c0 79.333 -30.667 119 -92 119c-27.333 0 -47.666 -8.16699 -60.999 -24.5s-20 -37.833 -20 -64.5c0 -16 2.33301 -33.333 7 -52l-53 -8c-26 8 -39 26.333 -39 55c0 36.667 16.833 65.667 50.5 87s76.5 32 128.5 32
c113.333 0 170 -51.333 170 -154zM238.999 596c-84 0 -126 53 -126 159h29c4.66699 -64 37 -96 97 -96s92.333 32 97 96h29c0 -106 -42 -159 -126 -159z" />
    <glyph glyph-name="Aogonek" unicode="&#x104;" horiz-adv-x="696" 
d="M314 603l-128 -325h260zM453 14c28 6.66699 46.999 13.8301 56.999 21.4971s15 19.167 15 34.5c0 10 -3.33301 23.333 -10 40l-56 136h-285l-53 -135c-6.66699 -16.667 -10 -30 -10 -40c0 -15.333 6.66699 -26.166 20 -32.499s37 -10.166 71 -11.499v-27h-197v27
c32 4.66699 51.667 17 59 37l230 581l-28 66h100l266 -647c8 -20 27.667 -32.333 59 -37v-27h-214c-36 -5.33301 -65 -17.833 -87 -37.5s-33 -44.5 -33 -74.5c0 -34.667 16.333 -52 49 -52c28.667 0 57 12 85 36l10 -11c-38 -47.333 -79.333 -71 -124 -71
c-25.333 0 -45.666 7.5 -60.999 22.5s-23 34.5 -23 58.5c0 36.667 14.833 66.834 44.5 90.501s68.167 41.167 115.5 52.5z" />
    <glyph glyph-name="aogonek" unicode="&#x105;" horiz-adv-x="492" 
d="M407 376l-0.00195312 -265.001c0 -44 13 -66 39 -66c12 0 27.333 4.33301 46 13l5 -15c-10.667 -9.33301 -31.667 -22 -63 -38s-56.166 -33 -74.499 -51s-27.5 -40 -27.5 -66c0 -34.667 16.333 -52 49 -52c28.667 0 57 12 85 36l10 -11c-38 -47.333 -79.333 -71 -124 -71
c-25.333 0 -45.833 7.5 -61.5 22.5s-23.5 34.167 -23.5 57.5c0 46 37.333 87 112 123c-16.667 5.33301 -30.5 15.833 -41.5 31.5s-17.5 34.5 -19.5 56.5c-52 -60.667 -105.667 -91 -161 -91c-38.667 0 -69.5 11.5 -92.5 34.5s-34.5 53.167 -34.5 90.5
c0 38.667 12 68.834 36 90.501s59.333 41.167 106 58.5l144 54v68c0 79.333 -30.667 119 -92 119c-27.333 0 -47.666 -8.16699 -60.999 -24.5s-20 -37.833 -20 -64.5c0 -16 2.33301 -33.333 7 -52l-53 -8c-26 8 -39 26.333 -39 55c0 36.667 16.833 65.667 50.5 87
s76.5 32 128.5 32c113.333 0 170 -51.333 170 -154zM203.998 48.999c32 0 69.333 17.668 112 53.001v188l-120 -49c-26.667 -10.667 -46.5 -23.834 -59.5 -39.501s-19.5 -36.167 -19.5 -61.5c0 -28 7.5 -50.167 22.5 -66.5s36.5 -24.5 64.5 -24.5z" />
    <glyph glyph-name="Cacute" unicode="&#x106;" horiz-adv-x="628" 
d="M362 712c84 0 156.331 -19.666 216.998 -58.999v-146h-27c-10.667 56.667 -32.167 99.5 -64.5 128.5s-74.166 43.5 -125.499 43.5c-72.667 0 -128.667 -29.833 -168 -89.5s-59 -134.834 -59 -225.501c0 -98 20.833 -179.333 62.5 -244s99.167 -97 172.5 -97
c54 0 97.167 15.833 129.5 47.5s55.833 82.167 70.5 151.5h30l-13 -178c-63.333 -36 -135.666 -54 -216.999 -54c-102.667 0 -184.5 32 -245.5 96s-91.5 147.333 -91.5 250c0 112.667 30.833 203.5 92.5 272.5s140.5 103.5 236.5 103.5zM396.998 900.001h105v-5l-143 -144
h-17z" />
    <glyph glyph-name="cacute" unicode="&#x107;" horiz-adv-x="440" 
d="M104 286c0 -67.333 15 -121.666 45 -162.999s70.667 -62 122 -62c61.333 0 110 27.667 146 83l12 -6c-15.333 -47.333 -39 -83.833 -71 -109.5s-70.667 -38.5 -116 -38.5c-64.667 0 -117.167 23.167 -157.5 69.5s-60.5 107.166 -60.5 182.499
c0 83.333 22 152.166 66 206.499s102.667 81.5 176 81.5c46.667 0 83.167 -9.5 109.5 -28.5s39.5 -44.833 39.5 -77.5c0 -28.667 -10.667 -49 -32 -61h-57c2.66699 14.667 4 28.667 4 42c0 62.667 -27.333 94 -82 94c-44 0 -79 -20.167 -105 -60.5s-39 -91.166 -39 -152.499
zM290 761h100v-5l-143 -164h-17z" />
    <glyph glyph-name="Ccircumflex" unicode="&#x108;" horiz-adv-x="628" 
d="M362 712c84 0 156.331 -19.666 216.998 -58.999v-146h-27c-10.667 56.667 -32.167 99.5 -64.5 128.5s-74.166 43.5 -125.499 43.5c-72.667 0 -128.667 -29.833 -168 -89.5s-59 -134.834 -59 -225.501c0 -98 20.833 -179.333 62.5 -244s99.167 -97 172.5 -97
c54 0 97.167 15.833 129.5 47.5s55.833 82.167 70.5 151.5h30l-13 -178c-63.333 -36 -135.666 -54 -216.999 -54c-102.667 0 -184.5 32 -245.5 96s-91.5 147.333 -91.5 250c0 112.667 30.833 203.5 92.5 272.5s140.5 103.5 236.5 103.5zM405.998 910.001l130 -159h-23
l-141 94l-141 -94h-23l130 159h68z" />
    <glyph glyph-name="ccircumflex" unicode="&#x109;" horiz-adv-x="440" 
d="M104 286c0 -67.333 15 -121.666 45 -162.999s70.667 -62 122 -62c61.333 0 110 27.667 146 83l12 -6c-15.333 -47.333 -39 -83.833 -71 -109.5s-70.667 -38.5 -116 -38.5c-64.667 0 -117.167 23.167 -157.5 69.5s-60.5 107.166 -60.5 182.499
c0 83.333 22 152.166 66 206.499s102.667 81.5 176 81.5c46.667 0 83.167 -9.5 109.5 -28.5s39.5 -44.833 39.5 -77.5c0 -28.667 -10.667 -49 -32 -61h-57c2.66699 14.667 4 28.667 4 42c0 62.667 -27.333 94 -82 94c-44 0 -79 -20.167 -105 -60.5s-39 -91.166 -39 -152.499
zM294 765l110 -173h-26l-118 108l-118 -108h-26l110 173h68z" />
    <glyph glyph-name="Cdotaccent" unicode="&#x10a;" horiz-adv-x="628" 
d="M362 712c84 0 156.331 -19.666 216.998 -58.999v-146h-27c-10.667 56.667 -32.167 99.5 -64.5 128.5s-74.166 43.5 -125.499 43.5c-72.667 0 -128.667 -29.833 -168 -89.5s-59 -134.834 -59 -225.501c0 -98 20.833 -179.333 62.5 -244s99.167 -97 172.5 -97
c54 0 97.167 15.833 129.5 47.5s55.833 82.167 70.5 151.5h30l-13 -178c-63.333 -36 -135.666 -54 -216.999 -54c-102.667 0 -184.5 32 -245.5 96s-91.5 147.333 -91.5 250c0 112.667 30.833 203.5 92.5 272.5s140.5 103.5 236.5 103.5zM371.998 757.001
c-17.333 0 -32.166 6.33301 -44.499 19s-18.5 27.667 -18.5 45s6.16699 32.333 18.5 45s27.166 19 44.499 19c18 0 33.167 -6.33301 45.5 -19s18.5 -27.667 18.5 -45s-6.16699 -32.333 -18.5 -45s-27.5 -19 -45.5 -19z" />
    <glyph glyph-name="cdotaccent" unicode="&#x10b;" horiz-adv-x="440" 
d="M104 286c0 -67.333 15 -121.666 45 -162.999s70.667 -62 122 -62c61.333 0 110 27.667 146 83l12 -6c-15.333 -47.333 -39 -83.833 -71 -109.5s-70.667 -38.5 -116 -38.5c-64.667 0 -117.167 23.167 -157.5 69.5s-60.5 107.166 -60.5 182.499
c0 83.333 22 152.166 66 206.499s102.667 81.5 176 81.5c46.667 0 83.167 -9.5 109.5 -28.5s39.5 -44.833 39.5 -77.5c0 -28.667 -10.667 -49 -32 -61h-57c2.66699 14.667 4 28.667 4 42c0 62.667 -27.333 94 -82 94c-44 0 -79 -20.167 -105 -60.5s-39 -91.166 -39 -152.499
zM260 608c-17.333 0 -32.166 6.33301 -44.499 19s-18.5 27.667 -18.5 45s6.16699 32.333 18.5 45s27.166 19 44.499 19c18 0 33.167 -6.33301 45.5 -19s18.5 -27.667 18.5 -45s-6.16699 -32.333 -18.5 -45s-27.5 -19 -45.5 -19z" />
    <glyph glyph-name="Ccaron" unicode="&#x10c;" horiz-adv-x="628" 
d="M362 712c84 0 156.331 -19.666 216.998 -58.999v-146h-27c-10.667 56.667 -32.167 99.5 -64.5 128.5s-74.166 43.5 -125.499 43.5c-72.667 0 -128.667 -29.833 -168 -89.5s-59 -134.834 -59 -225.501c0 -98 20.833 -179.333 62.5 -244s99.167 -97 172.5 -97
c54 0 97.167 15.833 129.5 47.5s55.833 82.167 70.5 151.5h30l-13 -178c-63.333 -36 -135.666 -54 -216.999 -54c-102.667 0 -184.5 32 -245.5 96s-91.5 147.333 -91.5 250c0 112.667 30.833 203.5 92.5 272.5s140.5 103.5 236.5 103.5zM535.998 910.001l-130 -159h-68
l-130 159h23l141 -94l141 94h23z" />
    <glyph glyph-name="ccaron" unicode="&#x10d;" horiz-adv-x="440" 
d="M104 286c0 -67.333 15 -121.666 45 -162.999s70.667 -62 122 -62c61.333 0 110 27.667 146 83l12 -6c-15.333 -47.333 -39 -83.833 -71 -109.5s-70.667 -38.5 -116 -38.5c-64.667 0 -117.167 23.167 -157.5 69.5s-60.5 107.166 -60.5 182.499
c0 83.333 22 152.166 66 206.499s102.667 81.5 176 81.5c46.667 0 83.167 -9.5 109.5 -28.5s39.5 -44.833 39.5 -77.5c0 -28.667 -10.667 -49 -32 -61h-57c2.66699 14.667 4 28.667 4 42c0 62.667 -27.333 94 -82 94c-44 0 -79 -20.167 -105 -60.5s-39 -91.166 -39 -152.499
zM404 766l-110 -173h-68l-110 173h26l118 -108l118 108h26z" />
    <glyph glyph-name="Dcaron" unicode="&#x10e;" horiz-adv-x="707" 
d="M294 669h-83.999v-565c0 -28 6.66699 -46.833 20 -56.5s36.333 -14.5 69 -14.5h27c72.667 0 131.5 27.167 176.5 81.5s67.5 132.166 67.5 233.499c0 43.333 -5 83.5 -15 120.5s-25.333 70.833 -46 101.5s-49.334 54.834 -86.001 72.501s-79.667 26.5 -129 26.5z
M326.001 0l-297.999 -0.00195312v27c38.667 4.66699 63 10.834 73 18.501s15 25.167 15 52.5v506c0 27.333 -5 44.833 -15 52.5s-34.333 13.834 -73 18.501v27h284c60.667 0 114.667 -9 162 -27s85.333 -42.5 114 -73.5s50.167 -66 64.5 -105s21.5 -80.833 21.5 -125.5
c0 -114.667 -33.333 -205.167 -100 -271.5s-149.334 -99.5 -248.001 -99.5zM491.002 909.998l-130 -159h-68l-130 159h23l141 -94l141 94h23z" />
    <glyph glyph-name="dcaron" unicode="&#x10f;" horiz-adv-x="559" 
d="M268 502c-48 0 -86.498 -20.834 -115.498 -62.501s-43.5 -96.5 -43.5 -164.5c0 -64 14 -116.5 42 -157.5s67.667 -61.5 119 -61.5c47.333 0 85.666 16.333 114.999 49v250c0 44.667 -10.833 80.334 -32.5 107.001s-49.834 40 -84.501 40zM385.002 686.999l-65.002 35v11
l143 50h12v-686c0 -18 2.33301 -29.5 7 -34.5s18 -8.83301 40 -11.5l26 -3v-21l-152 -37h-15l4 92c-47.333 -61.333 -100.666 -92 -159.999 -92c-61.333 0 -110.166 22.833 -146.499 68.5s-54.5 104.5 -54.5 176.5c0 89.333 23 160.833 69 214.5s104.333 80.5 175 80.5
c49.333 0 88.333 -13.333 117 -40v197zM630 777.999l-104 -200h-11l20 205h95v-5z" />
    <glyph glyph-name="Dcroat" unicode="&#x110;" horiz-adv-x="717" 
d="M38 346l0.000976562 33.998h88v224c0 27.333 -5 44.833 -15 52.5s-34.333 13.834 -73 18.501v27h284c60.667 0 114.667 -9 162 -27s85.333 -42.5 114 -73.5s50.167 -66 64.5 -105s21.5 -80.833 21.5 -125.5c0 -114.667 -33.333 -205.167 -100 -271.5
s-149.334 -99.5 -248.001 -99.5h-298v27c38.667 4.66699 63 10.834 73 18.501s15 25.167 15 52.5v248h-88zM304.001 668.998h-83.999v-289h143v-34h-143v-242c0 -28 6.66699 -46.833 20 -56.5s36.333 -14.5 69 -14.5h27c72.667 0 131.5 27.167 176.5 81.5
s67.5 132.166 67.5 233.499c0 43.333 -5 83.5 -15 120.5s-25.333 70.833 -46 101.5s-49.334 54.834 -86.001 72.501s-79.667 26.5 -129 26.5z" />
    <glyph glyph-name="dcroat" unicode="&#x111;" horiz-adv-x="559" 
d="M385 687l-65.002 35v11l143 50h12v-155h73v-32h-73v-499c0 -18 2.33301 -29.5 7 -34.5s18 -8.83301 40 -11.5l26 -3v-21l-152 -37h-15l4 92c-47.333 -61.333 -100.666 -92 -159.999 -92c-61.333 0 -110.166 22.833 -146.499 68.5s-54.5 104.5 -54.5 176.5
c0 89.333 23 160.833 69 214.5s104.333 80.5 175 80.5c49.333 0 88.333 -13.333 117 -40v106h-128v32h128v59zM267.998 502c-48 0 -86.498 -20.834 -115.498 -62.501s-43.5 -96.5 -43.5 -164.5c0 -64 14 -116.5 42 -157.5s67.667 -61.5 119 -61.5
c47.333 0 85.666 16.333 114.999 49v250c0 44.667 -10.833 80.334 -32.5 107.001s-49.834 40 -84.501 40z" />
    <glyph glyph-name="Emacron" unicode="&#x112;" horiz-adv-x="614" 
d="M28 0l0.000976562 27c38.667 4.66699 63 10.834 73 18.501s15 25.167 15 52.5v506c0 27.333 -5 44.833 -15 52.5s-34.333 13.834 -73 18.501v27h522l5 -167h-20c-22 52.667 -43.167 88.167 -63.5 106.5s-47.833 27.5 -82.5 27.5h-179v-290h159
c20.667 0 36.167 7.16699 46.5 21.5s18.5 37.166 24.5 68.499h27v-213h-27c-6 31.333 -14.167 54.166 -24.5 68.499s-25.833 21.5 -46.5 21.5h-159v-245c0 -26 7.33301 -43.833 22 -53.5s40 -14.5 76 -14.5h92c34 0 62.167 10.5 84.5 31.5s50.166 59.5 83.499 115.5h24
l-30 -180h-534zM187.001 773v49h282v-49h-282z" />
    <glyph glyph-name="emacron" unicode="&#x113;" horiz-adv-x="462" 
d="M250 530c59.333 0 105.498 -18.502 138.498 -55.502s49.5 -84.5 49.5 -142.5v-21h-332c-3.33301 -78.667 11.834 -140.667 45.501 -186s77.5 -68 131.5 -68c62 0 112 29.667 150 89l12 -6c-12.667 -45.333 -36 -81.666 -70 -108.999s-76.333 -41 -127 -41
c-68.667 0 -123 24.333 -163 73s-60 109.334 -60 182.001c0 82 21.333 150 64 204s96.334 81 161.001 81zM241.998 497.998c-37.333 0 -67.5 -14.667 -90.5 -44s-37.167 -67.333 -42.5 -114h242c0 48 -8.83301 86.333 -26.5 115s-45.167 43 -82.5 43zM125.998 622.998v49
h251v-49h-251z" />
    <glyph glyph-name="Ebreve" unicode="&#x114;" horiz-adv-x="614" 
d="M28 0l0.000976562 27c38.667 4.66699 63 10.834 73 18.501s15 25.167 15 52.5v506c0 27.333 -5 44.833 -15 52.5s-34.333 13.834 -73 18.501v27h522l5 -167h-20c-22 52.667 -43.167 88.167 -63.5 106.5s-47.833 27.5 -82.5 27.5h-179v-290h159
c20.667 0 36.167 7.16699 46.5 21.5s18.5 37.166 24.5 68.499h27v-213h-27c-6 31.333 -14.167 54.166 -24.5 68.499s-25.833 21.5 -46.5 21.5h-159v-245c0 -26 7.33301 -43.833 22 -53.5s40 -14.5 76 -14.5h92c34 0 62.167 10.5 84.5 31.5s50.166 59.5 83.499 115.5h24
l-30 -180h-534zM328.001 748c-44 0 -78.5 13.167 -103.5 39.5s-37.5 65.5 -37.5 117.5h26c8.66699 -62.667 47 -94 115 -94s106.333 31.333 115 94h26c0 -52 -12.5 -91.167 -37.5 -117.5s-59.5 -39.5 -103.5 -39.5z" />
    <glyph glyph-name="ebreve" unicode="&#x115;" horiz-adv-x="462" 
d="M250 530c59.333 0 105.498 -18.502 138.498 -55.502s49.5 -84.5 49.5 -142.5v-21h-332c-3.33301 -78.667 11.834 -140.667 45.501 -186s77.5 -68 131.5 -68c62 0 112 29.667 150 89l12 -6c-12.667 -45.333 -36 -81.666 -70 -108.999s-76.333 -41 -127 -41
c-68.667 0 -123 24.333 -163 73s-60 109.334 -60 182.001c0 82 21.333 150 64 204s96.334 81 161.001 81zM241.998 497.998c-37.333 0 -67.5 -14.667 -90.5 -44s-37.167 -67.333 -42.5 -114h242c0 48 -8.83301 86.333 -26.5 115s-45.167 43 -82.5 43zM260.998 595.998
c-84 0 -126 53 -126 159h29c4.66699 -64 37 -96 97 -96s92.333 32 97 96h29c0 -106 -42 -159 -126 -159z" />
    <glyph glyph-name="Edotaccent" unicode="&#x116;" horiz-adv-x="614" 
d="M28 0l0.000976562 27c38.667 4.66699 63 10.834 73 18.501s15 25.167 15 52.5v506c0 27.333 -5 44.833 -15 52.5s-34.333 13.834 -73 18.501v27h522l5 -167h-20c-22 52.667 -43.167 88.167 -63.5 106.5s-47.833 27.5 -82.5 27.5h-179v-290h159
c20.667 0 36.167 7.16699 46.5 21.5s18.5 37.166 24.5 68.499h27v-213h-27c-6 31.333 -14.167 54.166 -24.5 68.499s-25.833 21.5 -46.5 21.5h-159v-245c0 -26 7.33301 -43.833 22 -53.5s40 -14.5 76 -14.5h92c34 0 62.167 10.5 84.5 31.5s50.166 59.5 83.499 115.5h24
l-30 -180h-534zM328.001 757c-17.333 0 -32.166 6.33301 -44.499 19s-18.5 27.667 -18.5 45s6.16699 32.333 18.5 45s27.166 19 44.499 19c18 0 33.167 -6.33301 45.5 -19s18.5 -27.667 18.5 -45s-6.16699 -32.333 -18.5 -45s-27.5 -19 -45.5 -19z" />
    <glyph glyph-name="edotaccent" unicode="&#x117;" horiz-adv-x="462" 
d="M250 530c59.333 0 105.498 -18.502 138.498 -55.502s49.5 -84.5 49.5 -142.5v-21h-332c-3.33301 -78.667 11.834 -140.667 45.501 -186s77.5 -68 131.5 -68c62 0 112 29.667 150 89l12 -6c-12.667 -45.333 -36 -81.666 -70 -108.999s-76.333 -41 -127 -41
c-68.667 0 -123 24.333 -163 73s-60 109.334 -60 182.001c0 82 21.333 150 64 204s96.334 81 161.001 81zM241.998 497.998c-37.333 0 -67.5 -14.667 -90.5 -44s-37.167 -67.333 -42.5 -114h242c0 48 -8.83301 86.333 -26.5 115s-45.167 43 -82.5 43zM252.998 607.998
c-17.333 0 -32.166 6.33301 -44.499 19s-18.5 27.667 -18.5 45s6.16699 32.333 18.5 45s27.166 19 44.499 19c18 0 33.167 -6.33301 45.5 -19s18.5 -27.667 18.5 -45s-6.16699 -32.333 -18.5 -45s-27.5 -19 -45.5 -19z" />
    <glyph glyph-name="Eogonek" unicode="&#x118;" horiz-adv-x="614" 
d="M28 0l0.000976562 27.001c38.667 4.66699 63 10.834 73 18.501s15 25.167 15 52.5v506c0 27.333 -5 44.833 -15 52.5s-34.333 13.834 -73 18.501v27h522l5 -167h-20c-22 52.667 -43.167 88.167 -63.5 106.5s-47.833 27.5 -82.5 27.5h-179v-290h159
c20.667 0 36.167 7.16699 46.5 21.5s18.5 37.166 24.5 68.499h27v-213h-27c-6 31.333 -14.167 54.166 -24.5 68.499s-25.833 21.5 -46.5 21.5h-159v-245c0 -26 7.33301 -43.833 22 -53.5s40 -14.5 76 -14.5h92c34 0 62.167 10.5 84.5 31.5s50.166 59.5 83.499 115.5h24
l-30 -180h-94c-67.333 -30.667 -101 -68 -101 -112c0 -34.667 16.333 -52 49 -52c28.667 0 57 12 85 36l10 -11c-38 -47.333 -79.333 -71 -124 -71c-25.333 0 -45.833 7.5 -61.5 22.5s-23.5 34.167 -23.5 57.5c0 51.333 42.667 94.666 128 129.999h-402z" />
    <glyph glyph-name="eogonek" unicode="&#x119;" horiz-adv-x="462" 
d="M250 530c59.333 0 105.498 -18.5 138.498 -55.5s49.5 -84.5 49.5 -142.5v-21h-332c-3.33301 -78.667 11.834 -140.667 45.501 -186s77.5 -68 131.5 -68c62 0 112 29.667 150 89l12 -6c-18 -66.667 -60 -113 -126 -139c-68.667 -26.667 -103 -64.334 -103 -113.001
c0 -34.667 16.333 -52 49 -52c28.667 0 57 12 85 36l10 -11c-38 -47.333 -79.333 -71 -124 -71c-25.333 0 -45.833 7.5 -61.5 22.5s-23.5 34.167 -23.5 57.5c0 47.333 36.667 87.333 110 120h-13c-68.667 0 -123 24.333 -163 73s-60 109.334 -60 182.001
c0 82 21.333 150 64 204s96.334 81 161.001 81zM241.998 498c-37.333 0 -67.5 -14.667 -90.5 -44s-37.167 -67.333 -42.5 -114h242c0 48 -8.83301 86.333 -26.5 115s-45.167 43 -82.5 43z" />
    <glyph glyph-name="Ecaron" unicode="&#x11a;" horiz-adv-x="614" 
d="M28 0l0.000976562 27c38.667 4.66699 63 10.834 73 18.501s15 25.167 15 52.5v506c0 27.333 -5 44.833 -15 52.5s-34.333 13.834 -73 18.501v27h522l5 -167h-20c-22 52.667 -43.167 88.167 -63.5 106.5s-47.833 27.5 -82.5 27.5h-179v-290h159
c20.667 0 36.167 7.16699 46.5 21.5s18.5 37.166 24.5 68.499h27v-213h-27c-6 31.333 -14.167 54.166 -24.5 68.499s-25.833 21.5 -46.5 21.5h-159v-245c0 -26 7.33301 -43.833 22 -53.5s40 -14.5 76 -14.5h92c34 0 62.167 10.5 84.5 31.5s50.166 59.5 83.499 115.5h24
l-30 -180h-534zM492.001 910l-130 -159h-68l-130 159h23l141 -94l141 94h23z" />
    <glyph glyph-name="ecaron" unicode="&#x11b;" horiz-adv-x="462" 
d="M250 530c59.333 0 105.498 -18.502 138.498 -55.502s49.5 -84.5 49.5 -142.5v-21h-332c-3.33301 -78.667 11.834 -140.667 45.501 -186s77.5 -68 131.5 -68c62 0 112 29.667 150 89l12 -6c-12.667 -45.333 -36 -81.666 -70 -108.999s-76.333 -41 -127 -41
c-68.667 0 -123 24.333 -163 73s-60 109.334 -60 182.001c0 82 21.333 150 64 204s96.334 81 161.001 81zM241.998 497.998c-37.333 0 -67.5 -14.667 -90.5 -44s-37.167 -67.333 -42.5 -114h242c0 48 -8.83301 86.333 -26.5 115s-45.167 43 -82.5 43zM394.998 765.998
l-110 -173h-68l-110 173h26l118 -108l118 108h26z" />
    <glyph glyph-name="Gcircumflex" unicode="&#x11c;" horiz-adv-x="697" 
d="M511 65l0.000976562 162.999c0 27.333 -5 44.833 -15 52.5s-34.333 13.834 -73 18.501v27h266v-27c-38.667 -4.66699 -63 -10.834 -73 -18.501s-15 -25.167 -15 -52.5v-166c-70.667 -48 -150 -72 -238 -72c-100 0 -180 32.833 -240 98.5s-90 148.167 -90 247.5
c0 113.333 31.167 204.333 93.5 273s143.166 103 242.499 103c88 0 161 -19 219 -57v-148h-27c-22.667 115.333 -86.667 173 -192 173c-52 0 -96 -14.667 -132 -44s-62 -67.166 -78 -113.499s-24 -99.5 -24 -159.5c0 -62 8.16699 -118 24.5 -168s42.833 -91.167 79.5 -123.5
s81 -48.5 133 -48.5c62 0 108.333 14 139 42zM405.001 909.999l130 -159h-23l-141 94l-141 -94h-23l130 159h68z" />
    <glyph glyph-name="gcircumflex" unicode="&#x11d;" horiz-adv-x="494" 
d="M232 191c-33.333 0 -63.332 5.00098 -89.999 15.001c-26.667 -26.667 -40 -50.667 -40 -72c0 -26 13.667 -39 41 -39h193c49.333 0 88 -10.333 116 -31s42 -52 42 -94c0 -58.667 -26.833 -105.334 -80.5 -140.001s-119.5 -52 -197.5 -52
c-66.667 0 -119.167 11.333 -157.5 34s-57.5 54 -57.5 94c0 46 31.667 82.333 95 109c-38 14.667 -57 42 -57 82c0 16 4.83301 31.667 14.5 47s19.667 27.5 30 36.5s24.166 19.833 41.499 32.5c-58 28.667 -87 75.667 -87 141c0 54 18.167 96.833 54.5 128.5
s82.833 47.5 139.5 47.5c25.333 0 53 -5 83 -15l160 4v-47h-37l-79 4c17.333 -11.333 32.333 -27.666 45 -48.999s19 -44 19 -68c0 -50.667 -17.5 -91.334 -52.5 -122.001s-81.167 -46 -138.5 -46zM324.001 11.001h-217c-19.333 -20 -29 -47 -29 -81
c0 -38 13 -67.833 39 -89.5s62.333 -32.5 109 -32.5c56.667 0 104 11 142 33s57 53.333 57 94c0 50.667 -33.667 76 -101 76zM237.001 216.001c31.333 0 55.333 12.667 72 38s25 57.333 25 96c0 44.667 -9.16699 81.5 -27.5 110.5s-44.5 43.5 -78.5 43.5
c-31.333 0 -55.5 -12.667 -72.5 -38s-25.5 -57.333 -25.5 -96c0 -44.667 9.16699 -81.5 27.5 -110.5s44.833 -43.5 79.5 -43.5zM281.001 765.001l110 -173h-26l-118 108l-118 -108h-26l110 173h68z" />
    <glyph glyph-name="Gbreve" unicode="&#x11e;" horiz-adv-x="697" 
d="M511 65l0.000976562 162.999c0 27.333 -5 44.833 -15 52.5s-34.333 13.834 -73 18.501v27h266v-27c-38.667 -4.66699 -63 -10.834 -73 -18.501s-15 -25.167 -15 -52.5v-166c-70.667 -48 -150 -72 -238 -72c-100 0 -180 32.833 -240 98.5s-90 148.167 -90 247.5
c0 113.333 31.167 204.333 93.5 273s143.166 103 242.499 103c88 0 161 -19 219 -57v-148h-27c-22.667 115.333 -86.667 173 -192 173c-52 0 -96 -14.667 -132 -44s-62 -67.166 -78 -113.499s-24 -99.5 -24 -159.5c0 -62 8.16699 -118 24.5 -168s42.833 -91.167 79.5 -123.5
s81 -48.5 133 -48.5c62 0 108.333 14 139 42zM371.001 747.999c-44 0 -78.5 13.167 -103.5 39.5s-37.5 65.5 -37.5 117.5h26c8.66699 -62.667 47 -94 115 -94s106.333 31.333 115 94h26c0 -52 -12.5 -91.167 -37.5 -117.5s-59.5 -39.5 -103.5 -39.5z" />
    <glyph glyph-name="gbreve" unicode="&#x11f;" horiz-adv-x="494" 
d="M232 191c-33.333 0 -63.332 5.00098 -89.999 15.001c-26.667 -26.667 -40 -50.667 -40 -72c0 -26 13.667 -39 41 -39h193c49.333 0 88 -10.333 116 -31s42 -52 42 -94c0 -58.667 -26.833 -105.334 -80.5 -140.001s-119.5 -52 -197.5 -52
c-66.667 0 -119.167 11.333 -157.5 34s-57.5 54 -57.5 94c0 46 31.667 82.333 95 109c-38 14.667 -57 42 -57 82c0 16 4.83301 31.667 14.5 47s19.667 27.5 30 36.5s24.166 19.833 41.499 32.5c-58 28.667 -87 75.667 -87 141c0 54 18.167 96.833 54.5 128.5
s82.833 47.5 139.5 47.5c25.333 0 53 -5 83 -15l160 4v-47h-37l-79 4c17.333 -11.333 32.333 -27.666 45 -48.999s19 -44 19 -68c0 -50.667 -17.5 -91.334 -52.5 -122.001s-81.167 -46 -138.5 -46zM324.001 11.001h-217c-19.333 -20 -29 -47 -29 -81
c0 -38 13 -67.833 39 -89.5s62.333 -32.5 109 -32.5c56.667 0 104 11 142 33s57 53.333 57 94c0 50.667 -33.667 76 -101 76zM237.001 216.001c31.333 0 55.333 12.667 72 38s25 57.333 25 96c0 44.667 -9.16699 81.5 -27.5 110.5s-44.5 43.5 -78.5 43.5
c-31.333 0 -55.5 -12.667 -72.5 -38s-25.5 -57.333 -25.5 -96c0 -44.667 9.16699 -81.5 27.5 -110.5s44.833 -43.5 79.5 -43.5zM247.001 596.001c-84 0 -126 53 -126 159h29c4.66699 -64 37 -96 97 -96s92.333 32 97 96h29c0 -106 -42 -159 -126 -159z" />
    <glyph glyph-name="Gdotaccent" unicode="&#x120;" horiz-adv-x="697" 
d="M511 65l0.000976562 162.999c0 27.333 -5 44.833 -15 52.5s-34.333 13.834 -73 18.501v27h266v-27c-38.667 -4.66699 -63 -10.834 -73 -18.501s-15 -25.167 -15 -52.5v-166c-70.667 -48 -150 -72 -238 -72c-100 0 -180 32.833 -240 98.5s-90 148.167 -90 247.5
c0 113.333 31.167 204.333 93.5 273s143.166 103 242.499 103c88 0 161 -19 219 -57v-148h-27c-22.667 115.333 -86.667 173 -192 173c-52 0 -96 -14.667 -132 -44s-62 -67.166 -78 -113.499s-24 -99.5 -24 -159.5c0 -62 8.16699 -118 24.5 -168s42.833 -91.167 79.5 -123.5
s81 -48.5 133 -48.5c62 0 108.333 14 139 42zM371.001 756.999c-17.333 0 -32.166 6.33301 -44.499 19s-18.5 27.667 -18.5 45s6.16699 32.333 18.5 45s27.166 19 44.499 19c18 0 33.167 -6.33301 45.5 -19s18.5 -27.667 18.5 -45s-6.16699 -32.333 -18.5 -45
s-27.5 -19 -45.5 -19z" />
    <glyph glyph-name="gdotaccent" unicode="&#x121;" horiz-adv-x="494" 
d="M232 191c-33.333 0 -63.332 5.00098 -89.999 15.001c-26.667 -26.667 -40 -50.667 -40 -72c0 -26 13.667 -39 41 -39h193c49.333 0 88 -10.333 116 -31s42 -52 42 -94c0 -58.667 -26.833 -105.334 -80.5 -140.001s-119.5 -52 -197.5 -52
c-66.667 0 -119.167 11.333 -157.5 34s-57.5 54 -57.5 94c0 46 31.667 82.333 95 109c-38 14.667 -57 42 -57 82c0 16 4.83301 31.667 14.5 47s19.667 27.5 30 36.5s24.166 19.833 41.499 32.5c-58 28.667 -87 75.667 -87 141c0 54 18.167 96.833 54.5 128.5
s82.833 47.5 139.5 47.5c25.333 0 53 -5 83 -15l160 4v-47h-37l-79 4c17.333 -11.333 32.333 -27.666 45 -48.999s19 -44 19 -68c0 -50.667 -17.5 -91.334 -52.5 -122.001s-81.167 -46 -138.5 -46zM324.001 11.001h-217c-19.333 -20 -29 -47 -29 -81
c0 -38 13 -67.833 39 -89.5s62.333 -32.5 109 -32.5c56.667 0 104 11 142 33s57 53.333 57 94c0 50.667 -33.667 76 -101 76zM237.001 216.001c31.333 0 55.333 12.667 72 38s25 57.333 25 96c0 44.667 -9.16699 81.5 -27.5 110.5s-44.5 43.5 -78.5 43.5
c-31.333 0 -55.5 -12.667 -72.5 -38s-25.5 -57.333 -25.5 -96c0 -44.667 9.16699 -81.5 27.5 -110.5s44.833 -43.5 79.5 -43.5zM247.001 608.001c-17.333 0 -32.166 6.33301 -44.499 19s-18.5 27.667 -18.5 45s6.16699 32.333 18.5 45s27.166 19 44.499 19
c18 0 33.167 -6.33301 45.5 -19s18.5 -27.667 18.5 -45s-6.16699 -32.333 -18.5 -45s-27.5 -19 -45.5 -19z" />
    <glyph glyph-name="Gcommaaccent" unicode="&#x122;" horiz-adv-x="697" 
d="M511 65l0.000976562 162.999c0 27.333 -5 44.833 -15 52.5s-34.333 13.834 -73 18.501v27h266v-27c-38.667 -4.66699 -63 -10.834 -73 -18.501s-15 -25.167 -15 -52.5v-166c-70.667 -48 -150 -72 -238 -72c-100 0 -180 32.833 -240 98.5s-90 148.167 -90 247.5
c0 113.333 31.167 204.333 93.5 273s143.166 103 242.499 103c88 0 161 -19 219 -57v-148h-27c-22.667 115.333 -86.667 173 -192 173c-52 0 -96 -14.667 -132 -44s-62 -67.166 -78 -113.499s-24 -99.5 -24 -159.5c0 -62 8.16699 -118 24.5 -168s42.833 -91.167 79.5 -123.5
s81 -48.5 133 -48.5c62 0 108.333 14 139 42zM391.001 -148.001l-45.999 0.000976562c-26.667 5.33301 -40 21.333 -40 48c0 16 5.66699 28.833 17 38.5s25.666 14.5 42.999 14.5c22.667 0 40.334 -7.16699 53.001 -21.5s19 -32.5 19 -54.5
c0 -30.667 -10.333 -55.334 -31 -74.001s-50.667 -28 -90 -28v22c23.333 0 41.666 5.5 54.999 16.5s20 23.833 20 38.5z" />
    <glyph glyph-name="gcommaaccent" unicode="&#x123;" horiz-adv-x="494" 
d="M232 191c-33.333 0 -63.332 5.00098 -89.999 15.001c-26.667 -26.667 -40 -50.667 -40 -72c0 -26 13.667 -39 41 -39h193c49.333 0 88 -10.333 116 -31s42 -52 42 -94c0 -58.667 -26.833 -105.334 -80.5 -140.001s-119.5 -52 -197.5 -52
c-66.667 0 -119.167 11.333 -157.5 34s-57.5 54 -57.5 94c0 46 31.667 82.333 95 109c-38 14.667 -57 42 -57 82c0 16 4.83301 31.667 14.5 47s19.667 27.5 30 36.5s24.166 19.833 41.499 32.5c-58 28.667 -87 75.667 -87 141c0 54 18.167 96.833 54.5 128.5
s82.833 47.5 139.5 47.5c25.333 0 53 -5 83 -15l160 4v-47h-37l-79 4c17.333 -11.333 32.333 -27.666 45 -48.999s19 -44 19 -68c0 -50.667 -17.5 -91.334 -52.5 -122.001s-81.167 -46 -138.5 -46zM324.001 11.001h-217c-19.333 -20 -29 -47 -29 -81
c0 -38 13 -67.833 39 -89.5s62.333 -32.5 109 -32.5c56.667 0 104 11 142 33s57 53.333 57 94c0 50.667 -33.667 76 -101 76zM237.001 216.001c31.333 0 55.333 12.667 72 38s25 57.333 25 96c0 44.667 -9.16699 81.5 -27.5 110.5s-44.5 43.5 -78.5 43.5
c-31.333 0 -55.5 -12.667 -72.5 -38s-25.5 -57.333 -25.5 -96c0 -44.667 9.16699 -81.5 27.5 -110.5s44.833 -43.5 79.5 -43.5zM227.001 708.001l45.999 -0.000976562c26.667 -5.33301 40 -21.333 40 -48c0 -16 -5.66699 -28.833 -17 -38.5s-25.666 -14.5 -42.999 -14.5
c-22.667 0 -40.334 7.16699 -53.001 21.5s-19 32.5 -19 54.5c0 30.667 10.333 55.334 31 74.001s50.667 28 90 28v-22c-23.333 0 -41.666 -5.5 -54.999 -16.5s-20 -23.833 -20 -38.5z" />
    <glyph glyph-name="Hcircumflex" unicode="&#x124;" horiz-adv-x="771" 
d="M210 604v-224h351v224c0 27.333 -5 44.833 -15 52.5s-34.333 13.834 -73 18.501v27h270v-27c-38.667 -4.66699 -63 -10.834 -73 -18.501s-15 -25.167 -15 -52.5v-506c0 -27.333 5 -44.833 15 -52.5s34.333 -13.834 73 -18.501v-27h-270v27
c38.667 4.66699 63 10.834 73 18.501s15 25.167 15 52.5v248h-351v-248c0 -27.333 5 -44.833 15 -52.5s34.333 -13.834 73 -18.501v-27h-270v27c38.667 4.66699 63 10.834 73 18.501s15 25.167 15 52.5v506c0 27.333 -5 44.833 -15 52.5s-34.333 13.834 -73 18.501v27h270
v-27c-38.667 -4.66699 -63 -10.834 -73 -18.501s-15 -25.167 -15 -52.5zM419 910l130 -159h-23l-141 94l-141 -94h-23l130 159h68z" />
    <glyph glyph-name="hcircumflex" unicode="&#x125;" horiz-adv-x="575" 
d="M87 76l0.00390625 611l-65 35v11l143 50h12v-348c57.333 63.333 118 95 182 95c90 0 135 -54.667 135 -164v-290c0 -19.333 4.66699 -32.166 14 -38.499s27.666 -10.166 54.999 -11.499v-26h-228v26c27.333 1.33301 45.666 5.16602 54.999 11.499s14 19.166 14 38.499
v291c0 70 -29.667 105 -89 105c-45.333 0 -91.333 -20.333 -138 -61v-335c0 -19.333 4.66699 -32.166 14 -38.499s27.666 -10.166 54.999 -11.499v-26h-228v26c27.333 1.33301 45.666 5.16602 54.999 11.499s14 19.166 14 38.499zM314.004 961l130 -159h-23l-141 94
l-141 -94h-23l130 159h68z" />
    <glyph glyph-name="Hbar" unicode="&#x126;" horiz-adv-x="791" 
d="M220 604v-70h351v70c0 27.333 -5 44.833 -15 52.5s-34.333 13.834 -73 18.501v27h270v-27c-38.667 -4.66699 -63 -10.834 -73 -18.501s-15 -25.167 -15 -52.5v-70h88v-34h-88v-402c0 -27.333 5 -44.833 15 -52.5s34.333 -13.834 73 -18.501v-27h-270v27
c38.667 4.66699 63 10.834 73 18.501s15 25.167 15 52.5v248h-351v-248c0 -27.333 5 -44.833 15 -52.5s34.333 -13.834 73 -18.501v-27h-270v27c38.667 4.66699 63 10.834 73 18.501s15 25.167 15 52.5v402h-88v34h88v70c0 27.333 -5 44.833 -15 52.5
s-34.333 13.834 -73 18.501v27h270v-27c-38.667 -4.66699 -63 -10.834 -73 -18.501s-15 -25.167 -15 -52.5zM220 380h351v120h-351v-120z" />
    <glyph glyph-name="hbar" unicode="&#x127;" horiz-adv-x="575" 
d="M87 76l0.00390625 520h-65v32h65v59l-65 35v11l143 50h12v-155h136v-32h-136v-161c57.333 63.333 118 95 182 95c90 0 135 -54.667 135 -164v-290c0 -19.333 4.66699 -32.166 14 -38.499s27.666 -10.166 54.999 -11.499v-26h-228v26
c27.333 1.33301 45.666 5.16602 54.999 11.499s14 19.166 14 38.499v291c0 70 -29.667 105 -89 105c-45.333 0 -91.333 -20.333 -138 -61v-335c0 -19.333 4.66699 -32.166 14 -38.499s27.666 -10.166 54.999 -11.499v-26h-228v26
c27.333 1.33301 45.666 5.16602 54.999 11.499s14 19.166 14 38.499z" />
    <glyph glyph-name="Itilde" unicode="&#x128;" horiz-adv-x="326" 
d="M210 604v-506c0 -27.333 5 -44.833 15 -52.5s34.333 -13.834 73 -18.501v-27h-270v27c38.667 4.66699 63 10.834 73 18.501s15 25.167 15 52.5v506c0 27.333 -5 44.833 -15 52.5s-34.333 13.834 -73 18.501v27h270v-27c-38.667 -4.66699 -63 -10.834 -73 -18.501
s-15 -25.167 -15 -52.5zM227 749c-16.667 0 -39.333 10 -68 30s-49.667 30 -63 30c-25.333 0 -47.333 -19.333 -66 -58l-17 10c17.333 44.667 32.833 75.5 46.5 92.5s30.834 25.5 51.501 25.5c16.667 0 39.334 -10 68.001 -30s49.667 -30 63 -30
c25.333 0 47.333 19.333 66 58l16 -10c-16.667 -45.333 -31.834 -76.333 -45.501 -93s-30.834 -25 -51.501 -25z" />
    <glyph glyph-name="itilde" unicode="&#x129;" horiz-adv-x="264" 
d="M183 601c-13.333 0 -32.667 9.33301 -58 28s-44 28 -56 28c-14 0 -25.167 -3.66699 -33.5 -11s-18.166 -21.666 -29.499 -42.999l-21 10c16.667 46 31 76.833 43 92.5s29 23.5 51 23.5c15.333 0 35.5 -9.33301 60.5 -28s42.833 -28 53.5 -28c14 0 25.167 3.66699 33.5 11
s18.166 21.666 29.499 42.999l21 -10c-16.667 -46 -31 -76.833 -43 -92.5s-29 -23.5 -51 -23.5zM179.999 530l0.00195312 -454c0 -19.333 4.66699 -32.166 14 -38.499s27.666 -10.166 54.999 -11.499v-26h-228v26c27.333 1.33301 45.666 5.16602 54.999 11.499
s14 19.166 14 38.499v358l-65 35v11l143 50h12z" />
    <glyph glyph-name="Imacron" unicode="&#x12a;" horiz-adv-x="326" 
d="M210 604v-506c0 -27.333 5 -44.833 15 -52.5s34.333 -13.834 73 -18.501v-27h-270v27c38.667 4.66699 63 10.834 73 18.501s15 25.167 15 52.5v506c0 27.333 -5 44.833 -15 52.5s-34.333 13.834 -73 18.501v27h270v-27c-38.667 -4.66699 -63 -10.834 -73 -18.501
s-15 -25.167 -15 -52.5zM22 773v49h282v-49h-282z" />
    <glyph glyph-name="imacron" unicode="&#x12b;" horiz-adv-x="264" 
d="M180 530l0.00195312 -454c0 -19.333 4.66699 -32.166 14 -38.499s27.666 -10.166 54.999 -11.499v-26h-228v26c27.333 1.33301 45.666 5.16602 54.999 11.499s14 19.166 14 38.499v358l-65 35v11l143 50h12zM27.002 624v48h207v-48h-207z" />
    <glyph glyph-name="Ibreve" unicode="&#x12c;" horiz-adv-x="326" 
d="M210 604v-506c0 -27.333 5 -44.833 15 -52.5s34.333 -13.834 73 -18.501v-27h-270v27c38.667 4.66699 63 10.834 73 18.501s15 25.167 15 52.5v506c0 27.333 -5 44.833 -15 52.5s-34.333 13.834 -73 18.501v27h270v-27c-38.667 -4.66699 -63 -10.834 -73 -18.501
s-15 -25.167 -15 -52.5zM165 747c-40 0 -71.5 13.167 -94.5 39.5s-34.5 65.833 -34.5 118.5h24c8 -63.333 43 -95 105 -95s97 31.667 105 95h23c0 -52.667 -11.333 -92.167 -34 -118.5s-54 -39.5 -94 -39.5z" />
    <glyph glyph-name="ibreve" unicode="&#x12d;" horiz-adv-x="264" 
d="M180 530l0.00195312 -454c0 -19.333 4.66699 -32.166 14 -38.499s27.666 -10.166 54.999 -11.499v-26h-228v26c27.333 1.33301 45.666 5.16602 54.999 11.499s14 19.166 14 38.499v358l-65 35v11l143 50h12zM135.002 596c-76.667 0 -115 53 -115 159h27
c3.33301 -64 32.666 -96 87.999 -96c54.667 0 84.334 32 89.001 96h26c0 -106 -38.333 -159 -115 -159z" />
    <glyph glyph-name="Iogonek" unicode="&#x12e;" horiz-adv-x="326" 
d="M210 604v-505.999c0 -27.333 5 -44.833 15 -52.5s34.333 -13.834 73 -18.501v-27h-73c-67.333 -30.667 -101 -68 -101 -112c0 -34.667 16.333 -52 49 -52c28.667 0 57 12 85 36l10 -11c-38 -47.333 -79.333 -71 -124 -71c-25.333 0 -45.833 7.5 -61.5 22.5
s-23.5 34.167 -23.5 57.5c0 51.333 42.667 94.666 128 129.999h-159v27c38.667 4.66699 63 10.834 73 18.501s15 25.167 15 52.5v506c0 27.333 -5 44.833 -15 52.5s-34.333 13.834 -73 18.501v27h270v-27c-38.667 -4.66699 -63 -10.834 -73 -18.501s-15 -25.167 -15 -52.5z
" />
    <glyph glyph-name="iogonek" unicode="&#x12f;" horiz-adv-x="264" 
d="M180 530l0.00195312 -453.999c0 -19.333 4.66699 -32.166 14 -38.499s27.666 -10.166 54.999 -11.499v-26h-60c-67.333 -30.667 -101 -68 -101 -112c0 -34.667 16.333 -52 49 -52c28.667 0 57 12 85 36l10 -11c-38 -47.333 -79.333 -71 -124 -71
c-25.333 0 -45.833 7.5 -61.5 22.5s-23.5 34.167 -23.5 57.5c0 51.333 42.667 94.666 128 129.999h-130v26c27.333 1.33301 45.666 5.16602 54.999 11.499s14 19.166 14 38.499v358l-65 35v11l143 50h12zM130.002 608.001c-17.333 0 -32.166 6.33301 -44.499 19
s-18.5 27.667 -18.5 45s6.16699 32.333 18.5 45s27.166 19 44.499 19c18 0 33.167 -6.33301 45.5 -19s18.5 -27.667 18.5 -45s-6.16699 -32.333 -18.5 -45s-27.5 -19 -45.5 -19z" />
    <glyph glyph-name="Idotaccent" unicode="&#x130;" horiz-adv-x="326" 
d="M210 604v-506c0 -27.333 5 -44.833 15 -52.5s34.333 -13.834 73 -18.501v-27h-270v27c38.667 4.66699 63 10.834 73 18.501s15 25.167 15 52.5v506c0 27.333 -5 44.833 -15 52.5s-34.333 13.834 -73 18.501v27h270v-27c-38.667 -4.66699 -63 -10.834 -73 -18.501
s-15 -25.167 -15 -52.5zM163 757c-17.333 0 -32.166 6.33301 -44.499 19s-18.5 27.667 -18.5 45s6.16699 32.333 18.5 45s27.166 19 44.499 19c18 0 33.167 -6.33301 45.5 -19s18.5 -27.667 18.5 -45s-6.16699 -32.333 -18.5 -45s-27.5 -19 -45.5 -19z" />
    <glyph glyph-name="dotlessi" unicode="&#x131;" horiz-adv-x="264" 
d="M180 530l0.00195312 -454c0 -19.333 4.66699 -32.166 14 -38.499s27.666 -10.166 54.999 -11.499v-26h-228v26c27.333 1.33301 45.666 5.16602 54.999 11.499s14 19.166 14 38.499v358l-65 35v11l143 50h12z" />
    <glyph glyph-name="IJ" unicode="&#x132;" horiz-adv-x="806" 
d="M210 604v-506c0 -27.333 5 -44.833 15 -52.5s34.333 -13.834 73 -18.501v-27h-270v27c38.667 4.66699 63 10.834 73 18.501s15 25.167 15 52.5v506c0 27.333 -5 44.833 -15 52.5s-34.333 13.834 -73 18.501v27h270v-27c-38.667 -4.66699 -63 -10.834 -73 -18.501
s-15 -25.167 -15 -52.5zM606 167l0.000976562 437c0 27.333 -5 44.833 -15 52.5s-34.333 13.834 -73 18.501v27h270v-27c-38.667 -4.66699 -63 -10.834 -73 -18.501s-15 -25.167 -15 -52.5v-403c0 -70 -17.333 -122.667 -52 -158s-83.667 -53 -147 -53
c-54.667 0 -98.334 11 -131.001 33s-49 53 -49 93c0 26.667 9.33301 48 28 64h67c-3.33301 -18.667 -5 -35 -5 -49c0 -75.333 32 -113 96 -113c66 0 99 49.667 99 149z" />
    <glyph glyph-name="ij" unicode="&#x133;" horiz-adv-x="507" 
d="M180 530l0.00195312 -454c0 -19.333 4.66699 -32.166 14 -38.499s27.666 -10.166 54.999 -11.499v-26h-228v26c27.333 1.33301 45.666 5.16602 54.999 11.499s14 19.166 14 38.499v358l-65 35v11l143 50h12zM130.002 608c-17.333 0 -32.166 6.33301 -44.499 19
s-18.5 27.667 -18.5 45s6.16699 32.333 18.5 45s27.166 19 44.499 19c18 0 33.167 -6.33301 45.5 -19s18.5 -27.667 18.5 -45s-6.16699 -32.333 -18.5 -45s-27.5 -19 -45.5 -19zM343.002 434l-65.001 35.001v11l143 50h12v-446c0 -44 -1.66699 -76.5 -5 -97.5
s-10.333 -42.5 -21 -64.5c-19.333 -38.667 -60.333 -87 -123 -145l-15 11l41 72c14.667 25.333 23.834 51.666 27.501 78.999s5.5 65 5.5 113v382zM383.001 608.001c-17.333 0 -32.166 6.33301 -44.499 19s-18.5 27.667 -18.5 45s6.16699 32.333 18.5 45
s27.166 19 44.499 19c18 0 33.167 -6.33301 45.5 -19s18.5 -27.667 18.5 -45s-6.16699 -32.333 -18.5 -45s-27.5 -19 -45.5 -19z" />
    <glyph glyph-name="Jcircumflex" unicode="&#x134;" horiz-adv-x="479" 
d="M279 167l0.000976562 437c0 27.333 -5 44.833 -15 52.5s-34.333 13.834 -73 18.501v27h270v-27c-38.667 -4.66699 -63 -10.834 -73 -18.501s-15 -25.167 -15 -52.5v-403c0 -70 -17.333 -122.667 -52 -158s-83.667 -53 -147 -53c-54.667 0 -98.334 11 -131.001 33
s-49 53 -49 93c0 26.667 9.33301 48 28 64h67c-3.33301 -18.667 -5 -35 -5 -49c0 -75.333 32 -113 96 -113c66 0 99 49.667 99 149zM359.001 910l130 -159h-23l-141 94l-141 -94h-23l130 159h68z" />
    <glyph glyph-name="jcircumflex" unicode="&#x135;" horiz-adv-x="243" 
d="M79 434l-65.001 35.001v11l143 50h12v-446c0 -44 -1.66699 -76.5 -5 -97.5s-10.333 -42.5 -21 -64.5c-19.333 -38.667 -60.333 -87 -123 -145l-15 11l41 72c14.667 25.333 23.834 51.666 27.501 78.999s5.5 65 5.5 113v382zM149.999 765.001l100 -174h-24l-106 109
l-107 -109h-23l99 174h61z" />
    <glyph glyph-name="Kcommaaccent" unicode="&#x136;" horiz-adv-x="661" 
d="M308 387l224 -280.002c26.667 -34 47.5 -55.5 62.5 -64.5s37.167 -14.167 66.5 -15.5v-27h-146c-26.667 20 -54.667 48.667 -84 86l-207 262l254 265c14.667 14.667 22 27 22 37c0 8.66699 -4.66699 14.334 -14 17.001s-31.333 5.33398 -66 8.00098v27h210v-27
c-20.667 -0.666992 -37 -4.66699 -49 -12s-27 -20.333 -45 -39zM210 603.998v-506c0 -27.333 5 -44.833 15 -52.5s34.333 -13.834 73 -18.501v-27h-270v27c38.667 4.66699 63 10.834 73 18.501s15 25.167 15 52.5v506c0 27.333 -5 44.833 -15 52.5
s-34.333 13.834 -73 18.501v27h270v-27c-38.667 -4.66699 -63 -10.834 -73 -18.501s-15 -25.167 -15 -52.5zM364 -148.002l-45.999 0.000976562c-26.667 5.33301 -40 21.333 -40 48c0 16 5.66699 28.833 17 38.5s25.666 14.5 42.999 14.5
c22.667 0 40.334 -7.16699 53.001 -21.5s19 -32.5 19 -54.5c0 -30.667 -10.333 -55.334 -31 -74.001s-50.667 -28 -90 -28v22c23.333 0 41.666 5.5 54.999 16.5s20 23.833 20 38.5z" />
    <glyph glyph-name="kcommaaccent" unicode="&#x137;" horiz-adv-x="531" 
d="M190 285l160.999 146.999c16.667 15.333 25 27.333 25 36c0 12 -17.667 20 -53 24c-6 0.666992 -10.667 1.33398 -14 2.00098v26h198v-26c-33.333 -8 -59.666 -20.667 -78.999 -38l-152 -138l255 -299v-19h-101zM87.999 75.999l0.00195312 611l-65 35v11l143 50h12v-707
c0 -19.333 4.66699 -32.166 14 -38.499s27.666 -10.166 54.999 -11.499v-26h-228v26c27.333 1.33301 45.666 5.16602 54.999 11.499s14 19.166 14 38.499zM309.001 -148.001l-45.999 0.000976562c-26.667 5.33301 -40 21.333 -40 48c0 16 5.66699 28.833 17 38.5
s25.666 14.5 42.999 14.5c22.667 0 40.334 -7.16699 53.001 -21.5s19 -32.5 19 -54.5c0 -30.667 -10.333 -55.334 -31 -74.001s-50.667 -28 -90 -28v22c23.333 0 41.666 5.5 54.999 16.5s20 23.833 20 38.5z" />
    <glyph glyph-name="kgreenlandic" unicode="&#x138;" horiz-adv-x="533" 
d="M192 285l160.999 146.999c16.667 15.333 25 27.333 25 36c0 12 -17.667 20 -53 24c-6 0.666992 -10.667 1.33398 -14 2.00098v26h198v-26c-33.333 -8 -59.666 -20.667 -78.999 -38l-152 -138l255 -299v-19h-101zM89.999 75.999l0.00195312 358l-65 35v11l143 50h12v-454
c0 -19.333 4.66699 -32.166 14 -38.499s27.666 -10.166 54.999 -11.499v-26h-228v26c27.333 1.33301 45.666 5.16602 54.999 11.499s14 19.166 14 38.499z" />
    <glyph glyph-name="Lacute" unicode="&#x139;" horiz-adv-x="582" 
d="M210 604l0.000976562 -503.002c0 -26 7.33301 -43.833 22 -53.5s40 -14.5 76 -14.5h59c38.667 0 69.167 11.833 91.5 35.5s49.166 65.834 80.499 126.501h25l-32 -195h-504v27c38.667 4.66699 63 10.834 73 18.501s15 25.167 15 52.5v506c0 27.333 -5 44.833 -15 52.5
s-34.333 13.834 -73 18.501v27h270v-27c-38.667 -4.66699 -63 -10.834 -73 -18.501s-15 -25.167 -15 -52.5zM219.001 899.998h105v-5l-143 -144h-17z" />
    <glyph glyph-name="lacute" unicode="&#x13a;" horiz-adv-x="262" 
d="M178 783l0.00195312 -707c0 -19.333 4.66699 -32.166 14 -38.499s27.666 -10.166 54.999 -11.499v-26h-228v26c27.333 1.33301 45.666 5.16602 54.999 11.499s14 19.166 14 38.499v611l-65 35v11l143 50h12zM158.002 943h105v-5l-143 -144h-17z" />
    <glyph glyph-name="Lcommaaccent" unicode="&#x13b;" horiz-adv-x="582" 
d="M210 604l0.000976562 -503.002c0 -26 7.33301 -43.833 22 -53.5s40 -14.5 76 -14.5h59c38.667 0 69.167 11.833 91.5 35.5s49.166 65.834 80.499 126.501h25l-32 -195h-504v27c38.667 4.66699 63 10.834 73 18.501s15 25.167 15 52.5v506c0 27.333 -5 44.833 -15 52.5
s-34.333 13.834 -73 18.501v27h270v-27c-38.667 -4.66699 -63 -10.834 -73 -18.501s-15 -25.167 -15 -52.5zM316.001 -148.002l-45.999 0.000976562c-26.667 5.33301 -40 21.333 -40 48c0 16 5.66699 28.833 17 38.5s25.666 14.5 42.999 14.5
c22.667 0 40.334 -7.16699 53.001 -21.5s19 -32.5 19 -54.5c0 -30.667 -10.333 -55.334 -31 -74.001s-50.667 -28 -90 -28v22c23.333 0 41.666 5.5 54.999 16.5s20 23.833 20 38.5z" />
    <glyph glyph-name="lcommaaccent" unicode="&#x13c;" horiz-adv-x="262" 
d="M178 783l0.00195312 -707c0 -19.333 4.66699 -32.166 14 -38.499s27.666 -10.166 54.999 -11.499v-26h-228v26c27.333 1.33301 45.666 5.16602 54.999 11.499s14 19.166 14 38.499v611l-65 35v11l143 50h12zM153.002 -148l-45.999 0.000976562
c-26.667 5.33301 -40 21.333 -40 48c0 16 5.66699 28.833 17 38.5s25.666 14.5 42.999 14.5c22.667 0 40.334 -7.16699 53.001 -21.5s19 -32.5 19 -54.5c0 -30.667 -10.333 -55.334 -31 -74.001s-50.667 -28 -90 -28v22c23.333 0 41.666 5.5 54.999 16.5s20 23.833 20 38.5z
" />
    <glyph glyph-name="Lcaron" unicode="&#x13d;" horiz-adv-x="582" 
d="M210 604l0.000976562 -503.002c0 -26 7.33301 -43.833 22 -53.5s40 -14.5 76 -14.5h59c38.667 0 69.167 11.833 91.5 35.5s49.166 65.834 80.499 126.501h25l-32 -195h-504v27c38.667 4.66699 63 10.834 73 18.501s15 25.167 15 52.5v506c0 27.333 -5 44.833 -15 52.5
s-34.333 13.834 -73 18.501v27h270v-27c-38.667 -4.66699 -63 -10.834 -73 -18.501s-15 -25.167 -15 -52.5zM492.001 696.998l-104 -200h-11l20 205h95v-5z" />
    <glyph glyph-name="lcaron" unicode="&#x13e;" horiz-adv-x="262" 
d="M178 783l0.00195312 -707c0 -19.333 4.66699 -32.166 14 -38.499s27.666 -10.166 54.999 -11.499v-26h-228v26c27.333 1.33301 45.666 5.16602 54.999 11.499s14 19.166 14 38.499v611l-65 35v11l143 50h12zM333.002 777l-104 -200h-11l20 205h95v-5z" />
    <glyph glyph-name="Ldot" unicode="&#x13f;" horiz-adv-x="582" 
d="M210 604l0.000976562 -503.002c0 -26 7.33301 -43.833 22 -53.5s40 -14.5 76 -14.5h59c38.667 0 69.167 11.833 91.5 35.5s49.166 65.834 80.499 126.501h25l-32 -195h-504v27c38.667 4.66699 63 10.834 73 18.501s15 25.167 15 52.5v506c0 27.333 -5 44.833 -15 52.5
s-34.333 13.834 -73 18.501v27h270v-27c-38.667 -4.66699 -63 -10.834 -73 -18.501s-15 -25.167 -15 -52.5zM406.001 386.998c0 19.333 6.66699 35.666 20 48.999s29.666 20 48.999 20s35.666 -6.66699 48.999 -20s20 -29.666 20 -48.999s-6.66699 -35.666 -20 -48.999
s-29.666 -20 -48.999 -20s-35.666 6.66699 -48.999 20s-20 29.666 -20 48.999z" />
    <glyph glyph-name="ldot" unicode="&#x140;" horiz-adv-x="308" 
d="M178 783l0.00195312 -707c0 -19.333 4.66699 -32.166 14 -38.499s27.666 -10.166 54.999 -11.499v-26h-228v26c27.333 1.33301 45.666 5.16602 54.999 11.499s14 19.166 14 38.499v611l-65 35v11l143 50h12zM222.002 371c0 17.333 6.33301 32.5 19 45.5s28 19.5 46 19.5
s33.333 -6.5 46 -19.5s19 -28.167 19 -45.5c0 -18 -6.33301 -33.333 -19 -46s-28 -19 -46 -19s-33.333 6.33301 -46 19s-19 28 -19 46z" />
    <glyph glyph-name="Lslash" unicode="&#x141;" horiz-adv-x="582" 
d="M210 604l0.000976562 -240.002l155 72v-36l-155 -71v-228c0 -26 7.33301 -43.833 22 -53.5s40 -14.5 76 -14.5h59c38.667 0 69.167 11.833 91.5 35.5s49.166 65.834 80.499 126.501h25l-32 -195h-504v27c38.667 4.66699 63 10.834 73 18.501s15 25.167 15 52.5v193
l-76 -35v36l76 35v277c0 27.333 -5 44.833 -15 52.5s-34.333 13.834 -73 18.501v27h270v-27c-38.667 -4.66699 -63 -10.834 -73 -18.501s-15 -25.167 -15 -52.5z" />
    <glyph glyph-name="lslash" unicode="&#x142;" horiz-adv-x="278" 
d="M183 783l0.00195312 -322l85 54v-38l-85 -55v-346c0 -19.333 4.66699 -32.166 14 -38.499s27.666 -10.166 54.999 -11.499v-26h-228v26c27.333 1.33301 45.666 5.16602 54.999 11.499s14 19.166 14 38.499v299l-79 -49v38l79 49v274l-65 35v11l143 50h12z" />
    <glyph glyph-name="Nacute" unicode="&#x143;" horiz-adv-x="739" 
d="M594 167v435c0 28 -5.83301 46.167 -17.5 54.5s-38.5 14.5 -80.5 18.5v27h225v-27c-38 -4.66699 -62.167 -11 -72.5 -19s-15.5 -26 -15.5 -54v-606h-25l-451 581v-477c0 -28 5.83301 -46.167 17.5 -54.5s38.5 -14.5 80.5 -18.5v-27h-225v27c38 4.66699 62.167 11 72.5 19
s15.5 26 15.5 54v514c-18.667 24 -33.5 40 -44.5 48s-26.167 12.333 -45.5 13v27h155zM403 900h105v-5l-143 -144h-17z" />
    <glyph glyph-name="nacute" unicode="&#x144;" horiz-adv-x="578" 
d="M407 76l0.00390625 291c0 70 -29.667 105 -89 105c-45.333 0 -91.333 -20.333 -138 -61v-335c0 -19.333 4.66699 -32.166 14 -38.499s27.666 -10.166 54.999 -11.499v-26h-228v26c27.333 1.33301 45.666 5.16602 54.999 11.499s14 19.166 14 38.499v358l-65 35v11l147 50
h12l-4 -95c57.333 63.333 118 95 182 95c90 0 135 -53.667 135 -161v-293c0 -19.333 4.66699 -32.166 14 -38.499s27.666 -10.166 54.999 -11.499v-26h-228v26c27.333 1.33301 45.666 5.16602 54.999 11.499s14 19.166 14 38.499zM327.004 761h100v-5l-143 -164h-17z" />
    <glyph glyph-name="Ncommaaccent" unicode="&#x145;" horiz-adv-x="739" 
d="M594 167v435c0 28 -5.83301 46.167 -17.5 54.5s-38.5 14.5 -80.5 18.5v27h225v-27c-38 -4.66699 -62.167 -11 -72.5 -19s-15.5 -26 -15.5 -54v-606h-25l-451 581v-477c0 -28 5.83301 -46.167 17.5 -54.5s38.5 -14.5 80.5 -18.5v-27h-225v27c38 4.66699 62.167 11 72.5 19
s15.5 26 15.5 54v514c-18.667 24 -33.5 40 -44.5 48s-26.167 12.333 -45.5 13v27h155zM408 -148l-45.999 0.000976562c-26.667 5.33301 -40 21.333 -40 48c0 16 5.66699 28.833 17 38.5s25.666 14.5 42.999 14.5c22.667 0 40.334 -7.16699 53.001 -21.5s19 -32.5 19 -54.5
c0 -30.667 -10.333 -55.334 -31 -74.001s-50.667 -28 -90 -28v22c23.333 0 41.666 5.5 54.999 16.5s20 23.833 20 38.5z" />
    <glyph glyph-name="ncommaaccent" unicode="&#x146;" horiz-adv-x="578" 
d="M407 76l0.00390625 291c0 70 -29.667 105 -89 105c-45.333 0 -91.333 -20.333 -138 -61v-335c0 -19.333 4.66699 -32.166 14 -38.499s27.666 -10.166 54.999 -11.499v-26h-228v26c27.333 1.33301 45.666 5.16602 54.999 11.499s14 19.166 14 38.499v358l-65 35v11l147 50
h12l-4 -95c57.333 63.333 118 95 182 95c90 0 135 -53.667 135 -161v-293c0 -19.333 4.66699 -32.166 14 -38.499s27.666 -10.166 54.999 -11.499v-26h-228v26c27.333 1.33301 45.666 5.16602 54.999 11.499s14 19.166 14 38.499zM317.004 -148l-45.999 0.000976562
c-26.667 5.33301 -40 21.333 -40 48c0 16 5.66699 28.833 17 38.5s25.666 14.5 42.999 14.5c22.667 0 40.334 -7.16699 53.001 -21.5s19 -32.5 19 -54.5c0 -30.667 -10.333 -55.334 -31 -74.001s-50.667 -28 -90 -28v22c23.333 0 41.666 5.5 54.999 16.5s20 23.833 20 38.5z
" />
    <glyph glyph-name="Ncaron" unicode="&#x147;" horiz-adv-x="739" 
d="M594 167v435c0 28 -5.83301 46.167 -17.5 54.5s-38.5 14.5 -80.5 18.5v27h225v-27c-38 -4.66699 -62.167 -11 -72.5 -19s-15.5 -26 -15.5 -54v-606h-25l-451 581v-477c0 -28 5.83301 -46.167 17.5 -54.5s38.5 -14.5 80.5 -18.5v-27h-225v27c38 4.66699 62.167 11 72.5 19
s15.5 26 15.5 54v514c-18.667 24 -33.5 40 -44.5 48s-26.167 12.333 -45.5 13v27h155zM552 910l-130 -159h-68l-130 159h23l141 -94l141 94h23z" />
    <glyph glyph-name="ncaron" unicode="&#x148;" horiz-adv-x="578" 
d="M407 76l0.00390625 291c0 70 -29.667 105 -89 105c-45.333 0 -91.333 -20.333 -138 -61v-335c0 -19.333 4.66699 -32.166 14 -38.499s27.666 -10.166 54.999 -11.499v-26h-228v26c27.333 1.33301 45.666 5.16602 54.999 11.499s14 19.166 14 38.499v358l-65 35v11l147 50
h12l-4 -95c57.333 63.333 118 95 182 95c90 0 135 -53.667 135 -161v-293c0 -19.333 4.66699 -32.166 14 -38.499s27.666 -10.166 54.999 -11.499v-26h-228v26c27.333 1.33301 45.666 5.16602 54.999 11.499s14 19.166 14 38.499zM441.004 766l-110 -173h-68l-110 173h26
l118 -108l118 108h26z" />
    <glyph glyph-name="Eng" unicode="&#x14a;" horiz-adv-x="739" 
d="M557 61l-400.002 515.999v-477c0 -28 5.83301 -46.167 17.5 -54.5s38.5 -14.5 80.5 -18.5v-27h-225v27c38 4.66699 62.167 11 72.5 19s15.5 26 15.5 54v514c-18.667 24 -33.5 40 -44.5 48s-26.167 12.333 -45.5 13v27h157l409 -533v433c0 28 -5.83301 46.167 -17.5 54.5
s-38.5 14.5 -80.5 18.5v27h225v-27c-38 -4.66699 -62.167 -11 -72.5 -19s-15.5 -26 -15.5 -54v-518c0 -44 -1.66699 -76.333 -5 -97s-10.333 -42 -21 -64c-11.333 -23.333 -25.166 -43.666 -41.499 -60.999s-39.166 -38 -68.499 -62l-15 11l21 33c36 56.667 54 129 54 217z
" />
    <glyph glyph-name="eng" unicode="&#x14b;" horiz-adv-x="571" 
d="M407 52l0.000976562 315.001c0 70 -29.667 105 -89 105c-45.333 0 -91.333 -20.333 -138 -61v-335c0 -19.333 4.66699 -32.166 14 -38.499s27.666 -10.166 54.999 -11.499v-26h-228v26c27.333 1.33301 45.666 5.16602 54.999 11.499s14 19.166 14 38.499v358l-65 35v11
l147 50h12l-4 -95c57.333 63.333 118 95 182 95c90 0 135 -53.667 135 -161v-285c0 -44 -1.66699 -76.5 -5 -97.5s-10.333 -42.5 -21 -64.5c-19.333 -38.667 -60.333 -87 -123 -145l-15 11l41 72c14.667 25.333 23.834 51.666 27.501 78.999s5.5 65 5.5 113z" />
    <glyph glyph-name="Omacron" unicode="&#x14c;" horiz-adv-x="696" 
d="M352 23c64.667 0 115.334 31.333 152.001 94s55 140.667 55 234c0 54.667 -7.33301 106 -22 154s-39 89 -73 123s-74.333 51 -121 51c-64.667 0 -115.334 -31.333 -152.001 -94s-55 -140.667 -55 -234c0 -54.667 7.33301 -106 22 -154s39 -89 73 -123s74.333 -51 121 -51
zM344 -10c-64 0 -120.169 16.5 -168.502 49.5s-84.166 75.5 -107.499 127.5s-35 108.667 -35 170c0 112 30.333 202.5 91 271.5s136.334 103.5 227.001 103.5c96 0 172 -34 228 -102s84 -149.667 84 -245c0 -112 -30.5 -202.5 -91.5 -271.5s-136.833 -103.5 -227.5 -103.5z
M206.998 773v49h282v-49h-282z" />
    <glyph glyph-name="omacron" unicode="&#x14d;" horiz-adv-x="518" 
d="M261 21c44 0 78 20.667 102 62s36 96.333 36 165c0 70.667 -12.167 130.167 -36.5 178.5s-59.5 72.5 -105.5 72.5c-44 0 -78 -20.667 -102 -62s-36 -96.333 -36 -165c0 -70.667 12.167 -130.167 36.5 -178.5s59.5 -72.5 105.5 -72.5zM256 -10
c-70 0 -126.167 23.667 -168.5 71s-63.5 109.333 -63.5 186c0 84.667 22.667 153 68 205s102 78 170 78c69.333 0 125.333 -23.833 168 -71.5s64 -109.5 64 -185.5c0 -84.667 -22.667 -153 -68 -205s-102 -78 -170 -78zM134 623v49h251v-49h-251z" />
    <glyph glyph-name="Obreve" unicode="&#x14e;" horiz-adv-x="696" 
d="M352 23c64.667 0 115.334 31.333 152.001 94s55 140.667 55 234c0 54.667 -7.33301 106 -22 154s-39 89 -73 123s-74.333 51 -121 51c-64.667 0 -115.334 -31.333 -152.001 -94s-55 -140.667 -55 -234c0 -54.667 7.33301 -106 22 -154s39 -89 73 -123s74.333 -51 121 -51
zM344 -10c-64 0 -120.169 16.5 -168.502 49.5s-84.166 75.5 -107.499 127.5s-35 108.667 -35 170c0 112 30.333 202.5 91 271.5s136.334 103.5 227.001 103.5c96 0 172 -34 228 -102s84 -149.667 84 -245c0 -112 -30.5 -202.5 -91.5 -271.5s-136.833 -103.5 -227.5 -103.5z
M347.998 748c-44 0 -78.5 13.167 -103.5 39.5s-37.5 65.5 -37.5 117.5h26c8.66699 -62.667 47 -94 115 -94s106.333 31.333 115 94h26c0 -52 -12.5 -91.167 -37.5 -117.5s-59.5 -39.5 -103.5 -39.5z" />
    <glyph glyph-name="obreve" unicode="&#x14f;" horiz-adv-x="518" 
d="M261 21c44 0 78 20.667 102 62s36 96.333 36 165c0 70.667 -12.167 130.167 -36.5 178.5s-59.5 72.5 -105.5 72.5c-44 0 -78 -20.667 -102 -62s-36 -96.333 -36 -165c0 -70.667 12.167 -130.167 36.5 -178.5s59.5 -72.5 105.5 -72.5zM256 -10
c-70 0 -126.167 23.667 -168.5 71s-63.5 109.333 -63.5 186c0 84.667 22.667 153 68 205s102 78 170 78c69.333 0 125.333 -23.833 168 -71.5s64 -109.5 64 -185.5c0 -84.667 -22.667 -153 -68 -205s-102 -78 -170 -78zM259 596c-84 0 -126 53 -126 159h29
c4.66699 -64 37 -96 97 -96s92.333 32 97 96h29c0 -106 -42 -159 -126 -159z" />
    <glyph glyph-name="Ohungarumlaut" unicode="&#x150;" horiz-adv-x="696" 
d="M352 23c64.667 0 115.334 31.333 152.001 94s55 140.667 55 234c0 54.667 -7.33301 106 -22 154s-39 89 -73 123s-74.333 51 -121 51c-64.667 0 -115.334 -31.333 -152.001 -94s-55 -140.667 -55 -234c0 -54.667 7.33301 -106 22 -154s39 -89 73 -123s74.333 -51 121 -51
zM344 -10c-64 0 -120.169 16.5 -168.502 49.5s-84.166 75.5 -107.499 127.5s-35 108.667 -35 170c0 112 30.333 202.5 91 271.5s136.334 103.5 227.001 103.5c96 0 172 -34 228 -102s84 -149.667 84 -245c0 -112 -30.5 -202.5 -91.5 -271.5s-136.833 -103.5 -227.5 -103.5z
M319.998 900h97v-5l-138 -144h-19zM462.998 900h97v-5l-138 -144h-19z" />
    <glyph glyph-name="ohungarumlaut" unicode="&#x151;" horiz-adv-x="518" 
d="M261 21c44 0 78 20.667 102 62s36 96.333 36 165c0 70.667 -12.167 130.167 -36.5 178.5s-59.5 72.5 -105.5 72.5c-44 0 -78 -20.667 -102 -62s-36 -96.333 -36 -165c0 -70.667 12.167 -130.167 36.5 -178.5s59.5 -72.5 105.5 -72.5zM256 -10
c-70 0 -126.167 23.667 -168.5 71s-63.5 109.333 -63.5 186c0 84.667 22.667 153 68 205s102 78 170 78c69.333 0 125.333 -23.833 168 -71.5s64 -109.5 64 -185.5c0 -84.667 -22.667 -153 -68 -205s-102 -78 -170 -78zM225 761h97v-5l-140 -164h-17zM368 761h97v-5
l-140 -164h-17z" />
    <glyph glyph-name="OE" unicode="&#x152;" horiz-adv-x="989" 
d="M491 669h-73c-84 0 -151.833 -27.167 -203.5 -81.5s-77.5 -132.166 -77.5 -233.499c0 -42.667 5.83301 -82.667 17.5 -120s29.167 -71.333 52.5 -102s55 -54.834 95 -72.501s86 -26.5 138 -26.5h51v636zM937 0l-512.999 0.00195312c-126 0 -222.667 31.833 -290 95.5
s-101 142.167 -101 235.5c0 114.667 36.333 205.167 109 271.5s162.667 99.5 270 99.5h518v-167h-20c-22 52.667 -43.167 88.167 -63.5 106.5s-47.833 27.5 -82.5 27.5h-179v-290h159c20.667 0 36.167 7.16699 46.5 21.5s18.5 37.166 24.5 68.499h27v-213h-27
c-6 31.333 -14.167 54.166 -24.5 68.499s-25.833 21.5 -46.5 21.5h-159v-245c0 -26 7.33301 -43.833 22 -53.5s40 -14.5 76 -14.5h92c34 0 62.167 10.5 84.5 31.5s50.166 59.5 83.499 115.5h24z" />
    <glyph glyph-name="oe" unicode="&#x153;" horiz-adv-x="831" 
d="M263 530c39.333 0 75 -8.83301 107 -26.5s58 -42.167 78 -73.5c20 30.667 45.167 55 75.5 73s62.166 27 95.499 27c59.333 0 105.5 -18.5 138.5 -55.5s49.5 -84.5 49.5 -142.5v-21h-332c-3.33301 -78.667 11.834 -140.667 45.501 -186s77.5 -68 131.5 -68
c62 0 112 29.667 150 89l12 -6c-12.667 -45.333 -36 -81.666 -70 -108.999s-76.333 -41 -127 -41c-38 0 -72.5 9 -103.5 27s-55.833 42 -74.5 72c-21.333 -30.667 -48 -54.834 -80 -72.501s-66 -26.5 -102 -26.5c-70 0 -126.167 23.667 -168.5 71s-63.5 109.333 -63.5 186
c0 84.667 22.667 153 68 205s102 78 170 78zM262 21c44 0 78 20.667 102 62s36 96.333 36 165c0 70.667 -12.167 130.167 -36.5 178.5s-59.5 72.5 -105.5 72.5c-44 0 -78 -20.667 -102 -62s-36 -96.333 -36 -165c0 -70.667 12.167 -130.167 36.5 -178.5
s59.5 -72.5 105.5 -72.5zM611 498c-37.333 0 -67.5 -14.667 -90.5 -44s-37.167 -67.333 -42.5 -114h242c0 48 -8.83301 86.333 -26.5 115s-45.167 43 -82.5 43z" />
    <glyph glyph-name="Racute" unicode="&#x154;" horiz-adv-x="674" 
d="M274 669h-64v-329h68c114 0 171 57 171 171c0 46 -14.833 83.833 -44.5 113.5s-73.167 44.5 -130.5 44.5zM210 307v-209.001c0 -27.333 5 -44.833 15 -52.5s34.333 -13.834 73 -18.501v-27h-270v27c38.667 4.66699 63 10.834 73 18.501s15 25.167 15 52.5v506
c0 27.333 -5 44.833 -15 52.5s-34.333 13.834 -73 18.501v27h268c82.667 0 145.667 -17.5 189 -52.5s65 -81.167 65 -138.5c0 -53.333 -18.167 -96 -54.5 -128s-77.166 -52.333 -122.499 -61l164 -211c24 -31.333 45.833 -53 65.5 -65s43.5 -18.333 71.5 -19v-27h-149
c-22.667 15.333 -50.334 45 -83.001 89l-163 218h-69zM334 899.999h105v-5l-143 -144h-17z" />
    <glyph glyph-name="racute" unicode="&#x155;" horiz-adv-x="363" 
d="M180 366l-0.000976562 -289.997c0 -18.667 6.16699 -31.334 18.5 -38.001s35.833 -10.667 70.5 -12v-26h-248v26c27.333 1.33301 45.666 5.16602 54.999 11.499s14 19.166 14 38.499v358l-65 35v11l147 50h12l-4 -142c30.667 56.667 54.334 94.5 71.001 113.5
s38 28.5 64 28.5c17.333 0 30 -5.33301 38 -16v-75h-14c-35.333 0 -64.166 -4.33301 -86.499 -13s-46.5 -28.667 -72.5 -60zM256.999 761.003h100v-5l-143 -164h-17z" />
    <glyph glyph-name="Rcommaaccent" unicode="&#x156;" horiz-adv-x="674" 
d="M274 669h-64v-329h68c114 0 171 57 171 171c0 46 -14.833 83.833 -44.5 113.5s-73.167 44.5 -130.5 44.5zM210 307v-209.001c0 -27.333 5 -44.833 15 -52.5s34.333 -13.834 73 -18.501v-27h-270v27c38.667 4.66699 63 10.834 73 18.501s15 25.167 15 52.5v506
c0 27.333 -5 44.833 -15 52.5s-34.333 13.834 -73 18.501v27h268c82.667 0 145.667 -17.5 189 -52.5s65 -81.167 65 -138.5c0 -53.333 -18.167 -96 -54.5 -128s-77.166 -52.333 -122.499 -61l164 -211c24 -31.333 45.833 -53 65.5 -65s43.5 -18.333 71.5 -19v-27h-149
c-22.667 15.333 -50.334 45 -83.001 89l-163 218h-69zM379 -148.001l-45.999 0.000976562c-26.667 5.33301 -40 21.333 -40 48c0 16 5.66699 28.833 17 38.5s25.666 14.5 42.999 14.5c22.667 0 40.334 -7.16699 53.001 -21.5s19 -32.5 19 -54.5
c0 -30.667 -10.333 -55.334 -31 -74.001s-50.667 -28 -90 -28v22c23.333 0 41.666 5.5 54.999 16.5s20 23.833 20 38.5z" />
    <glyph glyph-name="rcommaaccent" unicode="&#x157;" horiz-adv-x="363" 
d="M180 366l-0.000976562 -289.997c0 -18.667 6.16699 -31.334 18.5 -38.001s35.833 -10.667 70.5 -12v-26h-248v26c27.333 1.33301 45.666 5.16602 54.999 11.499s14 19.166 14 38.499v358l-65 35v11l147 50h12l-4 -142c30.667 56.667 54.334 94.5 71.001 113.5
s38 28.5 64 28.5c17.333 0 30 -5.33301 38 -16v-75h-14c-35.333 0 -64.166 -4.33301 -86.499 -13s-46.5 -28.667 -72.5 -60zM162.999 -147.997l-45.999 0.000976562c-26.667 5.33301 -40 21.333 -40 48c0 16 5.66699 28.833 17 38.5s25.666 14.5 42.999 14.5
c22.667 0 40.334 -7.16699 53.001 -21.5s19 -32.5 19 -54.5c0 -30.667 -10.333 -55.334 -31 -74.001s-50.667 -28 -90 -28v22c23.333 0 41.666 5.5 54.999 16.5s20 23.833 20 38.5z" />
    <glyph glyph-name="Rcaron" unicode="&#x158;" horiz-adv-x="674" 
d="M274 669h-64v-329h68c114 0 171 57 171 171c0 46 -14.833 83.833 -44.5 113.5s-73.167 44.5 -130.5 44.5zM210 307v-209.001c0 -27.333 5 -44.833 15 -52.5s34.333 -13.834 73 -18.501v-27h-270v27c38.667 4.66699 63 10.834 73 18.501s15 25.167 15 52.5v506
c0 27.333 -5 44.833 -15 52.5s-34.333 13.834 -73 18.501v27h268c82.667 0 145.667 -17.5 189 -52.5s65 -81.167 65 -138.5c0 -53.333 -18.167 -96 -54.5 -128s-77.166 -52.333 -122.499 -61l164 -211c24 -31.333 45.833 -53 65.5 -65s43.5 -18.333 71.5 -19v-27h-149
c-22.667 15.333 -50.334 45 -83.001 89l-163 218h-69zM473 909.999l-130 -159h-68l-130 159h23l141 -94l141 94h23z" />
    <glyph glyph-name="rcaron" unicode="&#x159;" horiz-adv-x="363" 
d="M180 366l-0.000976562 -289.997c0 -18.667 6.16699 -31.334 18.5 -38.001s35.833 -10.667 70.5 -12v-26h-248v26c27.333 1.33301 45.666 5.16602 54.999 11.499s14 19.166 14 38.499v358l-65 35v11l147 50h12l-4 -142c30.667 56.667 54.334 94.5 71.001 113.5
s38 28.5 64 28.5c17.333 0 30 -5.33301 38 -16v-75h-14c-35.333 0 -64.166 -4.33301 -86.499 -13s-46.5 -28.667 -72.5 -60zM370.999 766.003l-110 -173h-68l-110 173h26l118 -108l118 108h26z" />
    <glyph glyph-name="Sacute" unicode="&#x15a;" horiz-adv-x="519" 
d="M247 -10c-43.333 0 -83.5 6.00293 -120.5 18.0029s-66.5 27.667 -88.5 47l-6 169h29c24 -134.667 86 -202 186 -202c45.333 0 81.166 12.167 107.499 36.5s39.5 55.833 39.5 94.5c0 40.667 -12 72.167 -36 94.5s-70 47.833 -138 76.5
c-60.667 25.333 -105.834 52.166 -135.501 80.499s-44.5 68.833 -44.5 121.5c0 53.333 19 97.666 57 132.999s89 53 153 53c78.667 0 145.334 -19.333 200.001 -58v-147h-29c-7.33301 56.667 -25.666 99.667 -54.999 129s-68 44 -116 44
c-39.333 0 -70.166 -11.167 -92.499 -33.5s-33.5 -50.833 -33.5 -85.5c0 -37.333 10.167 -66.333 30.5 -87s59.166 -43 116.499 -67c73.333 -30.667 126.333 -61.667 159 -93s49 -73.333 49 -126c0 -60.667 -22.333 -108.834 -67 -144.501s-99.667 -53.5 -165 -53.5z
M292 900.003h105v-5l-143 -144h-17z" />
    <glyph glyph-name="sacute" unicode="&#x15b;" horiz-adv-x="432" 
d="M212 -10c-70 0 -126.001 16.3311 -168.001 48.998l-6 138h27c29.333 -106 79.666 -159 150.999 -159c31.333 0 56.666 8 75.999 24s29 39 29 69c0 28 -9.16699 50 -27.5 66s-51.166 33.333 -98.499 52c-53.333 20.667 -91.5 42.5 -114.5 65.5s-34.5 54.5 -34.5 94.5
c0 42.667 15 76.834 45 102.501s70 38.5 120 38.5c57.333 0 108 -14 152 -42v-121h-24c-23.333 90 -67.666 135 -132.999 135c-28 0 -49.833 -7.66699 -65.5 -23s-23.5 -35.333 -23.5 -60c0 -25.333 8.83301 -46.166 26.5 -62.499s49.167 -32.833 94.5 -49.5
c52.667 -20 91.834 -42 117.501 -66s38.5 -56.333 38.5 -97c0 -47.333 -16.5 -84.833 -49.5 -112.5s-77.167 -41.5 -132.5 -41.5zM251.999 760.998h100v-5l-143 -164h-17z" />
    <glyph glyph-name="Scircumflex" unicode="&#x15c;" horiz-adv-x="519" 
d="M247 -10c-43.333 0 -83.5 6.00293 -120.5 18.0029s-66.5 27.667 -88.5 47l-6 169h29c24 -134.667 86 -202 186 -202c45.333 0 81.166 12.167 107.499 36.5s39.5 55.833 39.5 94.5c0 40.667 -12 72.167 -36 94.5s-70 47.833 -138 76.5
c-60.667 25.333 -105.834 52.166 -135.501 80.499s-44.5 68.833 -44.5 121.5c0 53.333 19 97.666 57 132.999s89 53 153 53c78.667 0 145.334 -19.333 200.001 -58v-147h-29c-7.33301 56.667 -25.666 99.667 -54.999 129s-68 44 -116 44
c-39.333 0 -70.166 -11.167 -92.499 -33.5s-33.5 -50.833 -33.5 -85.5c0 -37.333 10.167 -66.333 30.5 -87s59.166 -43 116.499 -67c73.333 -30.667 126.333 -61.667 159 -93s49 -73.333 49 -126c0 -60.667 -22.333 -108.834 -67 -144.501s-99.667 -53.5 -165 -53.5z
M301 910.003l130 -159h-23l-141 94l-141 -94h-23l130 159h68z" />
    <glyph glyph-name="scircumflex" unicode="&#x15d;" horiz-adv-x="432" 
d="M212 -10c-70 0 -126.001 16.3311 -168.001 48.998l-6 138h27c29.333 -106 79.666 -159 150.999 -159c31.333 0 56.666 8 75.999 24s29 39 29 69c0 28 -9.16699 50 -27.5 66s-51.166 33.333 -98.499 52c-53.333 20.667 -91.5 42.5 -114.5 65.5s-34.5 54.5 -34.5 94.5
c0 42.667 15 76.834 45 102.501s70 38.5 120 38.5c57.333 0 108 -14 152 -42v-121h-24c-23.333 90 -67.666 135 -132.999 135c-28 0 -49.833 -7.66699 -65.5 -23s-23.5 -35.333 -23.5 -60c0 -25.333 8.83301 -46.166 26.5 -62.499s49.167 -32.833 94.5 -49.5
c52.667 -20 91.834 -42 117.501 -66s38.5 -56.333 38.5 -97c0 -47.333 -16.5 -84.833 -49.5 -112.5s-77.167 -41.5 -132.5 -41.5zM255.999 764.998l110 -173h-26l-118 108l-118 -108h-26l110 173h68z" />
    <glyph glyph-name="Scedilla" unicode="&#x15e;" horiz-adv-x="519" 
d="M162 -221l-5.00098 26.0039c35.333 0 63.5 4.83301 84.5 14.5s31.5 22.5 31.5 38.5c0 28 -29 43 -87 45l36 88c-80.667 5.33301 -142 26.666 -184 63.999l-6 169h29c24 -134.667 86 -202 186 -202c45.333 0 81.166 12.167 107.499 36.5s39.5 55.833 39.5 94.5
c0 40.667 -12 72.167 -36 94.5s-70 47.833 -138 76.5c-60.667 25.333 -105.834 52.166 -135.501 80.499s-44.5 68.833 -44.5 121.5c0 53.333 19 97.666 57 132.999s89 53 153 53c78.667 0 145.334 -19.333 200.001 -58v-147h-29c-7.33301 56.667 -25.666 99.667 -54.999 129
s-68 44 -116 44c-39.333 0 -70.166 -11.167 -92.499 -33.5s-33.5 -50.833 -33.5 -85.5c0 -37.333 10.167 -66.333 30.5 -87s59.166 -43 116.499 -67c73.333 -30.667 126.333 -61.667 159 -93s49 -73.333 49 -126c0 -60.667 -22.167 -108.667 -66.5 -144
s-99.166 -53.333 -164.499 -54l-15 -38c66.667 -1.33301 100 -26 100 -74c0 -32.667 -15.5 -57.334 -46.5 -74.001s-72.5 -25 -124.5 -25z" />
    <glyph glyph-name="scedilla" unicode="&#x15f;" horiz-adv-x="432" 
d="M119 -221l-5.00098 25.999c35.333 0 63.5 4.83301 84.5 14.5s31.5 22.5 31.5 38.5c0 28 -29 43 -87 45l36 89c-57.333 5.33301 -102.333 21 -135 47l-6 138h27c29.333 -106 79.666 -159 150.999 -159c31.333 0 56.666 8 75.999 24s29 39 29 69c0 28 -9.16699 50 -27.5 66
s-51.166 33.333 -98.499 52c-53.333 20.667 -91.5 42.5 -114.5 65.5s-34.5 54.5 -34.5 94.5c0 42.667 15 76.834 45 102.501s70 38.5 120 38.5c57.333 0 108 -14 152 -42v-121h-24c-23.333 90 -67.666 135 -132.999 135c-28 0 -49.833 -7.66699 -65.5 -23
s-23.5 -35.333 -23.5 -60c0 -25.333 8.83301 -46.166 26.5 -62.499s49.167 -32.833 94.5 -49.5c52.667 -20 91.834 -42 117.501 -66s38.5 -56.333 38.5 -97c0 -47.333 -16.5 -84.833 -49.5 -112.5s-77.167 -41.5 -132.5 -41.5h-7l-15 -38c66.667 -1.33301 100 -26 100 -74
c0 -32.667 -15.5 -57.334 -46.5 -74.001s-72.5 -25 -124.5 -25z" />
    <glyph glyph-name="Scaron" unicode="&#x160;" horiz-adv-x="519" 
d="M247 -10c-43.333 0 -83.5 6.00293 -120.5 18.0029s-66.5 27.667 -88.5 47l-6 169h29c24 -134.667 86 -202 186 -202c45.333 0 81.166 12.167 107.499 36.5s39.5 55.833 39.5 94.5c0 40.667 -12 72.167 -36 94.5s-70 47.833 -138 76.5
c-60.667 25.333 -105.834 52.166 -135.501 80.499s-44.5 68.833 -44.5 121.5c0 53.333 19 97.666 57 132.999s89 53 153 53c78.667 0 145.334 -19.333 200.001 -58v-147h-29c-7.33301 56.667 -25.666 99.667 -54.999 129s-68 44 -116 44
c-39.333 0 -70.166 -11.167 -92.499 -33.5s-33.5 -50.833 -33.5 -85.5c0 -37.333 10.167 -66.333 30.5 -87s59.166 -43 116.499 -67c73.333 -30.667 126.333 -61.667 159 -93s49 -73.333 49 -126c0 -60.667 -22.333 -108.834 -67 -144.501s-99.667 -53.5 -165 -53.5z
M431 910.003l-130 -159h-68l-130 159h23l141 -94l141 94h23z" />
    <glyph glyph-name="scaron" unicode="&#x161;" horiz-adv-x="432" 
d="M212 -10c-70 0 -126.001 16.3311 -168.001 48.998l-6 138h27c29.333 -106 79.666 -159 150.999 -159c31.333 0 56.666 8 75.999 24s29 39 29 69c0 28 -9.16699 50 -27.5 66s-51.166 33.333 -98.499 52c-53.333 20.667 -91.5 42.5 -114.5 65.5s-34.5 54.5 -34.5 94.5
c0 42.667 15 76.834 45 102.501s70 38.5 120 38.5c57.333 0 108 -14 152 -42v-121h-24c-23.333 90 -67.666 135 -132.999 135c-28 0 -49.833 -7.66699 -65.5 -23s-23.5 -35.333 -23.5 -60c0 -25.333 8.83301 -46.166 26.5 -62.499s49.167 -32.833 94.5 -49.5
c52.667 -20 91.834 -42 117.501 -66s38.5 -56.333 38.5 -97c0 -47.333 -16.5 -84.833 -49.5 -112.5s-77.167 -41.5 -132.5 -41.5zM365.999 765.998l-110 -173h-68l-110 173h26l118 -108l118 108h26z" />
    <glyph glyph-name="Tcedilla" unicode="&#x162;" horiz-adv-x="641" 
d="M29 702h583.001l15 -209h-22c-30 74.667 -54.333 123 -73 145s-49 33 -91 33h-73v-575c0 -14 1.5 -25.167 4.5 -33.5s9.5 -14.833 19.5 -19.5s19.167 -7.83398 27.5 -9.50098s23.5 -3.83398 45.5 -6.50098v-27h-289v27c22 2.66699 37.167 4.83398 45.5 6.50098
s17.666 4.83398 27.999 9.50098s17 11.167 20 19.5s4.5 19.5 4.5 33.5v575h-74c-42 0 -72.333 -11 -91 -33s-43 -70.333 -73 -145h-22zM340.001 -148l-45.999 0.000976562c-26.667 5.33301 -40 21.333 -40 48c0 16 5.66699 28.833 17 38.5s25.666 14.5 42.999 14.5
c22.667 0 40.334 -7.16699 53.001 -21.5s19 -32.5 19 -54.5c0 -30.667 -10.333 -55.334 -31 -74.001s-50.667 -28 -90 -28v22c23.333 0 41.666 5.5 54.999 16.5s20 23.833 20 38.5z" />
    <glyph glyph-name="tcedilla" unicode="&#x163;" horiz-adv-x="327" 
d="M156 644v-123.999h143v-38h-143v-331c0 -36.667 6.66699 -63.167 20 -79.5s34.333 -24.5 63 -24.5c26.667 0 53 9.66699 79 29l9 -12c-34 -49.333 -78 -74 -132 -74c-38.667 0 -69.5 11.667 -92.5 35s-34.5 60.333 -34.5 111v346h-68v14
c54.667 29.333 100 78.666 136 147.999h20zM183 -147.999l-45.999 0.000976562c-26.667 5.33301 -40 21.333 -40 48c0 16 5.66699 28.833 17 38.5s25.666 14.5 42.999 14.5c22.667 0 40.334 -7.16699 53.001 -21.5s19 -32.5 19 -54.5c0 -30.667 -10.333 -55.334 -31 -74.001
s-50.667 -28 -90 -28v22c23.333 0 41.666 5.5 54.999 16.5s20 23.833 20 38.5z" />
    <glyph glyph-name="Tcaron" unicode="&#x164;" horiz-adv-x="641" 
d="M29 702h583.001l15 -209h-22c-30 74.667 -54.333 123 -73 145s-49 33 -91 33h-73v-575c0 -14 1.5 -25.167 4.5 -33.5s9.5 -14.833 19.5 -19.5s19.167 -7.83398 27.5 -9.50098s23.5 -3.83398 45.5 -6.50098v-27h-289v27c22 2.66699 37.167 4.83398 45.5 6.50098
s17.666 4.83398 27.999 9.50098s17 11.167 20 19.5s4.5 19.5 4.5 33.5v575h-74c-42 0 -72.333 -11 -91 -33s-43 -70.333 -73 -145h-22zM484.001 910l-130 -159h-68l-130 159h23l141 -94l141 94h23z" />
    <glyph glyph-name="tcaron" unicode="&#x165;" horiz-adv-x="327" 
d="M156 644v-123.999h143v-38h-143v-331c0 -36.667 6.66699 -63.167 20 -79.5s34.333 -24.5 63 -24.5c26.667 0 53 9.66699 79 29l9 -12c-34 -49.333 -78 -74 -132 -74c-38.667 0 -69.5 11.667 -92.5 35s-34.5 60.333 -34.5 111v346h-68v14
c54.667 29.333 100 78.666 136 147.999h20zM321 778.001l-104 -200h-11l20 205h95v-5z" />
    <glyph glyph-name="Tbar" unicode="&#x166;" horiz-adv-x="641" 
d="M29 702h583.001l15 -209h-22c-30 74.667 -54.333 123 -73 145s-49 33 -91 33h-73v-291h120v-34h-120v-250c0 -14 1.5 -25.167 4.5 -33.5s9.5 -14.833 19.5 -19.5s19.167 -7.83398 27.5 -9.50098s23.5 -3.83398 45.5 -6.50098v-27h-289v27
c22 2.66699 37.167 4.83398 45.5 6.50098s17.666 4.83398 27.999 9.50098s17 11.167 20 19.5s4.5 19.5 4.5 33.5v250h-120v34h120v291h-74c-42 0 -72.333 -11 -91 -33s-43 -70.333 -73 -145h-22z" />
    <glyph glyph-name="tbar" unicode="&#x167;" horiz-adv-x="344" 
d="M163 644v-123.999h143v-38h-143v-112h143v-36h-143v-183c0 -36.667 6.66699 -63.167 20 -79.5s34.333 -24.5 63 -24.5c26.667 0 53 9.66699 79 29l9 -12c-34 -49.333 -78 -74 -132 -74c-38.667 0 -69.5 11.667 -92.5 35s-34.5 60.333 -34.5 111v198h-68v36h68v112h-68v14
c54.667 29.333 100 78.666 136 147.999h20z" />
    <glyph glyph-name="Utilde" unicode="&#x168;" horiz-adv-x="711" 
d="M191 604v-358c0 -64 15.167 -114.167 45.5 -150.5s72.833 -54.5 127.5 -54.5c140 0 210 71 210 213v348c0 28 -5.83301 46.167 -17.5 54.5s-38.5 14.5 -80.5 18.5v27h225v-27c-38 -4.66699 -62.167 -11 -72.5 -19s-15.5 -26 -15.5 -54v-365
c0 -80.667 -23.5 -142 -70.5 -184s-107.167 -63 -180.5 -63c-83.333 0 -148.333 20.833 -195 62.5s-70 104.167 -70 187.5v364c0 27.333 -5 44.833 -15 52.5s-34.333 13.834 -73 18.501v27h270v-27c-38.667 -4.66699 -63 -10.834 -73 -18.501s-15 -25.167 -15 -52.5z
M441 751c-18.667 0 -43.833 9.83301 -75.5 29.5s-54.5 29.5 -68.5 29.5c-28 0 -52.333 -19 -73 -57l-18 10c18.667 44 35.5 74.333 50.5 91s33.833 25 56.5 25c18 0 43 -9.83301 75 -29.5s55 -29.5 69 -29.5c28 0 52.333 19 73 57l18 -10
c-18.667 -44 -35.5 -74.333 -50.5 -91s-33.833 -25 -56.5 -25z" />
    <glyph glyph-name="utilde" unicode="&#x169;" horiz-adv-x="552" 
d="M468 423l-0.000976562 -326.004c0 -18 2.33301 -29.5 7 -34.5s18 -8.83301 40 -11.5l26 -3v-21l-151 -37h-15l4 94c-30 -30 -58.167 -53.167 -84.5 -69.5s-55.166 -24.5 -86.499 -24.5c-91.333 0 -137 52 -137 156v277c0 18.667 -3.33301 31.334 -10 38.001
s-21.667 11.334 -45 14.001l-16 2v23l154 28h11l-5 -109v-255c0 -76.667 29.667 -115 89 -115c38.667 0 82 19 130 57v317c0 18.667 -3.33301 31.334 -10 38.001s-21.667 11.334 -45 14.001l-15 2v23l152 28h11zM332.999 600.996c-18 0 -41.333 9.83301 -70 29.5
s-50 29.5 -64 29.5s-26 -4.33301 -36 -13s-20.667 -23.334 -32 -44.001l-18 10c19.333 45.333 35.666 76 48.999 92s31 24 53 24c18 0 41.333 -9.83301 70 -29.5s50 -29.5 64 -29.5s26 4.33301 36 13s20.667 23.334 32 44.001l18 -10
c-19.333 -45.333 -35.666 -76 -48.999 -92s-31 -24 -53 -24z" />
    <glyph glyph-name="Umacron" unicode="&#x16a;" horiz-adv-x="711" 
d="M191 604v-358c0 -64 15.167 -114.167 45.5 -150.5s72.833 -54.5 127.5 -54.5c140 0 210 71 210 213v348c0 28 -5.83301 46.167 -17.5 54.5s-38.5 14.5 -80.5 18.5v27h225v-27c-38 -4.66699 -62.167 -11 -72.5 -19s-15.5 -26 -15.5 -54v-365
c0 -80.667 -23.5 -142 -70.5 -184s-107.167 -63 -180.5 -63c-83.333 0 -148.333 20.833 -195 62.5s-70 104.167 -70 187.5v364c0 27.333 -5 44.833 -15 52.5s-34.333 13.834 -73 18.501v27h270v-27c-38.667 -4.66699 -63 -10.834 -73 -18.501s-15 -25.167 -15 -52.5z
M236 773v49h282v-49h-282z" />
    <glyph glyph-name="umacron" unicode="&#x16b;" horiz-adv-x="552" 
d="M468 423l-0.000976562 -326.004c0 -18 2.33301 -29.5 7 -34.5s18 -8.83301 40 -11.5l26 -3v-21l-151 -37h-15l4 94c-30 -30 -58.167 -53.167 -84.5 -69.5s-55.166 -24.5 -86.499 -24.5c-91.333 0 -137 52 -137 156v277c0 18.667 -3.33301 31.334 -10 38.001
s-21.667 11.334 -45 14.001l-16 2v23l154 28h11l-5 -109v-255c0 -76.667 29.667 -115 89 -115c38.667 0 82 19 130 57v317c0 18.667 -3.33301 31.334 -10 38.001s-21.667 11.334 -45 14.001l-15 2v23l152 28h11zM148.999 622.996v49h251v-49h-251z" />
    <glyph glyph-name="Ubreve" unicode="&#x16c;" horiz-adv-x="711" 
d="M191 604v-358c0 -64 15.167 -114.167 45.5 -150.5s72.833 -54.5 127.5 -54.5c140 0 210 71 210 213v348c0 28 -5.83301 46.167 -17.5 54.5s-38.5 14.5 -80.5 18.5v27h225v-27c-38 -4.66699 -62.167 -11 -72.5 -19s-15.5 -26 -15.5 -54v-365
c0 -80.667 -23.5 -142 -70.5 -184s-107.167 -63 -180.5 -63c-83.333 0 -148.333 20.833 -195 62.5s-70 104.167 -70 187.5v364c0 27.333 -5 44.833 -15 52.5s-34.333 13.834 -73 18.501v27h270v-27c-38.667 -4.66699 -63 -10.834 -73 -18.501s-15 -25.167 -15 -52.5z
M377 748c-44 0 -78.5 13.167 -103.5 39.5s-37.5 65.5 -37.5 117.5h26c8.66699 -62.667 47 -94 115 -94s106.333 31.333 115 94h26c0 -52 -12.5 -91.167 -37.5 -117.5s-59.5 -39.5 -103.5 -39.5z" />
    <glyph glyph-name="ubreve" unicode="&#x16d;" horiz-adv-x="552" 
d="M468 423l-0.000976562 -326.004c0 -18 2.33301 -29.5 7 -34.5s18 -8.83301 40 -11.5l26 -3v-21l-151 -37h-15l4 94c-30 -30 -58.167 -53.167 -84.5 -69.5s-55.166 -24.5 -86.499 -24.5c-91.333 0 -137 52 -137 156v277c0 18.667 -3.33301 31.334 -10 38.001
s-21.667 11.334 -45 14.001l-16 2v23l154 28h11l-5 -109v-255c0 -76.667 29.667 -115 89 -115c38.667 0 82 19 130 57v317c0 18.667 -3.33301 31.334 -10 38.001s-21.667 11.334 -45 14.001l-15 2v23l152 28h11zM273.999 595.996c-84 0 -126 53 -126 159h29
c4.66699 -64 37 -96 97 -96s92.333 32 97 96h29c0 -106 -42 -159 -126 -159z" />
    <glyph glyph-name="Uring" unicode="&#x16e;" horiz-adv-x="711" 
d="M191 604v-358c0 -64 15.167 -114.167 45.5 -150.5s72.833 -54.5 127.5 -54.5c140 0 210 71 210 213v348c0 28 -5.83301 46.167 -17.5 54.5s-38.5 14.5 -80.5 18.5v27h225v-27c-38 -4.66699 -62.167 -11 -72.5 -19s-15.5 -26 -15.5 -54v-365
c0 -80.667 -23.5 -142 -70.5 -184s-107.167 -63 -180.5 -63c-83.333 0 -148.333 20.833 -195 62.5s-70 104.167 -70 187.5v364c0 27.333 -5 44.833 -15 52.5s-34.333 13.834 -73 18.501v27h270v-27c-38.667 -4.66699 -63 -10.834 -73 -18.501s-15 -25.167 -15 -52.5z
M323 820c0 -16.667 4.83301 -30.5 14.5 -41.5s22.834 -16.5 39.501 -16.5s29.834 5.5 39.501 16.5s14.5 24.833 14.5 41.5s-4.83301 30.5 -14.5 41.5s-22.834 16.5 -39.501 16.5s-29.834 -5.5 -39.501 -16.5s-14.5 -24.833 -14.5 -41.5zM291 820
c0 24.667 8.16699 45.167 24.5 61.5s36.833 24.5 61.5 24.5s45.167 -8.16699 61.5 -24.5s24.5 -36.833 24.5 -61.5s-8.16699 -45.167 -24.5 -61.5s-36.833 -24.5 -61.5 -24.5s-45.167 8.16699 -61.5 24.5s-24.5 36.833 -24.5 61.5z" />
    <glyph glyph-name="uring" unicode="&#x16f;" horiz-adv-x="552" 
d="M468 423l-0.000976562 -326.004c0 -18 2.33301 -29.5 7 -34.5s18 -8.83301 40 -11.5l26 -3v-21l-151 -37h-15l4 94c-30 -30 -58.167 -53.167 -84.5 -69.5s-55.166 -24.5 -86.499 -24.5c-91.333 0 -137 52 -137 156v277c0 18.667 -3.33301 31.334 -10 38.001
s-21.667 11.334 -45 14.001l-16 2v23l154 28h11l-5 -109v-255c0 -76.667 29.667 -115 89 -115c38.667 0 82 19 130 57v317c0 18.667 -3.33301 31.334 -10 38.001s-21.667 11.334 -45 14.001l-15 2v23l152 28h11zM219.999 651.996c0 -16.667 4.83301 -30.5 14.5 -41.5
s22.834 -16.5 39.501 -16.5s29.834 5.5 39.501 16.5s14.5 24.833 14.5 41.5s-4.83301 30.5 -14.5 41.5s-22.834 16.5 -39.501 16.5s-29.834 -5.5 -39.501 -16.5s-14.5 -24.833 -14.5 -41.5zM187.999 651.996c0 24.667 8.16699 45.167 24.5 61.5s36.833 24.5 61.5 24.5
s45.167 -8.16699 61.5 -24.5s24.5 -36.833 24.5 -61.5s-8.16699 -45.167 -24.5 -61.5s-36.833 -24.5 -61.5 -24.5s-45.167 8.16699 -61.5 24.5s-24.5 36.833 -24.5 61.5z" />
    <glyph glyph-name="Uhungarumlaut" unicode="&#x170;" horiz-adv-x="711" 
d="M191 604v-358c0 -64 15.167 -114.167 45.5 -150.5s72.833 -54.5 127.5 -54.5c140 0 210 71 210 213v348c0 28 -5.83301 46.167 -17.5 54.5s-38.5 14.5 -80.5 18.5v27h225v-27c-38 -4.66699 -62.167 -11 -72.5 -19s-15.5 -26 -15.5 -54v-365
c0 -80.667 -23.5 -142 -70.5 -184s-107.167 -63 -180.5 -63c-83.333 0 -148.333 20.833 -195 62.5s-70 104.167 -70 187.5v364c0 27.333 -5 44.833 -15 52.5s-34.333 13.834 -73 18.501v27h270v-27c-38.667 -4.66699 -63 -10.834 -73 -18.501s-15 -25.167 -15 -52.5z
M349 900h97v-5l-138 -144h-19zM492 900h97v-5l-138 -144h-19z" />
    <glyph glyph-name="uhungarumlaut" unicode="&#x171;" horiz-adv-x="552" 
d="M468 423l-0.000976562 -326.004c0 -18 2.33301 -29.5 7 -34.5s18 -8.83301 40 -11.5l26 -3v-21l-151 -37h-15l4 94c-30 -30 -58.167 -53.167 -84.5 -69.5s-55.166 -24.5 -86.499 -24.5c-91.333 0 -137 52 -137 156v277c0 18.667 -3.33301 31.334 -10 38.001
s-21.667 11.334 -45 14.001l-16 2v23l154 28h11l-5 -109v-255c0 -76.667 29.667 -115 89 -115c38.667 0 82 19 130 57v317c0 18.667 -3.33301 31.334 -10 38.001s-21.667 11.334 -45 14.001l-15 2v23l152 28h11zM239.999 760.996h97v-5l-140 -164h-17zM382.999 760.996h97
v-5l-140 -164h-17z" />
    <glyph glyph-name="Uogonek" unicode="&#x172;" horiz-adv-x="711" 
d="M191 604l-0.000976562 -358c0 -64 15.167 -114.167 45.5 -150.5s72.833 -54.5 127.5 -54.5c140 0 210 71 210 213v348c0 28 -5.83301 46.167 -17.5 54.5s-38.5 14.5 -80.5 18.5v27h225v-27c-38 -4.66699 -62.167 -11 -72.5 -19s-15.5 -26 -15.5 -54v-365
c0 -64 -15.167 -116 -45.5 -156s-71.166 -67 -122.499 -81c-68 -30.667 -102 -68 -102 -112c0 -34.667 16.333 -52 49 -52c28.667 0 57 12 85 36l10 -11c-38 -47.333 -79.333 -71 -124 -71c-25.333 0 -45.833 7.5 -61.5 22.5s-23.5 34.167 -23.5 57.5
c0 48 35.667 88.333 107 121c-2.66699 0 -6.5 -0.166992 -11.5 -0.5s-8.83301 -0.5 -11.5 -0.5c-83.333 0 -148.333 20.833 -195 62.5s-70 104.167 -70 187.5v364c0 27.333 -5 44.833 -15 52.5s-34.333 13.834 -73 18.501v27h270v-27
c-38.667 -4.66699 -63 -10.834 -73 -18.501s-15 -25.167 -15 -52.5z" />
    <glyph glyph-name="uogonek" unicode="&#x173;" horiz-adv-x="552" 
d="M468 423l-0.000976562 -326.004c0 -18 2.33301 -29.5 7 -34.5s18 -8.83301 40 -11.5l26 -3v-21c-77.333 -18.667 -131 -39 -161 -61s-45 -48 -45 -78c0 -34.667 16.333 -52 49 -52c28.667 0 57 12 85 36l10 -11c-38 -47.333 -79.333 -71 -124 -71
c-25.333 0 -45.833 7.5 -61.5 22.5s-23.5 34.167 -23.5 57.5c0 26 9 48.167 27 66.5s44 35.5 78 51.5l4 96c-30 -30 -58.167 -53.167 -84.5 -69.5s-55.166 -24.5 -86.499 -24.5c-91.333 0 -137 52 -137 156v277c0 18.667 -3.33301 31.334 -10 38.001
s-21.667 11.334 -45 14.001l-16 2v23l154 28h11l-5 -109v-255c0 -76.667 29.667 -115 89 -115c38.667 0 82 19 130 57v317c0 18.667 -3.33301 31.334 -10 38.001s-21.667 11.334 -45 14.001l-15 2v23l152 28h11z" />
    <glyph glyph-name="Wcircumflex" unicode="&#x174;" horiz-adv-x="918" 
d="M609 -9l-139 422.001l-152 -422h-24l-230 647c-6.66699 20 -26.334 32.333 -59.001 37v27h255v-27c-34 -1.33301 -57.5 -5 -70.5 -11s-19.5 -16.667 -19.5 -32c0 -4 3 -17.333 9 -40l158 -452l116 324l-57 174c-4 13.333 -10.5 22.166 -19.5 26.499
s-22.167 7.83301 -39.5 10.5v27h246v-27c-34 -1.33301 -57.5 -5 -70.5 -11s-19.5 -16.667 -19.5 -32c0 -6 3 -19.333 9 -40l147 -447l151 446c6.66699 20 10 33.333 10 40c0 15.333 -6.66699 26.166 -20 32.499s-37 10.166 -71 11.499v27h194v-27
c-11.333 -2 -19.666 -3.66699 -24.999 -5s-11.333 -4.66602 -18 -9.99902s-11.667 -12.666 -15 -21.999l-223 -647h-23zM501 910.001l130 -159h-23l-141 94l-141 -94h-23l130 159h68z" />
    <glyph glyph-name="wcircumflex" unicode="&#x175;" horiz-adv-x="775" 
d="M551 118l120.999 316.001c2.66699 7.33301 4 15.333 4 24c0 12 -5 20.167 -15 24.5s-27.667 8.16602 -53 11.499v26h162v-26c-18 -4 -30 -8.33301 -36 -13s-11 -12.667 -15 -24l-182 -467h-24l-121 339l-127 -339h-23l-186 467c-4.66699 11.333 -10 19.333 -16 24
s-17.667 9 -35 13v26h219v-26c-25.333 -3.33301 -43 -7.16602 -53 -11.499s-15 -12.5 -15 -24.5c0 -8 1.33301 -16 4 -24l119 -318l97 263l-28 78c-3.33301 10.667 -8.16602 18.334 -14.499 23.001s-18.5 9.33398 -36.5 14.001v26h209v-26
c-18 -2.66699 -30.833 -4.83398 -38.5 -6.50098s-14.5 -4.83398 -20.5 -9.50098s-9 -11.334 -9 -20.001c0 -7.33301 1.33301 -15.333 4 -24zM426.999 765.001l110 -173h-26l-118 108l-118 -108h-26l110 173h68z" />
    <glyph glyph-name="Ycircumflex" unicode="&#x176;" horiz-adv-x="621" 
d="M353 283l0.000976562 -187c0 -14 1.5 -25.167 4.5 -33.5s9.5 -14.833 19.5 -19.5s19.167 -7.83398 27.5 -9.50098s23.5 -3.83398 45.5 -6.50098v-27h-284v27c22 2.66699 37.167 4.83398 45.5 6.50098s17.666 4.83398 27.999 9.50098s17 11.167 20 19.5s4.5 19.5 4.5 33.5
v186l-200 356c-12 20.667 -31.667 33 -59 37v27h255v-27c-34 -1.33301 -57.333 -4.5 -70 -9.5s-19 -14.167 -19 -27.5c0 -8 6 -23.333 18 -46l151 -266l150 265c11.333 21.333 17 37.333 17 48c0 13.333 -6 22.333 -18 27s-35.333 7.66699 -70 9v27h197v-27
c-28 -4 -47.667 -16.333 -59 -37zM358.001 910l130 -159h-23l-141 94l-141 -94h-23l130 159h68z" />
    <glyph glyph-name="ycircumflex" unicode="&#x177;" horiz-adv-x="525" 
d="M298 94l124.997 339.999c4 10.667 6 19.667 6 27c0 11.333 -4.66699 18.833 -14 22.5s-28 7.16699 -56 10.5v26h161v-26c-17.333 -4 -29.166 -8.5 -35.499 -13.5s-11.5 -12.833 -15.5 -23.5l-212 -561c-15.333 -39.333 -31.666 -68.166 -48.999 -86.499
s-40.333 -27.5 -69 -27.5c-16 0 -31 4.5 -45 13.5s-23 21.167 -27 36.5v29c20.667 -6 40 -9 58 -9c28.667 0 51.834 5.83301 69.501 17.5s32.167 33.5 43.5 65.5l19 51l-201 471c-4.66699 11.333 -10 19.333 -16 24s-17.667 9 -35 13v26h221v-26
c-28 -3.33301 -46.667 -6.83301 -56 -10.5s-14 -11.167 -14 -22.5c0 -6.66699 2 -16 6 -28zM317.997 764.999l110 -173h-26l-118 108l-118 -108h-26l110 173h68z" />
    </font>
</defs>
</svg>
